<?xml version="1.0" standalone="no"?>
<!DOCTYPE svg PUBLIC "-//W3C//DTD SVG 1.1//EN" "http://www.w3.org/Graphics/SVG/1.1/DTD/svg11.dtd" >
<svg xmlns="http://www.w3.org/2000/svg" xmlns:xlink="http://www.w3.org/1999/xlink" version="1.1">
<metadata>
Created by FontForge 20170910 at Thu Sep 26 19:09:09 2013
 By Jimmy Wärting
Copyright (c) 2003-2013 Lux Typographic + Design. All rights reserved.
</metadata>
<defs>
<font id="Section-Bold" horiz-adv-x="526" >
  <font-face 
    font-family="Section Bold"
    font-weight="700"
    font-stretch="normal"
    units-per-em="1000"
    panose-1="2 11 5 4 3 3 1 2 1 3"
    ascent="800"
    descent="-200"
    x-height="480"
    cap-height="675"
    bbox="-182 -278 1211 954"
    underline-thickness="40"
    underline-position="-118"
    unicode-range="U+0020-FB04"
  />
<missing-glyph horiz-adv-x="960" 
d="M90 0v780h780v-780h-780zM201 714l279 -279l279 279h-558zM525 390l275 -275v550zM435 390l-275 275v-550zM480 345l-279 -279h558z" />
    <glyph glyph-name="fi" unicode="fi" horiz-adv-x="567" 
d="M83 476v98c0 92 47 141 152 141c35 0 73 -3 107 -9l-7 -101c-30 5 -62 7 -83 7c-47 0 -51 -14 -51 -60v-72h134v-104h-134v-376h-118v376h-72v90zM516 565h-126v128h126v-128zM512 0h-118v480h118v-480z" />
    <glyph glyph-name="fl" unicode="fl" horiz-adv-x="569" 
d="M83 476v98c0 92 47 141 152 141c35 0 73 -3 107 -9l-7 -101c-30 5 -62 7 -83 7c-47 0 -51 -14 -51 -60v-72h134v-104h-134v-376h-118v376h-72v90zM512 0h-118v705h118v-705z" />
    <glyph glyph-name="f_dotlessi" unicode="f&#x131;" horiz-adv-x="558" 
d="M83 476v98c0 92 47 141 152 141c35 0 73 -3 107 -9l-7 -101c-30 5 -62 7 -83 7c-47 0 -51 -14 -51 -60v-72h134v-104h-134v-376h-118v376h-72v90zM512 0h-118v480h118v-480z" />
    <glyph glyph-name=".notdef" horiz-adv-x="960" 
d="M90 0v780h780v-780h-780zM201 714l279 -279l279 279h-558zM525 390l275 -275v550zM435 390l-275 275v-550zM480 345l-279 -279h558z" />
    <glyph glyph-name="space" unicode=" " horiz-adv-x="182" 
 />
    <glyph glyph-name="exclam" unicode="!" horiz-adv-x="341" 
d="M114 210l-11 465h135l-11 -465h-113zM240 0h-139v143h139v-143z" />
    <glyph glyph-name="quotedbl" unicode="&#x22;" horiz-adv-x="424" 
d="M351 675l-15 -271h-83l-14 271h112zM175 675l-15 -271h-83l-14 271h112z" />
    <glyph glyph-name="numbersign" unicode="#" horiz-adv-x="542" 
d="M144 -15h-94l42 184h-95l18 79h95l41 178h-101l18 83h102l42 181h92l-41 -181h104l42 181h89l-41 -181h97l-19 -83h-97l-40 -178h103l-19 -79h-102l-42 -184h-91l42 184h-103zM244 426l-40 -178h103l41 178h-104z" />
    <glyph glyph-name="dollar" unicode="$" 
d="M303 -138h-84v128c-51 1 -126 6 -155 10l5 112c54 -7 127 -9 165 -9c54 0 113 7 113 68c0 36 -19 52 -44 69l-148 104c-57 40 -103 90 -103 170c0 110 68 156 167 167v131h84v-127c42 -1 93 -4 132 -10l-5 -110c-42 5 -113 9 -150 9c-56 0 -100 -4 -100 -57
c0 -38 20 -51 55 -75l144 -100c52 -36 98 -77 98 -168c0 -110 -77 -164 -174 -179v-133z" />
    <glyph glyph-name="percent" unicode="%" horiz-adv-x="774" 
d="M63 495c0 106 43 161 141 161s141 -55 141 -161c0 -105 -43 -161 -141 -161s-141 56 -141 161zM649 649l-423 -649h-99l422 649h100zM154 495c0 -68 15 -89 51 -89c34 0 50 21 50 89s-16 88 -50 88c-36 0 -51 -20 -51 -88zM429 150c0 106 43 161 141 161
s141 -55 141 -161c0 -105 -43 -161 -141 -161s-141 56 -141 161zM520 150c0 -68 15 -89 51 -89c34 0 50 21 50 89s-16 89 -50 89c-36 0 -51 -21 -51 -89z" />
    <glyph glyph-name="ampersand" unicode="&#x26;" horiz-adv-x="597" 
d="M586 103l4 -104c-21 -8 -44 -9 -64 -9c-40 0 -84 13 -123 45c-39 -28 -88 -45 -147 -45c-153 0 -204 91 -204 177c0 87 50 146 102 187c-36 51 -64 107 -64 178c0 73 39 153 163 153c123 0 158 -78 158 -161c0 -89 -57 -154 -106 -196c28 -44 68 -97 95 -122
c16 28 31 63 42 102l105 -33c-12 -46 -42 -112 -67 -148c21 -20 42 -28 69 -28c11 0 24 1 37 4zM255 586c-23 0 -46 -18 -46 -60c0 -39 21 -77 38 -102c24 23 52 54 52 103c0 42 -21 59 -44 59zM257 94c24 0 50 5 67 20c-27 26 -90 104 -108 137c-24 -20 -38 -47 -38 -83
c0 -43 32 -74 79 -74z" />
    <glyph glyph-name="quotesingle" unicode="'" horiz-adv-x="238" 
d="M175 675l-15 -271h-83l-14 271h112z" />
    <glyph glyph-name="parenleft" unicode="(" horiz-adv-x="293" 
d="M131 750h120c-45 -133 -71 -298 -71 -461s22 -325 67 -458h-116c-48 127 -75 293 -75 460c0 166 28 332 75 459z" />
    <glyph glyph-name="parenright" unicode=")" horiz-adv-x="293" 
d="M42 750h120c47 -127 75 -293 75 -459c0 -167 -27 -333 -75 -460h-116c45 133 67 295 67 458s-26 328 -71 461z" />
    <glyph glyph-name="asterisk" unicode="*" horiz-adv-x="447" 
d="M426 563l-141 -32l95 -118l-79 -54l-79 124l-76 -124l-77 54l91 118l-139 31l28 92l135 -50l-8 134h93l-7 -136l136 52z" />
    <glyph glyph-name="plus" unicode="+" horiz-adv-x="566" 
d="M521 207h-180v-176h-117v176h-179v102h179v177h117v-177h180v-102z" />
    <glyph glyph-name="comma" unicode="," horiz-adv-x="274" 
d="M213 153l-4 -138c-18 -46 -49 -115 -72 -152h-98c17 48 35 113 44 152l-3 138h133z" />
    <glyph glyph-name="hyphen" unicode="-" horiz-adv-x="331" 
d="M287 204h-243v108h243v-108z" />
    <glyph glyph-name="period" unicode="." horiz-adv-x="281" 
d="M210 0h-139v143h139v-143z" />
    <glyph glyph-name="slash" unicode="/" horiz-adv-x="382" 
d="M251 755h118l-257 -910h-120z" />
    <glyph glyph-name="colon" unicode=":" horiz-adv-x="281" 
d="M210 337h-139v143h139v-143zM210 0h-139v143h139v-143z" />
    <glyph glyph-name="semicolon" unicode=";" horiz-adv-x="290" 
d="M219 337h-139v143h139v-143zM213 153l-4 -138c-18 -46 -49 -115 -72 -152h-98c17 48 35 113 44 152l-3 138h133z" />
    <glyph glyph-name="less" unicode="&#x3c;" horiz-adv-x="540" 
d="M49 301l430 185v-115l-270 -113l270 -112v-114l-430 185v84z" />
    <glyph glyph-name="equal" unicode="=" horiz-adv-x="584" 
d="M530 300h-476v102h476v-102zM530 114h-476v102h476v-102z" />
    <glyph glyph-name="greater" unicode="&#x3e;" horiz-adv-x="540" 
d="M491 217l-430 -185v115l270 113l-270 112v114l430 -185v-84z" />
    <glyph glyph-name="question" unicode="?" horiz-adv-x="378" 
d="M370 538c0 -52 -15 -92 -59 -126l-113 -86c-11 -8 -15 -17 -15 -28c0 -13 5 -22 11 -32l12 -19l-97 -55l-18 29c-18 29 -30 52 -30 88c0 40 16 66 49 91l101 76c26 19 36 33 36 57c0 41 -36 50 -90 50c-38 0 -85 -5 -119 -10l-5 101c52 8 109 11 141 11
c103 0 196 -38 196 -147zM216 0h-139v143h139v-143z" />
    <glyph glyph-name="at" unicode="@" horiz-adv-x="788" 
d="M747 263c0 -109 -29 -241 -161 -241c-77 0 -113 45 -125 104h-2c-38 -55 -84 -103 -156 -103c-86 0 -114 69 -114 141c0 143 96 312 238 312c63 0 118 -20 163 -46l-40 -164c-6 -23 -10 -61 -10 -82c0 -48 15 -78 55 -78c44 0 61 83 61 160c0 235 -90 315 -259 315
c-167 0 -263 -78 -263 -327c0 -251 87 -333 254 -333c50 0 110 10 160 36l10 -86c-50 -24 -118 -36 -170 -36c-236 0 -347 144 -347 426c0 265 121 404 356 404c237 0 350 -139 350 -402zM457 292l22 83c-21 10 -32 12 -57 12c-79 0 -131 -138 -131 -223c0 -31 8 -52 32 -52
c64 0 120 126 134 180z" />
    <glyph glyph-name="A" unicode="A" horiz-adv-x="587" 
d="M571 0h-129l-37 135h-225l-38 -135h-126l197 675h160zM276 492l-67 -250h166l-67 250c-6 22 -12 50 -15 69h-2c-3 -19 -9 -47 -15 -69z" />
    <glyph glyph-name="B" unicode="B" horiz-adv-x="549" 
d="M327 0h-261v675h263c124 0 170 -74 170 -175c0 -71 -26 -130 -71 -149v-2c56 -16 90 -90 90 -161c0 -114 -59 -188 -191 -188zM371 482c0 47 -13 86 -64 86h-117v-167h108c51 0 73 33 73 81zM390 204c0 53 -27 91 -93 91h-107v-188h119c66 0 81 41 81 97z" />
    <glyph glyph-name="C" unicode="C" horiz-adv-x="512" 
d="M486 116l5 -111c-48 -9 -111 -15 -160 -15c-205 0 -290 98 -290 348c0 244 80 347 285 347c48 0 104 -5 156 -14l-5 -110c-49 9 -100 14 -142 14c-110 0 -164 -35 -164 -237c0 -197 61 -236 160 -236c48 0 88 3 155 14z" />
    <glyph glyph-name="D" unicode="D" horiz-adv-x="604" 
d="M66 0v675h248c86 0 138 -24 173 -59c54 -54 76 -140 76 -277c0 -140 -21 -225 -76 -280c-33 -33 -89 -59 -175 -59h-246zM433 339c0 100 -11 166 -40 195c-30 30 -71 33 -122 33h-80v-459h80c51 0 93 4 122 33c32 31 40 95 40 198z" />
    <glyph glyph-name="E" unicode="E" horiz-adv-x="519" 
d="M487 0h-421v675h416v-108h-292v-165h210v-108h-210v-186h297v-108z" />
    <glyph glyph-name="F" unicode="F" horiz-adv-x="495" 
d="M190 0h-124v675h415v-108h-291v-165h209v-108h-209v-294z" />
    <glyph glyph-name="G" unicode="G" horiz-adv-x="591" 
d="M338 -10c-205 0 -297 98 -297 348c0 244 85 347 301 347c45 0 115 -5 167 -14l-5 -110c-51 9 -110 14 -155 14c-120 0 -178 -35 -178 -237c0 -197 71 -236 166 -236c26 0 59 3 84 10v235h123v-326c-61 -16 -142 -31 -206 -31z" />
    <glyph glyph-name="H" unicode="H" horiz-adv-x="628" 
d="M561 0h-124v294h-247v-294h-124v675h124v-273h247v273h124v-675z" />
    <glyph glyph-name="I" unicode="I" horiz-adv-x="257" 
d="M190 0h-124v675h124v-675z" />
    <glyph glyph-name="J" unicode="J" horiz-adv-x="351" 
d="M-9 0l5 113c36 -6 93 -9 108 -9c54 0 61 15 61 60v511h125v-536c0 -100 -59 -149 -167 -149c-30 0 -80 2 -132 10z" />
    <glyph glyph-name="K" unicode="K" horiz-adv-x="545" 
d="M190 396h2c14 21 27 39 39 54l169 225h148l-216 -284l227 -391h-149l-164 288l-56 -77v-211h-124v675h124v-279z" />
    <glyph glyph-name="L" unicode="L" horiz-adv-x="487" 
d="M473 0h-407v675h124v-567h283v-108z" />
    <glyph glyph-name="M" unicode="M" horiz-adv-x="817" 
d="M409 125h2c6 35 20 88 26 110l113 440h201v-675h-123l2 437c0 17 3 96 5 120h-2c-7 -32 -24 -102 -30 -120l-119 -437h-151l-118 437c-6 18 -23 89 -30 120h-2c2 -24 5 -103 5 -120l2 -437h-124v675h204l114 -440c6 -22 19 -75 25 -110z" />
    <glyph glyph-name="N" unicode="N" horiz-adv-x="636" 
d="M239 675l177 -418c14 -32 29 -73 41 -112h2c-3 40 -5 75 -5 112l-1 418h117v-675h-166l-184 418c-14 32 -29 69 -41 108h-2c3 -40 5 -71 5 -108l1 -418h-117v675h173z" />
    <glyph glyph-name="O" unicode="O" horiz-adv-x="620" 
d="M579 337c0 -237 -66 -347 -269 -347s-269 110 -269 347c0 239 66 348 269 348s269 -109 269 -348zM171 338c0 -192 36 -238 139 -238s139 46 139 238s-36 237 -139 237s-139 -45 -139 -237z" />
    <glyph glyph-name="P" unicode="P" horiz-adv-x="521" 
d="M190 0h-124v675h271c124 0 169 -97 169 -216c0 -122 -47 -215 -173 -215h-143v-244zM376 459c0 65 -18 108 -73 108h-113v-215h113c55 0 73 43 73 107z" />
    <glyph glyph-name="Q" unicode="Q" horiz-adv-x="620" 
d="M579 337c-1 -212 -53 -322 -209 -343c76 -20 107 -68 194 -68c22 0 44 3 67 7l4 -106c-22 -5 -50 -9 -71 -9c-130 0 -171 77 -266 77c-43 0 -107 -18 -152 -40l-5 110c26 13 58 24 93 31c-144 26 -193 136 -193 341c0 239 66 348 269 348s269 -109 269 -348zM171 338
c0 -192 36 -238 139 -238s139 46 139 238s-36 237 -139 237s-139 -45 -139 -237z" />
    <glyph glyph-name="R" unicode="R" horiz-adv-x="532" 
d="M190 0h-124v675h272c124 0 169 -93 169 -207c0 -99 -35 -178 -122 -201l135 -267h-135l-129 261h-66v-261zM377 468c0 60 -18 100 -73 100h-114v-200h114c55 0 73 41 73 100z" />
    <glyph glyph-name="S" unicode="S" horiz-adv-x="479" 
d="M453 174c0 -132 -112 -184 -236 -184c-49 0 -143 5 -177 10l5 112c54 -7 127 -9 165 -9c54 0 113 7 113 68c0 36 -19 52 -44 69l-148 104c-57 40 -103 90 -103 170c0 131 96 171 225 171c46 0 111 -3 158 -10l-5 -110c-42 5 -113 9 -150 9c-56 0 -100 -4 -100 -57
c0 -38 20 -51 55 -75l144 -100c52 -36 98 -77 98 -168z" />
    <glyph glyph-name="T" unicode="T" horiz-adv-x="471" 
d="M464 567h-167v-567h-123v567h-167v108h457v-108z" />
    <glyph glyph-name="U" unicode="U" horiz-adv-x="617" 
d="M308 -10c-96 0 -247 46 -247 213v472h122v-479c0 -69 67 -99 125 -99c59 0 127 30 127 99v479h121v-472c0 -167 -152 -213 -248 -213z" />
    <glyph glyph-name="V" unicode="V" horiz-adv-x="612" 
d="M594 675l-212 -675h-149l-215 675h138l135 -453c7 -22 15 -67 18 -100h2c4 33 12 78 18 100l132 453h133z" />
    <glyph glyph-name="W" unicode="W" horiz-adv-x="915" 
d="M538 675l99 -436c5 -22 12 -85 15 -116h2c2 31 8 94 13 116l94 436h126l-158 -675h-155l-103 446c-5 23 -11 64 -14 94h-2c-3 -30 -10 -72 -15 -95l-99 -445h-155l-158 675h131l94 -433c5 -25 12 -86 14 -116h2c2 30 8 91 14 116l98 433h157z" />
    <glyph glyph-name="X" unicode="X" horiz-adv-x="573" 
d="M286 234l-137 -234h-138l201 343l-198 332h145l129 -225h2l132 225h138l-199 -328l201 -347h-141l-133 234h-2z" />
    <glyph glyph-name="Y" unicode="Y" horiz-adv-x="546" 
d="M335 264v-264h-124v264l-205 411h138l109 -233c7 -14 15 -33 21 -48h2c6 15 14 34 21 48l109 233h134z" />
    <glyph glyph-name="Z" unicode="Z" horiz-adv-x="495" 
d="M23 0v98l293 468l-1 2c-24 -1 -38 -1 -53 -1h-228v108h438v-98l-292 -468l1 -2c24 1 39 1 54 1h237v-108h-449z" />
    <glyph glyph-name="bracketleft" unicode="[" horiz-adv-x="307" 
d="M283 -169h-212v919h212v-108h-92v-703h92v-108z" />
    <glyph glyph-name="backslash" unicode="\" horiz-adv-x="382" 
d="M13 755h118l259 -910h-120z" />
    <glyph glyph-name="bracketright" unicode="]" horiz-adv-x="307" 
d="M236 -169h-212v108h92v703h-92v108h212v-919z" />
    <glyph glyph-name="asciicircum" unicode="^" horiz-adv-x="549" 
d="M225 681h99l171 -421h-124l-75 202c-8 21 -14 40 -21 67h-3c-7 -27 -13 -46 -21 -68l-75 -201h-122z" />
    <glyph glyph-name="grave" unicode="`" 
d="M270 541l-107 154h126l74 -154h-93z" />
    <glyph glyph-name="a" unicode="a" horiz-adv-x="438" 
d="M391 0h-89l-7 29h-1c-31 -23 -82 -38 -125 -38c-82 0 -150 46 -150 146c0 44 13 80 40 107c45 45 136 49 215 49v52c0 36 -28 42 -70 42c-35 0 -90 -6 -145 -18l-5 102c55 14 122 19 160 19c95 0 177 -29 177 -127v-363zM274 116v91h-12c-39 0 -90 -4 -108 -22
c-10 -10 -15 -21 -15 -39c0 -40 23 -55 58 -55c25 0 57 11 77 25z" />
    <glyph glyph-name="b" unicode="b" horiz-adv-x="497" 
d="M466 244c0 -128 -34 -253 -191 -253c-40 0 -83 11 -123 31l-5 -22h-91v705h119v-243h2c32 18 69 28 106 28c136 0 183 -94 183 -246zM344 245c0 105 -29 141 -79 141c-42 0 -68 -13 -91 -30v-232c21 -18 54 -31 92 -31c75 0 78 81 78 152z" />
    <glyph glyph-name="c" unicode="c" horiz-adv-x="401" 
d="M153 242c0 -125 31 -149 113 -149c33 0 72 4 110 10l4 -101c-41 -8 -89 -12 -126 -12c-144 0 -223 65 -223 252c0 183 79 248 217 248c37 0 86 -4 127 -13l-5 -101c-38 6 -74 11 -107 11c-77 0 -110 -21 -110 -145z" />
    <glyph glyph-name="d" unicode="d" horiz-adv-x="497" 
d="M441 0h-89l-8 32h-1c-31 -23 -83 -42 -134 -42c-134 0 -178 98 -178 255c0 168 63 245 201 245c33 0 57 -4 91 -13v228h118v-705zM323 125v249c-26 10 -49 15 -78 15c-59 0 -92 -23 -92 -148c0 -119 29 -147 78 -147c40 0 71 14 92 31z" />
    <glyph glyph-name="e" unicode="e" horiz-adv-x="449" 
d="M257 -10c-162 0 -226 77 -226 247c0 169 56 253 209 253c139 0 178 -87 178 -209v-66h-264c0 -92 28 -122 114 -122c38 0 93 8 128 16l5 -101c-43 -13 -107 -18 -144 -18zM306 301c-1 49 -11 94 -68 94c-55 0 -76 -31 -80 -94h148z" />
    <glyph glyph-name="f" unicode="f" horiz-adv-x="347" 
d="M361 702l-5 -100c-36 7 -78 10 -104 10c-47 0 -51 -14 -51 -60v-72h134v-104h-134v-376h-118v376h-72v90l72 10v98c0 92 47 141 152 141c42 0 88 -5 126 -13z" />
    <glyph glyph-name="g" unicode="g" horiz-adv-x="499" 
d="M497 491l4 -93c-18 -6 -76 -13 -98 -13c10 -26 16 -57 16 -79c0 -130 -74 -183 -184 -183c-11 0 -26 0 -39 1l-24 -33c-5 -6 -7 -10 -7 -14c0 -7 4 -10 15 -10h123c116 0 156 -56 156 -125c0 -44 -14 -76 -40 -101c-46 -45 -118 -56 -192 -56c-56 0 -133 8 -171 46
c-18 18 -30 39 -30 70c0 37 27 73 53 90v1c-16 11 -30 29 -30 57c0 31 17 53 40 82l17 21c-38 29 -69 78 -69 154c0 137 81 184 196 184c42 0 80 -14 127 -14c24 0 95 6 137 15zM305 309c0 67 -25 82 -73 82c-53 0 -77 -15 -77 -82c0 -69 24 -87 77 -87c48 0 73 18 73 87z
M346 -63c0 17 -12 32 -44 32h-128c-16 -11 -32 -25 -32 -48c0 -10 2 -17 8 -23c16 -16 63 -16 82 -16c32 0 80 2 102 24c8 8 12 17 12 31z" />
    <glyph glyph-name="h" unicode="h" horiz-adv-x="491" 
d="M295 490c65 0 150 -28 150 -125v-365h-118v353c0 28 -19 37 -45 37c-45 0 -86 -19 -108 -35v-355h-118v705h118v-244h2c31 16 75 29 119 29z" />
    <glyph glyph-name="i" unicode="i" horiz-adv-x="228" 
d="M177 565h-126v128h126v-128zM173 0h-118v480h118v-480z" />
    <glyph glyph-name="j" unicode="j" horiz-adv-x="230" 
d="M178 565h-126v128h126v-128zM-88 -207l5 106c31 -5 63 -7 82 -7c50 0 57 18 57 60v528h118v-546c0 -98 -45 -149 -160 -149c-30 0 -66 2 -102 8z" />
    <glyph glyph-name="k" unicode="k" horiz-adv-x="462" 
d="M450 480l-148 -183l172 -297h-132l-118 206l-49 -62v-144h-118v705h118v-406h2c12 18 27 38 40 55l94 126h139z" />
    <glyph glyph-name="l" unicode="l" horiz-adv-x="232" 
d="M175 0h-118v705h118v-705z" />
    <glyph glyph-name="m" unicode="m" horiz-adv-x="711" 
d="M665 365v-365h-118v353c0 28 -15 37 -35 37c-40 0 -76 -19 -95 -35v-355h-118v353c0 28 -15 37 -35 37c-40 0 -76 -19 -95 -35v-355h-118v480h89l8 -32h1c34 25 81 42 128 42c39 0 86 -12 114 -46h1c34 27 84 46 133 46c61 0 140 -28 140 -125z" />
    <glyph glyph-name="n" unicode="n" horiz-adv-x="486" 
d="M440 365v-365h-118v353c0 28 -19 37 -45 37c-45 0 -86 -19 -108 -35v-355h-118v480h89l8 -32h1c38 25 89 42 141 42c65 0 150 -28 150 -125z" />
    <glyph glyph-name="o" unicode="o" horiz-adv-x="494" 
d="M463 240c0 -170 -66 -250 -216 -250c-149 0 -216 81 -216 251s66 249 216 249c149 0 216 -79 216 -250zM341 240c0 122 -32 147 -94 147s-94 -25 -94 -146c0 -122 32 -147 94 -147c63 0 94 25 94 146z" />
    <glyph glyph-name="p" unicode="p" horiz-adv-x="492" 
d="M51 480h89l8 -32h1c31 23 83 42 134 42c134 0 178 -98 178 -248c0 -175 -63 -252 -201 -252c-30 0 -59 4 -91 12v-207h-118v685zM169 355v-250c26 -10 49 -14 78 -14c59 0 92 20 92 145c0 119 -29 150 -78 150c-40 0 -71 -14 -92 -31z" />
    <glyph glyph-name="q" unicode="q" horiz-adv-x="492" 
d="M31 236c0 128 34 253 191 253c40 0 83 -11 123 -31l5 22h91v-685h-119v223h-2c-32 -18 -69 -28 -106 -28c-136 0 -183 94 -183 246zM153 235c0 -105 29 -141 79 -141c42 0 68 13 91 30v232c-21 18 -54 31 -92 31c-75 0 -78 -81 -78 -152z" />
    <glyph glyph-name="r" unicode="r" horiz-adv-x="320" 
d="M314 485l-5 -110c-13 3 -28 4 -42 4c-37 0 -74 -12 -98 -49v-330h-118v480h96l8 -44h2c27 40 66 53 109 53c15 0 34 -1 48 -4z" />
    <glyph glyph-name="s" unicode="s" horiz-adv-x="395" 
d="M221 388c-34 0 -71 -3 -71 -33c0 -17 7 -27 22 -35l110 -59c52 -28 88 -52 88 -126c0 -100 -77 -145 -193 -145c-50 0 -103 3 -134 9l5 101c40 -5 104 -7 123 -7c47 0 79 4 79 38c0 16 -9 26 -24 34l-105 56c-36 19 -90 57 -90 138c0 95 79 131 183 131
c38 0 88 -4 123 -10l-5 -100c-48 6 -87 8 -111 8z" />
    <glyph glyph-name="t" unicode="t" horiz-adv-x="348" 
d="M326 376h-125v-245c0 -27 10 -35 41 -35c16 0 56 3 82 8l4 -100c-32 -8 -83 -13 -116 -13c-93 0 -129 49 -129 111v274h-72v90l80 11l4 130h106v-127h125v-104z" />
    <glyph glyph-name="u" unicode="u" horiz-adv-x="486" 
d="M46 115v365h118v-353c0 -28 19 -37 45 -37c45 0 86 19 108 35v355h118v-480h-89l-8 32h-1c-38 -25 -89 -42 -141 -42c-65 0 -150 28 -150 125z" />
    <glyph glyph-name="v" unicode="v" horiz-adv-x="458" 
d="M454 480l-156 -480h-136l-158 480h128l82 -278c6 -22 13 -56 18 -87h2c5 31 12 65 18 87l79 278h123z" />
    <glyph glyph-name="w" unicode="w" horiz-adv-x="688" 
d="M416 480l62 -275c5 -22 10 -63 13 -94h2c2 31 7 72 12 94l55 275h112l-112 -480h-139l-64 281c-5 23 -9 48 -12 78h-2c-3 -30 -7 -55 -12 -78l-63 -281h-139l-113 480h119l56 -275c5 -22 10 -64 12 -94h2c3 30 8 72 13 94l61 275h137z" />
    <glyph glyph-name="x" unicode="x" horiz-adv-x="456" 
d="M309 0l-57 100c-7 12 -18 31 -25 45h-2c-8 -16 -16 -30 -24 -44l-60 -101h-132l149 243l-149 237h140l55 -96c8 -14 16 -28 24 -44h2c8 15 16 30 25 44l57 96h135l-150 -233l150 -247h-138z" />
    <glyph glyph-name="y" unicode="y" horiz-adv-x="458" 
d="M454 480l-164 -522c-40 -125 -92 -168 -187 -168c-27 0 -70 3 -98 10l5 104c26 -5 57 -7 76 -7c26 0 45 4 59 18s21 30 27 51l-168 514h128l82 -278c6 -22 13 -56 18 -87h2c5 31 12 65 18 87l79 278h123z" />
    <glyph glyph-name="z" unicode="z" horiz-adv-x="400" 
d="M26 0v86l198 289l-1 2c-18 -1 -25 -1 -47 -1h-139v104h337v-86l-197 -289l1 -2c17 1 25 1 47 1h149v-104h-348z" />
    <glyph glyph-name="braceleft" unicode="{" horiz-adv-x="327" 
d="M304 -169h-111c-81 0 -96 29 -93 95l9 240c3 75 -54 95 -112 114v40c58 20 115 39 112 114l-9 221c-3 66 12 95 93 95h111v-107h-69c-16 0 -17 -5 -16 -21l10 -201c2 -46 0 -88 -44 -121v-1c44 -33 46 -74 44 -120l-10 -219c-1 -14 0 -21 16 -21h69v-108z" />
    <glyph glyph-name="bar" unicode="|" horiz-adv-x="229" 
d="M153 -155h-77v910h77v-910z" />
    <glyph glyph-name="braceright" unicode="}" horiz-adv-x="327" 
d="M134 -169h-111v108h69c16 0 17 7 16 21l-10 219c-2 46 0 87 44 120v1c-44 33 -46 75 -44 121l10 201c1 16 0 21 -16 21h-69v107h111c81 0 96 -29 93 -95l-9 -221c-3 -75 54 -94 112 -114v-40c-58 -19 -115 -39 -112 -114l9 -240c3 -66 -12 -95 -93 -95z" />
    <glyph glyph-name="asciitilde" unicode="~" horiz-adv-x="599" 
d="M403 278c40 0 88 16 154 51l5 -85c-54 -33 -98 -49 -159 -49c-100 0 -140 45 -207 45c-40 0 -88 -16 -154 -51l-5 85c60 34 98 49 159 49c81 0 141 -45 207 -45z" />
    <glyph glyph-name="Euro" unicode="&#x20ac;" 
d="M503 116l5 -111c-48 -9 -111 -15 -160 -15c-173 0 -260 69 -284 241h-74v80h68v52h-68v81h74c22 168 106 241 279 241c48 0 104 -5 156 -14l-5 -110c-49 9 -100 14 -142 14c-87 0 -139 -22 -157 -131h253l-39 -81h-221v-52h205l-39 -80h-158c20 -105 74 -129 152 -129
c48 0 88 3 155 14z" />
    <glyph glyph-name="quotesinglbase" unicode="&#x201a;" horiz-adv-x="264" 
d="M213 153l-4 -138c-18 -46 -49 -115 -72 -152h-98c17 48 35 113 44 152l-3 138h133z" />
    <glyph glyph-name="florin" unicode="&#x192;" 
d="M77 300v97h87l17 138c12 93 79 150 186 150c55 0 89 -8 129 -21l-19 -107c-48 17 -78 18 -104 18c-48 0 -64 -32 -69 -73l-13 -105h138v-97h-150l-54 -439h-127l54 439h-75z" />
    <glyph glyph-name="quotedblbase" unicode="&#x201e;" horiz-adv-x="469" 
d="M418 153l-4 -138c-18 -46 -49 -115 -72 -152h-98c17 48 35 113 44 152l-3 138h133zM213 153l-4 -138c-18 -46 -49 -115 -72 -152h-98c17 48 35 113 44 152l-3 138h133z" />
    <glyph glyph-name="dagger" unicode="&#x2020;" horiz-adv-x="437" 
d="M404 368h-127v-489h-117v489h-127v102h127v273h117v-273h127v-102z" />
    <glyph glyph-name="daggerdbl" unicode="&#x2021;" horiz-adv-x="438" 
d="M405 166h-128v-287h-117v287h-126v102h126v100h-127v102h127v273h117v-273h127v-102h-127v-100h128v-102z" />
    <glyph glyph-name="circumflex" unicode="&#x2c6;" 
d="M211 695h104l100 -154h-102l-52 85l-51 -85h-99z" />
    <glyph glyph-name="perthousand" unicode="&#x2030;" horiz-adv-x="1106" 
d="M63 495c0 106 43 161 141 161s141 -55 141 -161c0 -105 -43 -161 -141 -161s-141 56 -141 161zM649 649l-423 -649h-99l422 649h100zM154 495c0 -68 15 -89 51 -89c34 0 50 21 50 89s-16 88 -50 88c-36 0 -51 -20 -51 -88zM761 150c0 106 43 161 141 161
s141 -55 141 -161c0 -105 -43 -161 -141 -161s-141 56 -141 161zM429 150c0 106 43 161 141 161s141 -55 141 -161c0 -105 -43 -161 -141 -161s-141 56 -141 161zM852 150c0 -68 15 -89 51 -89c34 0 50 21 50 89s-16 89 -50 89c-36 0 -51 -21 -51 -89zM520 150
c0 -68 15 -89 51 -89c34 0 50 21 50 89s-16 89 -50 89c-36 0 -51 -21 -51 -89z" />
    <glyph glyph-name="Scaron" unicode="&#x160;" horiz-adv-x="479" 
d="M290 736h-105l-99 154h102l52 -85l51 85h99zM453 174c0 -132 -112 -184 -236 -184c-49 0 -143 5 -177 10l5 112c54 -7 127 -9 165 -9c54 0 113 7 113 68c0 36 -19 52 -44 69l-148 104c-57 40 -103 90 -103 170c0 131 96 171 225 171c46 0 111 -3 158 -10l-5 -110
c-42 5 -113 9 -150 9c-56 0 -100 -4 -100 -57c0 -38 20 -51 55 -75l144 -100c52 -36 98 -77 98 -168z" />
    <glyph glyph-name="guilsinglleft" unicode="&#x2039;" horiz-adv-x="360" 
d="M187 455h140l-164 -197l165 -198h-140l-160 191v13z" />
    <glyph glyph-name="OE" unicode="&#x152;" horiz-adv-x="902" 
d="M870 0h-421v23h-2c-32 -20 -81 -33 -137 -33c-203 0 -269 110 -269 347c0 239 66 348 269 348c56 0 105 -13 137 -33h2v23h416v-108h-292v-165h210v-108h-210v-186h297v-108zM171 338c0 -192 36 -238 139 -238s139 46 139 238s-36 237 -139 237s-139 -45 -139 -237z" />
    <glyph glyph-name="Zcaron" unicode="&#x17d;" horiz-adv-x="495" 
d="M317 736h-105l-99 154h102l52 -85l51 85h99zM23 0v98l293 468l-1 2c-24 -1 -38 -1 -53 -1h-228v108h438v-98l-292 -468l1 -2c24 1 39 1 54 1h237v-108h-449z" />
    <glyph glyph-name="quoteleft" unicode="&#x2018;" horiz-adv-x="264" 
d="M51 385l4 138c18 46 49 115 72 152h98c-17 -48 -35 -113 -44 -152l3 -138h-133z" />
    <glyph glyph-name="quoteright" unicode="&#x2019;" horiz-adv-x="264" 
d="M213 675l-4 -138c-18 -46 -49 -115 -72 -152h-98c17 48 35 113 44 152l-3 138h133z" />
    <glyph glyph-name="quotedblleft" unicode="&#x201c;" horiz-adv-x="469" 
d="M256 385l4 138c18 46 49 115 72 152h98c-17 -48 -35 -113 -44 -152l3 -138h-133zM51 385l4 138c18 46 49 115 72 152h98c-17 -48 -35 -113 -44 -152l3 -138h-133z" />
    <glyph glyph-name="quotedblright" unicode="&#x201d;" horiz-adv-x="469" 
d="M418 675l-4 -138c-18 -46 -49 -115 -72 -152h-98c17 48 35 113 44 152l-3 138h133zM213 675l-4 -138c-18 -46 -49 -115 -72 -152h-98c17 48 35 113 44 152l-3 138h133z" />
    <glyph glyph-name="bullet" unicode="&#x2022;" horiz-adv-x="330" 
d="M275 348c0 -61 -50 -110 -110 -110c-61 0 -110 49 -110 110c0 60 49 110 110 110c60 0 110 -50 110 -110z" />
    <glyph glyph-name="endash" unicode="&#x2013;" horiz-adv-x="493" 
d="M457 218h-419v81h419v-81z" />
    <glyph glyph-name="emdash" unicode="&#x2014;" horiz-adv-x="688" 
d="M652 218h-613v81h613v-81z" />
    <glyph glyph-name="tilde" unicode="&#x2dc;" 
d="M421 676l4 -90c-26 -16 -64 -27 -91 -27c-52 0 -97 31 -146 31c-26 0 -57 -14 -81 -28l-6 88c27 17 66 28 93 28c50 0 97 -31 143 -31c27 0 59 14 84 29z" />
    <glyph glyph-name="trademark" unicode="&#x2122;" horiz-adv-x="570" 
d="M525 420h-57l1 115l2 54h-2c-3 -21 -4 -30 -11 -54l-34 -115h-62l-33 117c-6 21 -9 38 -11 56h-2l1 -54l1 -119h-56v255h79l41 -148c6 -21 7 -30 10 -57h1c4 27 5 36 11 57l41 148h80v-255zM227 622h-65v-202h-58v203h-65v52h188v-53z" />
    <glyph glyph-name="scaron" unicode="&#x161;" horiz-adv-x="395" 
d="M252 541h-105l-99 154h102l52 -85l51 85h99zM221 388c-34 0 -71 -3 -71 -33c0 -17 7 -27 22 -35l110 -59c52 -28 88 -52 88 -126c0 -100 -77 -145 -193 -145c-50 0 -103 3 -134 9l5 101c40 -5 104 -7 123 -7c47 0 79 4 79 38c0 16 -9 26 -24 34l-105 56
c-36 19 -90 57 -90 138c0 95 79 131 183 131c38 0 88 -4 123 -10l-5 -100c-48 6 -87 8 -111 8z" />
    <glyph glyph-name="guilsinglright" unicode="&#x203a;" horiz-adv-x="360" 
d="M33 455h140l159 -191v-13l-160 -191h-140l165 198z" />
    <glyph glyph-name="oe" unicode="&#x153;" horiz-adv-x="759" 
d="M397 433h2c30 38 77 58 151 58c139 0 178 -87 178 -209v-66h-264c0 -92 28 -122 114 -122c38 0 93 8 128 16l5 -101c-43 -13 -107 -18 -144 -18c-81 0 -132 19 -165 59h-2c-31 -41 -79 -60 -153 -60c-149 0 -216 81 -216 251s66 249 216 249c72 0 119 -19 150 -57z
M616 302c-1 49 -11 94 -68 94c-55 0 -76 -31 -80 -94h148zM341 240c0 122 -32 147 -94 147s-94 -25 -94 -146c0 -122 32 -147 94 -147c63 0 94 25 94 146z" />
    <glyph glyph-name="zcaron" unicode="&#x17e;" horiz-adv-x="400" 
d="M263 541h-105l-99 154h102l52 -85l51 85h99zM26 0v86l198 289l-1 2c-18 -1 -25 -1 -47 -1h-139v104h337v-86l-197 -289l1 -2c17 1 25 1 47 1h149v-104h-348z" />
    <glyph glyph-name="Ydieresis" unicode="&#x178;" horiz-adv-x="546" 
d="M426 759h-110v108h110v-108zM236 759h-110v108h110v-108zM335 264v-264h-124v264l-205 411h138l109 -233c7 -14 15 -33 21 -48h2c6 15 14 34 21 48l109 233h134z" />
    <glyph glyph-name="exclamdown" unicode="&#xa1;" horiz-adv-x="341" 
d="M101 480h139v-143h-139v143zM103 -195l11 465h113l11 -465h-135z" />
    <glyph glyph-name="cent" unicode="&#xa2;" 
d="M69 339c0 159 50 240 184 256v130h84v-128c31 -1 66 -5 97 -10l-4 -105c-41 6 -85 10 -115 10c-87 0 -119 -28 -119 -153c0 -126 34 -154 119 -154c32 0 76 4 122 10l5 -106c-33 -6 -72 -9 -105 -10v-129h-84v131c-134 16 -184 98 -184 258z" />
    <glyph glyph-name="sterling" unicode="&#xa3;" 
d="M53 300v97h77v95c0 143 72 193 214 193c34 0 94 -5 143 -14l-5 -110c-47 8 -99 14 -135 14c-54 0 -93 -14 -93 -84v-94h165v-97h-165v-130c0 -17 -4 -50 -13 -64v-1c14 2 34 3 51 3h218v-108h-478v108h87c10 12 11 34 11 49v143h-77z" />
    <glyph glyph-name="currency" unicode="&#xa4;" horiz-adv-x="738" 
d="M638 337c0 -59 -20 -115 -52 -159l98 -98l-59 -59l-97 97c-45 -31 -100 -51 -159 -51s-114 20 -159 51l-97 -97l-59 59l98 98c-32 44 -52 100 -52 159s20 115 52 159l-98 98l59 59l97 -97c45 31 100 51 159 51s114 -20 159 -51l97 97l59 -59l-98 -98
c32 -44 52 -100 52 -159zM551 337c0 102 -80 183 -182 183s-182 -81 -182 -183s80 -183 182 -183s182 81 182 183z" />
    <glyph glyph-name="yen" unicode="&#xa5;" 
d="M519 311v-80h-194v-231h-124v231h-195v80h171l-26 52h-145v81h105l-115 231h138l109 -233c7 -14 15 -33 21 -48h2c6 15 14 34 21 48l109 233h134l-115 -231h104v-81h-145l-26 -52h171z" />
    <glyph glyph-name="brokenbar" unicode="&#xa6;" horiz-adv-x="229" 
d="M153 402h-77v353h77v-353zM76 294h77v-449h-77v449z" />
    <glyph glyph-name="section" unicode="&#xa7;" horiz-adv-x="435" 
d="M387 21c0 -121 -104 -154 -210 -154c-41 0 -103 6 -142 14l6 102c55 -8 106 -14 144 -14c41 0 83 12 83 50c0 27 -16 44 -36 58l-107 76c-41 29 -97 74 -97 155c0 59 26 95 68 117c-26 26 -48 62 -48 117c0 106 80 144 192 144c40 0 99 -4 138 -11l-5 -99
c-42 6 -89 10 -133 10c-47 0 -73 -10 -73 -44c0 -28 18 -44 32 -54l111 -79c60 -42 97 -75 97 -154c0 -56 -28 -94 -69 -118c30 -30 49 -64 49 -116zM259 306l-69 48c-29 -9 -43 -25 -43 -46c0 -27 17 -43 31 -53l67 -48c27 11 43 29 43 54c0 20 -11 32 -29 45z" />
    <glyph glyph-name="dieresis" unicode="&#xa8;" 
d="M413 564h-110v108h110v-108zM223 564h-110v108h110v-108z" />
    <glyph glyph-name="copyright" unicode="&#xa9;" horiz-adv-x="770" 
d="M41 338c0 251 136 347 344 347s344 -96 344 -347c0 -252 -138 -348 -346 -348s-342 96 -342 348zM135 338c0 -205 108 -264 250 -264s250 59 250 264c0 204 -108 263 -250 263s-250 -59 -250 -263zM230 339c0 139 57 191 177 191c23 0 66 -4 94 -10l-6 -78
c-26 5 -69 9 -85 9c-60 0 -86 -17 -86 -112s26 -112 86 -112c16 0 61 4 87 9l6 -78c-28 -6 -73 -10 -96 -10c-120 0 -177 52 -177 191z" />
    <glyph glyph-name="ordfeminine" unicode="&#xaa;" horiz-adv-x="328" 
d="M301 313h-81l-4 17h-2c-23 -15 -56 -23 -84 -23c-72 0 -120 44 -120 109c0 115 97 119 190 121v20c0 24 -4 36 -44 36c-20 0 -66 -4 -113 -16l-5 87c55 13 86 16 126 16c74 0 137 -21 137 -98v-269zM200 409v58c-6 1 -10 1 -14 1c-32 0 -73 -6 -73 -43
c0 -22 10 -33 34 -33c23 0 39 8 53 17z" />
    <glyph glyph-name="guillemotleft" unicode="&#xab;" horiz-adv-x="567" 
d="M400 455h134l-164 -197l165 -198h-134l-160 191v13zM187 455h133l-164 -197l165 -198h-133l-160 191v13z" />
    <glyph glyph-name="logicalnot" unicode="&#xac;" horiz-adv-x="485" 
d="M443 500v-296h-117v190h-300v106h417z" />
    <glyph glyph-name="registered" unicode="&#xae;" horiz-adv-x="770" 
d="M41 338c0 251 136 347 344 347s344 -96 344 -347c0 -252 -138 -348 -346 -348s-342 96 -342 348zM135 338c0 -205 108 -264 250 -264s250 59 250 264c0 204 -108 263 -250 263s-250 -59 -250 -263zM347 151h-91v369h165c82 0 111 -50 111 -116c0 -53 -15 -93 -65 -108
l77 -145h-99l-68 137h-30v-137zM438 404c0 25 -8 40 -29 40h-62v-79h62c21 0 29 14 29 39z" />
    <glyph glyph-name="macron" unicode="&#xaf;" 
d="M418 573h-311v90h311v-90z" />
    <glyph glyph-name="degree" unicode="&#xb0;" horiz-adv-x="387" 
d="M332 548c0 -77 -61 -138 -138 -138c-76 0 -139 61 -139 138c0 75 63 137 139 137c77 0 138 -62 138 -137zM251 548c0 30 -26 57 -57 57c-33 0 -58 -27 -58 -57c0 -32 25 -57 58 -57c31 0 57 25 57 57z" />
    <glyph glyph-name="plusminus" unicode="&#xb1;" horiz-adv-x="584" 
d="M530 252h-180v-126h-117v126h-179v102h179v132h117v-132h180v-102zM530 0h-476v97h476v-97z" />
    <glyph glyph-name="uni00B2" unicode="&#xb2;" horiz-adv-x="292" 
d="M132 346v-2c18 3 31 3 47 3h91v-77h-246l-3 77l107 131c19 23 42 50 42 81c0 35 -23 45 -55 45c-25 0 -60 -5 -80 -8l-4 78c27 5 78 7 103 7c79 0 132 -32 132 -111c0 -56 -24 -99 -55 -135l-42 -49c-12 -13 -23 -26 -37 -40z" />
    <glyph glyph-name="uni00B3" unicode="&#xb3;" horiz-adv-x="271" 
d="M254 394c0 -103 -73 -130 -157 -130c-30 0 -69 2 -93 6l4 77c26 -4 62 -6 86 -6c37 0 64 11 64 53c0 37 -24 47 -51 47h-52v77h49c38 0 47 21 47 42c0 35 -25 44 -57 44c-26 0 -62 -5 -83 -8l-3 78c27 5 79 7 104 7c80 0 135 -32 135 -108c0 -39 -14 -67 -42 -90v-1
c24 -13 49 -46 49 -88z" />
    <glyph glyph-name="acute" unicode="&#xb4;" 
d="M363 695l-108 -154h-92l74 154h126z" />
    <glyph glyph-name="mu" unicode="&#xb5;" horiz-adv-x="589" 
d="M91 -155v655h118v-377c0 -25 23 -33 53 -33c50 0 94 19 118 35v375h118v-500h-89l-8 32h-1c-42 -27 -95 -42 -151 -42c-13 0 -27 1 -40 3v-148h-118z" />
    <glyph glyph-name="mu" unicode="&#x3bc;" horiz-adv-x="589" 
d="M91 -155v655h118v-377c0 -25 23 -33 53 -33c50 0 94 19 118 35v375h118v-500h-89l-8 32h-1c-42 -27 -95 -42 -151 -42c-13 0 -27 1 -40 3v-148h-118z" />
    <glyph glyph-name="paragraph" unicode="&#xb6;" horiz-adv-x="522" 
d="M456 620v-775h-116v679h-70v-333h-45c-145 0 -192 78 -192 213c0 133 49 216 193 216h230z" />
    <glyph glyph-name="cedilla" unicode="&#xb8;" 
d="M230 0h82c-7 -11 -13 -23 -13 -31c0 -6 2 -8 6 -12c19 -19 52 -36 52 -78c0 -50 -42 -82 -110 -82c-16 0 -57 3 -79 9l4 70c22 -7 42 -10 62 -10c18 0 36 3 36 20c0 19 -29 29 -43 43c-9 9 -13 17 -13 29s7 28 16 42z" />
    <glyph glyph-name="uni00B9" unicode="&#xb9;" horiz-adv-x="202" 
d="M158 270h-96v331h-55v75l151 4v-410z" />
    <glyph glyph-name="ordmasculine" unicode="&#xba;" horiz-adv-x="368" 
d="M351 494c0 -125 -51 -187 -167 -187c-115 0 -167 62 -167 187c0 126 52 186 167 186s167 -60 167 -186zM247 494c0 86 -23 97 -63 97s-63 -11 -63 -97c0 -85 23 -98 63 -98c41 0 63 13 63 98z" />
    <glyph glyph-name="guillemotright" unicode="&#xbb;" horiz-adv-x="567" 
d="M247 455h133l159 -191v-13l-160 -191h-133l165 198zM33 455h134l159 -191v-13l-160 -191h-134l165 198z" />
    <glyph glyph-name="uni00BC" unicode="&#xbc;" horiz-adv-x="699" 
d="M158 270h-96v331h-55v75l151 4v-410zM578 678l-442 -678h-105l441 678h106zM707 98h-60v-98h-97v98h-157l-3 72l106 241h102l-83 -184c-6 -14 -17 -37 -27 -54v-1c11 1 17 1 26 1h39l14 109h80v-107h60v-77z" />
    <glyph glyph-name="uni00BD" unicode="&#xbd;" horiz-adv-x="669" 
d="M158 270h-96v331h-55v75l151 4v-410zM578 678l-442 -678h-105l441 678h106zM509 76v-2c18 3 31 3 47 3h91v-77h-246l-3 77l107 131c19 23 42 50 42 81c0 35 -23 45 -55 45c-25 0 -60 -5 -80 -8l-4 78c27 5 78 7 103 7c79 0 132 -32 132 -111c0 -56 -24 -99 -55 -135
l-42 -49c-12 -13 -23 -26 -37 -40z" />
    <glyph glyph-name="uni00BE" unicode="&#xbe;" horiz-adv-x="768" 
d="M254 394c0 -103 -73 -130 -157 -130c-30 0 -69 2 -93 6l4 77c26 -4 62 -6 86 -6c37 0 64 11 64 53c0 37 -24 47 -51 47h-52v77h49c38 0 47 21 47 42c0 35 -25 44 -57 44c-26 0 -62 -5 -83 -8l-3 78c27 5 79 7 104 7c80 0 135 -32 135 -108c0 -39 -14 -67 -42 -90v-1
c24 -13 49 -46 49 -88zM647 678l-442 -678h-105l441 678h106zM776 98h-60v-98h-97v98h-157l-3 72l106 241h102l-83 -184c-6 -14 -17 -37 -27 -54v-1c11 1 17 1 26 1h39l14 109h80v-107h60v-77z" />
    <glyph glyph-name="questiondown" unicode="&#xbf;" horiz-adv-x="378" 
d="M162 480h139v-143h-139v143zM8 -58c0 52 15 92 59 126l113 86c11 8 15 17 15 28c0 13 -5 22 -11 32l-12 19l97 55l18 -29c18 -29 30 -52 30 -88c0 -40 -16 -66 -49 -91l-101 -76c-26 -19 -36 -33 -36 -57c0 -41 36 -50 90 -50c38 0 85 5 119 10l5 -101
c-52 -8 -109 -11 -141 -11c-103 0 -196 38 -196 147z" />
    <glyph glyph-name="Agrave" unicode="&#xc0;" horiz-adv-x="587" 
d="M244 736l-107 154h126l74 -154h-93zM571 0h-129l-37 135h-225l-38 -135h-126l197 675h160zM276 492l-67 -250h166l-67 250c-6 22 -12 50 -15 69h-2c-3 -19 -9 -47 -15 -69z" />
    <glyph glyph-name="Acircumflex" unicode="&#xc2;" horiz-adv-x="587" 
d="M242 890h104l100 -154h-102l-52 85l-51 -85h-99zM571 0h-129l-37 135h-225l-38 -135h-126l197 675h160zM276 492l-67 -250h166l-67 250c-6 22 -12 50 -15 69h-2c-3 -19 -9 -47 -15 -69z" />
    <glyph glyph-name="Atilde" unicode="&#xc3;" horiz-adv-x="587" 
d="M453 870l4 -90c-26 -16 -64 -27 -91 -27c-52 0 -97 31 -146 31c-26 0 -57 -14 -81 -28l-6 88c27 17 66 28 93 28c50 0 97 -31 143 -31c27 0 59 14 84 29zM571 0h-129l-37 135h-225l-38 -135h-126l197 675h160zM276 492l-67 -250h166l-67 250c-6 22 -12 50 -15 69h-2
c-3 -19 -9 -47 -15 -69z" />
    <glyph glyph-name="Adieresis" unicode="&#xc4;" horiz-adv-x="587" 
d="M444 759h-110v108h110v-108zM254 759h-110v108h110v-108zM571 0h-129l-37 135h-225l-38 -135h-126l197 675h160zM276 492l-67 -250h166l-67 250c-6 22 -12 50 -15 69h-2c-3 -19 -9 -47 -15 -69z" />
    <glyph glyph-name="Aring" unicode="&#xc5;" horiz-adv-x="587" 
d="M387 813c0 -51 -41 -90 -92 -90c-50 0 -92 39 -92 90s42 91 92 91c51 0 92 -40 92 -91zM327 813c0 18 -14 32 -32 32c-17 0 -31 -14 -31 -32c0 -17 14 -32 31 -32c18 0 32 15 32 32zM571 0h-129l-37 135h-225l-38 -135h-126l197 675h160zM276 492l-67 -250h166l-67 250
c-6 22 -12 50 -15 69h-2c-3 -19 -9 -47 -15 -69z" />
    <glyph glyph-name="AE" unicode="&#xc6;" horiz-adv-x="870" 
d="M350 675h483v-108h-292v-165h210v-108h-210v-186h297v-108h-421v135h-228l-73 -135h-135zM383 492l-136 -250h170v319h-3c-7 -19 -19 -47 -31 -69z" />
    <glyph glyph-name="Ccedilla" unicode="&#xc7;" horiz-adv-x="512" 
d="M486 116l5 -111c-44 -8 -101 -14 -148 -15c-4 -8 -7 -15 -7 -21s2 -8 6 -12c19 -19 52 -36 52 -78c0 -50 -42 -82 -110 -82c-16 0 -57 3 -79 9l4 70c22 -7 42 -10 62 -10c18 0 36 3 36 20c0 19 -29 29 -43 43c-9 9 -13 17 -13 29c0 11 5 24 12 36
c-156 21 -222 123 -222 344c0 244 80 347 285 347c48 0 104 -5 156 -14l-5 -110c-49 9 -100 14 -142 14c-110 0 -164 -35 -164 -237c0 -197 61 -236 160 -236c48 0 88 3 155 14z" />
    <glyph glyph-name="Egrave" unicode="&#xc8;" horiz-adv-x="519" 
d="M238 736l-107 154h126l74 -154h-93zM487 0h-421v675h416v-108h-292v-165h210v-108h-210v-186h297v-108z" />
    <glyph glyph-name="Ecircumflex" unicode="&#xca;" horiz-adv-x="519" 
d="M225 890h104l100 -154h-102l-52 85l-51 -85h-99zM487 0h-421v675h416v-108h-292v-165h210v-108h-210v-186h297v-108z" />
    <glyph glyph-name="Edieresis" unicode="&#xcb;" horiz-adv-x="519" 
d="M431 760h-110v108h110v-108zM241 760h-110v108h110v-108zM487 0h-421v675h416v-108h-292v-165h210v-108h-210v-186h297v-108z" />
    <glyph glyph-name="Igrave" unicode="&#xcc;" horiz-adv-x="257" 
d="M82 736l-107 154h126l74 -154h-93zM190 0h-124v675h124v-675z" />
    <glyph glyph-name="Iacute" unicode="&#xcd;" horiz-adv-x="257" 
d="M282 890l-108 -154h-92l74 154h126zM190 0h-124v675h124v-675z" />
    <glyph glyph-name="Icircumflex" unicode="&#xce;" horiz-adv-x="257" 
d="M78 890h104l100 -154h-102l-52 85l-51 -85h-99zM190 0h-124v675h124v-675z" />
    <glyph glyph-name="Idieresis" unicode="&#xcf;" horiz-adv-x="257" 
d="M279 760h-110v108h110v-108zM89 760h-110v108h110v-108zM190 0h-124v675h124v-675z" />
    <glyph glyph-name="Eth" unicode="&#xd0;" horiz-adv-x="633" 
d="M95 0v294h-95v108h95v273h248c86 0 138 -24 173 -59c54 -54 76 -140 76 -277c0 -140 -21 -225 -76 -280c-33 -33 -89 -59 -175 -59h-246zM462 339c0 100 -11 166 -40 195c-30 30 -71 33 -122 33h-80v-165h135v-108h-135v-186h80c51 0 93 4 122 33c32 31 40 95 40 198z
" />
    <glyph glyph-name="Ntilde" unicode="&#xd1;" horiz-adv-x="636" 
d="M476 870l4 -90c-26 -16 -64 -27 -91 -27c-52 0 -97 31 -146 31c-26 0 -57 -14 -81 -28l-6 88c27 17 66 28 93 28c50 0 97 -31 143 -31c27 0 59 14 84 29zM239 675l177 -418c14 -32 29 -73 41 -112h2c-3 40 -5 75 -5 112l-1 418h117v-675h-166l-184 418
c-14 32 -29 69 -41 108h-2c3 -40 5 -71 5 -108l1 -418h-117v675h173z" />
    <glyph glyph-name="Ograve" unicode="&#xd2;" horiz-adv-x="620" 
d="M271 736l-107 154h126l74 -154h-93zM579 337c0 -237 -66 -347 -269 -347s-269 110 -269 347c0 239 66 348 269 348s269 -109 269 -348zM171 338c0 -192 36 -238 139 -238s139 46 139 238s-36 237 -139 237s-139 -45 -139 -237z" />
    <glyph glyph-name="Oacute" unicode="&#xd3;" horiz-adv-x="620" 
d="M459 890l-108 -154h-92l74 154h126zM579 337c0 -237 -66 -347 -269 -347s-269 110 -269 347c0 239 66 348 269 348s269 -109 269 -348zM171 338c0 -192 36 -238 139 -238s139 46 139 238s-36 237 -139 237s-139 -45 -139 -237z" />
    <glyph glyph-name="Ocircumflex" unicode="&#xd4;" horiz-adv-x="620" 
d="M261 890h104l100 -154h-102l-52 85l-51 -85h-99zM579 337c0 -237 -66 -347 -269 -347s-269 110 -269 347c0 239 66 348 269 348s269 -109 269 -348zM171 338c0 -192 36 -238 139 -238s139 46 139 238s-36 237 -139 237s-139 -45 -139 -237z" />
    <glyph glyph-name="Otilde" unicode="&#xd5;" horiz-adv-x="620" 
d="M469 870l4 -90c-26 -16 -64 -27 -91 -27c-52 0 -97 31 -146 31c-26 0 -57 -14 -81 -28l-6 88c27 17 66 28 93 28c50 0 97 -31 143 -31c27 0 59 14 84 29zM579 337c0 -237 -66 -347 -269 -347s-269 110 -269 347c0 239 66 348 269 348s269 -109 269 -348zM171 338
c0 -192 36 -238 139 -238s139 46 139 238s-36 237 -139 237s-139 -45 -139 -237z" />
    <glyph glyph-name="Odieresis" unicode="&#xd6;" horiz-adv-x="620" 
d="M461 759h-110v108h110v-108zM271 759h-110v108h110v-108zM579 337c0 -237 -66 -347 -269 -347s-269 110 -269 347c0 239 66 348 269 348s269 -109 269 -348zM171 338c0 -192 36 -238 139 -238s139 46 139 238s-36 237 -139 237s-139 -45 -139 -237z" />
    <glyph glyph-name="multiply" unicode="&#xd7;" horiz-adv-x="564" 
d="M282 330l149 149l78 -78l-149 -149l149 -149l-77 -80l-150 150l-150 -150l-77 80l149 149l-149 149l78 78z" />
    <glyph glyph-name="Oslash" unicode="&#xd8;" horiz-adv-x="620" 
d="M585 721l-67 -117c44 -57 61 -145 61 -267c0 -237 -66 -347 -269 -347c-53 0 -97 8 -132 23l-34 -59h-108l67 116c-45 57 -62 145 -62 267c0 239 66 348 269 348c54 0 98 -8 134 -24l34 60h107zM171 338c0 -56 3 -100 10 -133l204 355c-19 11 -44 15 -75 15
c-103 0 -139 -45 -139 -237zM449 338c0 54 -3 97 -10 130l-203 -354c19 -11 44 -14 74 -14c103 0 139 46 139 238z" />
    <glyph glyph-name="Ugrave" unicode="&#xd9;" horiz-adv-x="617" 
d="M276 736l-107 154h126l74 -154h-93zM308 -10c-96 0 -247 46 -247 213v472h122v-479c0 -69 67 -99 125 -99c59 0 127 30 127 99v479h121v-472c0 -167 -152 -213 -248 -213z" />
    <glyph glyph-name="Uacute" unicode="&#xda;" horiz-adv-x="617" 
d="M465 890l-108 -154h-92l74 154h126zM308 -10c-96 0 -247 46 -247 213v472h122v-479c0 -69 67 -99 125 -99c59 0 127 30 127 99v479h121v-472c0 -167 -152 -213 -248 -213z" />
    <glyph glyph-name="Ucircumflex" unicode="&#xdb;" horiz-adv-x="617" 
d="M259 890h104l100 -154h-102l-52 85l-51 -85h-99zM308 -10c-96 0 -247 46 -247 213v472h122v-479c0 -69 67 -99 125 -99c59 0 127 30 127 99v479h121v-472c0 -167 -152 -213 -248 -213z" />
    <glyph glyph-name="Udieresis" unicode="&#xdc;" horiz-adv-x="617" 
d="M459 760h-110v108h110v-108zM269 760h-110v108h110v-108zM308 -10c-96 0 -247 46 -247 213v472h122v-479c0 -69 67 -99 125 -99c59 0 127 30 127 99v479h121v-472c0 -167 -152 -213 -248 -213z" />
    <glyph glyph-name="Yacute" unicode="&#xdd;" horiz-adv-x="546" 
d="M433 890l-108 -154h-92l74 154h126zM335 264v-264h-124v264l-205 411h138l109 -233c7 -14 15 -33 21 -48h2c6 15 14 34 21 48l109 233h134z" />
    <glyph glyph-name="Thorn" unicode="&#xde;" horiz-adv-x="521" 
d="M190 0h-124v675h124v-122h147c124 0 169 -97 169 -216c0 -122 -47 -215 -173 -215h-143v-122zM303 445h-113v-215h113c55 0 73 43 73 107c0 65 -18 108 -73 108z" />
    <glyph glyph-name="germandbls" unicode="&#xdf;" horiz-adv-x="574" 
d="M425 165l-105 56c-54 29 -90 69 -90 136c0 97 88 120 88 192c0 43 -31 61 -70 61c-69 0 -74 -50 -74 -102v-508h-118v545c0 141 117 170 194 170c110 0 189 -62 189 -162c0 -110 -90 -141 -90 -195c0 -21 12 -32 27 -40l103 -57c52 -29 90 -51 90 -125
c0 -100 -77 -146 -193 -146c-50 0 -103 3 -134 9l5 101c40 -5 104 -7 123 -7c47 0 79 4 79 38c0 16 -9 26 -24 34z" />
    <glyph glyph-name="acircumflex" unicode="&#xe2;" horiz-adv-x="438" 
d="M166 695h104l100 -154h-102l-52 85l-51 -85h-99zM391 0h-89l-7 29h-1c-31 -23 -82 -38 -125 -38c-82 0 -150 46 -150 146c0 44 13 80 40 107c45 45 136 49 215 49v52c0 36 -28 42 -70 42c-35 0 -90 -6 -145 -18l-5 102c55 14 122 19 160 19c95 0 177 -29 177 -127v-363z
M274 116v91h-12c-39 0 -90 -4 -108 -22c-10 -10 -15 -21 -15 -39c0 -40 23 -55 58 -55c25 0 57 11 77 25z" />
    <glyph glyph-name="atilde" unicode="&#xe3;" horiz-adv-x="438" 
d="M380 676l4 -90c-26 -16 -64 -27 -91 -27c-52 0 -97 31 -146 31c-26 0 -57 -14 -81 -28l-6 88c27 17 66 28 93 28c50 0 97 -31 143 -31c27 0 59 14 84 29zM391 0h-89l-7 29h-1c-31 -23 -82 -38 -125 -38c-82 0 -150 46 -150 146c0 44 13 80 40 107c45 45 136 49 215 49v52
c0 36 -28 42 -70 42c-35 0 -90 -6 -145 -18l-5 102c55 14 122 19 160 19c95 0 177 -29 177 -127v-363zM274 116v91h-12c-39 0 -90 -4 -108 -22c-10 -10 -15 -21 -15 -39c0 -40 23 -55 58 -55c25 0 57 11 77 25z" />
    <glyph glyph-name="adieresis" unicode="&#xe4;" horiz-adv-x="438" 
d="M366 564h-110v108h110v-108zM176 564h-110v108h110v-108zM391 0h-89l-7 29h-1c-31 -23 -82 -38 -125 -38c-82 0 -150 46 -150 146c0 44 13 80 40 107c45 45 136 49 215 49v52c0 36 -28 42 -70 42c-35 0 -90 -6 -145 -18l-5 102c55 14 122 19 160 19
c95 0 177 -29 177 -127v-363zM274 116v91h-12c-39 0 -90 -4 -108 -22c-10 -10 -15 -21 -15 -39c0 -40 23 -55 58 -55c25 0 57 11 77 25z" />
    <glyph glyph-name="aring" unicode="&#xe5;" horiz-adv-x="438" 
d="M312 618c0 -51 -41 -90 -92 -90c-50 0 -92 39 -92 90s42 91 92 91c51 0 92 -40 92 -91zM252 618c0 18 -14 32 -32 32c-17 0 -31 -14 -31 -32c0 -17 14 -32 31 -32c18 0 32 15 32 32zM391 0h-89l-7 29h-1c-31 -23 -82 -38 -125 -38c-82 0 -150 46 -150 146
c0 44 13 80 40 107c45 45 136 49 215 49v52c0 36 -28 42 -70 42c-35 0 -90 -6 -145 -18l-5 102c55 14 122 19 160 19c95 0 177 -29 177 -127v-363zM274 116v91h-12c-39 0 -90 -4 -108 -22c-10 -10 -15 -21 -15 -39c0 -40 23 -55 58 -55c25 0 57 11 77 25z" />
    <glyph glyph-name="ae" unicode="&#xe6;" horiz-adv-x="691" 
d="M336 41c-54 -40 -116 -50 -158 -50c-91 0 -159 46 -159 146c0 44 13 80 40 107c47 47 136 49 215 49v52c0 36 -28 42 -70 42c-35 0 -90 -6 -145 -18l-5 102c55 14 122 19 160 19c53 0 102 -7 135 -38h2c32 28 74 39 131 39c139 0 178 -87 178 -209v-66h-264
c0 -92 28 -122 114 -122c38 0 93 8 128 16l5 -101c-43 -13 -107 -18 -144 -18c-75 0 -125 16 -161 50h-2zM286 125c-7 24 -11 51 -12 82h-13c-39 0 -89 -4 -107 -22c-9 -9 -15 -21 -15 -39c0 -40 23 -55 58 -55c32 0 67 14 89 34zM548 302c-1 49 -11 94 -68 94
c-55 0 -76 -31 -80 -94h148z" />
    <glyph glyph-name="ccedilla" unicode="&#xe7;" horiz-adv-x="401" 
d="M153 242c0 -125 31 -149 113 -149c33 0 72 4 110 10l4 -101c-31 -6 -66 -10 -97 -11c-4 -8 -7 -16 -7 -22s2 -8 6 -12c19 -19 52 -36 52 -78c0 -50 -42 -82 -110 -82c-16 0 -57 3 -79 9l4 70c22 -7 42 -10 62 -10c18 0 36 3 36 20c0 19 -29 29 -43 43c-9 9 -13 17 -13 29
c0 10 4 23 11 35c-111 15 -171 85 -171 249c0 183 79 248 217 248c37 0 86 -4 127 -13l-5 -101c-38 6 -74 11 -107 11c-77 0 -110 -21 -110 -145z" />
    <glyph glyph-name="egrave" unicode="&#xe8;" horiz-adv-x="449" 
d="M191 541l-107 154h126l74 -154h-93zM257 -10c-162 0 -226 77 -226 247c0 169 56 253 209 253c139 0 178 -87 178 -209v-66h-264c0 -92 28 -122 114 -122c38 0 93 8 128 16l5 -101c-43 -13 -107 -18 -144 -18zM306 301c-1 49 -11 94 -68 94c-55 0 -76 -31 -80 -94h148z
" />
    <glyph glyph-name="eacute" unicode="&#xe9;" horiz-adv-x="449" 
d="M390 695l-108 -154h-92l74 154h126zM257 -10c-162 0 -226 77 -226 247c0 169 56 253 209 253c139 0 178 -87 178 -209v-66h-264c0 -92 28 -122 114 -122c38 0 93 8 128 16l5 -101c-43 -13 -107 -18 -144 -18zM306 301c-1 49 -11 94 -68 94c-55 0 -76 -31 -80 -94h148z
" />
    <glyph glyph-name="ecircumflex" unicode="&#xea;" horiz-adv-x="449" 
d="M185 695h104l100 -154h-102l-52 85l-51 -85h-99zM257 -10c-162 0 -226 77 -226 247c0 169 56 253 209 253c139 0 178 -87 178 -209v-66h-264c0 -92 28 -122 114 -122c38 0 93 8 128 16l5 -101c-43 -13 -107 -18 -144 -18zM306 301c-1 49 -11 94 -68 94
c-55 0 -76 -31 -80 -94h148z" />
    <glyph glyph-name="edieresis" unicode="&#xeb;" horiz-adv-x="449" 
d="M386 564h-110v108h110v-108zM196 564h-110v108h110v-108zM257 -10c-162 0 -226 77 -226 247c0 169 56 253 209 253c139 0 178 -87 178 -209v-66h-264c0 -92 28 -122 114 -122c38 0 93 8 128 16l5 -101c-43 -13 -107 -18 -144 -18zM306 301c-1 49 -11 94 -68 94
c-55 0 -76 -31 -80 -94h148z" />
    <glyph glyph-name="igrave" unicode="&#xec;" horiz-adv-x="228" 
d="M66 541l-107 154h126l74 -154h-93zM173 0h-118v480h118v-480z" />
    <glyph glyph-name="icircumflex" unicode="&#xee;" horiz-adv-x="228" 
d="M63 695h104l100 -154h-102l-52 85l-51 -85h-99zM173 0h-118v480h118v-480z" />
    <glyph glyph-name="idieresis" unicode="&#xef;" horiz-adv-x="228" 
d="M263 564h-110v108h110v-108zM73 564h-110v108h110v-108zM173 0h-118v480h118v-480z" />
    <glyph glyph-name="eth" unicode="&#xf0;" horiz-adv-x="505" 
d="M468 273c0 -195 -66 -283 -212 -283c-153 0 -220 81 -220 251s66 249 216 249c27 0 51 -5 72 -14c-13 34 -33 68 -63 97l-155 -88v99l87 49c-31 25 -59 40 -105 59l131 34c17 -8 50 -28 66 -40l99 56v-99l-31 -17c89 -98 115 -251 115 -353zM346 240
c0 122 -32 147 -94 147s-94 -25 -94 -146c0 -122 32 -147 94 -147c63 0 94 25 94 146z" />
    <glyph glyph-name="ntilde" unicode="&#xf1;" horiz-adv-x="486" 
d="M406 676l4 -90c-26 -16 -64 -27 -91 -27c-52 0 -97 31 -146 31c-26 0 -57 -14 -81 -28l-6 88c27 17 66 28 93 28c50 0 97 -31 143 -31c27 0 59 14 84 29zM440 365v-365h-118v353c0 28 -19 37 -45 37c-45 0 -86 -19 -108 -35v-355h-118v480h89l8 -32h1c38 25 89 42 141 42
c65 0 150 -28 150 -125z" />
    <glyph glyph-name="ograve" unicode="&#xf2;" horiz-adv-x="494" 
d="M199 541l-107 154h126l74 -154h-93zM463 240c0 -170 -66 -250 -216 -250c-149 0 -216 81 -216 251s66 249 216 249c149 0 216 -79 216 -250zM341 240c0 122 -32 147 -94 147s-94 -25 -94 -146c0 -122 32 -147 94 -147c63 0 94 25 94 146z" />
    <glyph glyph-name="oacute" unicode="&#xf3;" horiz-adv-x="494" 
d="M406 695l-108 -154h-92l74 154h126zM463 240c0 -170 -66 -250 -216 -250c-149 0 -216 81 -216 251s66 249 216 249c149 0 216 -79 216 -250zM341 240c0 122 -32 147 -94 147s-94 -25 -94 -146c0 -122 32 -147 94 -147c63 0 94 25 94 146z" />
    <glyph glyph-name="ocircumflex" unicode="&#xf4;" horiz-adv-x="494" 
d="M197 695h104l100 -154h-102l-52 85l-51 -85h-99zM463 240c0 -170 -66 -250 -216 -250c-149 0 -216 81 -216 251s66 249 216 249c149 0 216 -79 216 -250zM341 240c0 122 -32 147 -94 147s-94 -25 -94 -146c0 -122 32 -147 94 -147c63 0 94 25 94 146z" />
    <glyph glyph-name="otilde" unicode="&#xf5;" horiz-adv-x="494" 
d="M405 676l4 -90c-26 -16 -64 -27 -91 -27c-52 0 -97 31 -146 31c-26 0 -57 -14 -81 -28l-6 88c27 17 66 28 93 28c50 0 97 -31 143 -31c27 0 59 14 84 29zM463 240c0 -170 -66 -250 -216 -250c-149 0 -216 81 -216 251s66 249 216 249c149 0 216 -79 216 -250zM341 240
c0 122 -32 147 -94 147s-94 -25 -94 -146c0 -122 32 -147 94 -147c63 0 94 25 94 146z" />
    <glyph glyph-name="odieresis" unicode="&#xf6;" horiz-adv-x="494" 
d="M397 564h-110v108h110v-108zM207 564h-110v108h110v-108zM463 240c0 -170 -66 -250 -216 -250c-149 0 -216 81 -216 251s66 249 216 249c149 0 216 -79 216 -250zM341 240c0 122 -32 147 -94 147s-94 -25 -94 -146c0 -122 32 -147 94 -147c63 0 94 25 94 146z" />
    <glyph glyph-name="divide" unicode="&#xf7;" horiz-adv-x="566" 
d="M343 353h-120v120h120v-120zM521 207h-476v102h476v-102zM343 43h-120v120h120v-120z" />
    <glyph glyph-name="oslash" unicode="&#xf8;" horiz-adv-x="494" 
d="M453 526l-50 -89c40 -41 60 -106 60 -197c0 -170 -66 -250 -216 -250c-34 0 -64 5 -90 13l-27 -49h-89l51 88c-42 41 -61 107 -61 199c0 170 66 249 216 249c36 0 67 -5 94 -14l29 50h83zM153 241c0 -34 2 -60 7 -80l127 220c-12 4 -25 6 -40 6c-62 0 -94 -25 -94 -146z
M341 240c0 31 -2 56 -7 76l-123 -218c10 -3 22 -4 36 -4c63 0 94 25 94 146z" />
    <glyph glyph-name="ugrave" unicode="&#xf9;" horiz-adv-x="486" 
d="M202 541l-107 154h126l74 -154h-93zM46 115v365h118v-353c0 -28 19 -37 45 -37c45 0 86 19 108 35v355h118v-480h-89l-8 32h-1c-38 -25 -89 -42 -141 -42c-65 0 -150 28 -150 125z" />
    <glyph glyph-name="uacute" unicode="&#xfa;" horiz-adv-x="486" 
d="M394 695l-108 -154h-92l74 154h126zM46 115v365h118v-353c0 -28 19 -37 45 -37c45 0 86 19 108 35v355h118v-480h-89l-8 32h-1c-38 -25 -89 -42 -141 -42c-65 0 -150 28 -150 125z" />
    <glyph glyph-name="ucircumflex" unicode="&#xfb;" horiz-adv-x="486" 
d="M190 695h104l100 -154h-102l-52 85l-51 -85h-99zM46 115v365h118v-353c0 -28 19 -37 45 -37c45 0 86 19 108 35v355h118v-480h-89l-8 32h-1c-38 -25 -89 -42 -141 -42c-65 0 -150 28 -150 125z" />
    <glyph glyph-name="udieresis" unicode="&#xfc;" horiz-adv-x="486" 
d="M393 564h-110v108h110v-108zM203 564h-110v108h110v-108zM46 115v365h118v-353c0 -28 19 -37 45 -37c45 0 86 19 108 35v355h118v-480h-89l-8 32h-1c-38 -25 -89 -42 -141 -42c-65 0 -150 28 -150 125z" />
    <glyph glyph-name="yacute" unicode="&#xfd;" horiz-adv-x="458" 
d="M393 695l-108 -154h-92l74 154h126zM454 480l-164 -522c-40 -125 -92 -168 -187 -168c-27 0 -70 3 -98 10l5 104c26 -5 57 -7 76 -7c26 0 45 4 59 18s21 30 27 51l-168 514h128l82 -278c6 -22 13 -56 18 -87h2c5 31 12 65 18 87l79 278h123z" />
    <glyph glyph-name="thorn" unicode="&#xfe;" horiz-adv-x="496" 
d="M174 705v-244c31 16 72 29 113 29c134 0 178 -98 178 -248c0 -175 -63 -252 -201 -252c-29 0 -58 4 -90 12v-207h-118v910h118zM265 386c-40 0 -70 -14 -91 -30v-251c25 -10 48 -14 77 -14c59 0 92 20 92 145c0 119 -29 150 -78 150z" />
    <glyph glyph-name="ydieresis" unicode="&#xff;" horiz-adv-x="458" 
d="M383 564h-110v108h110v-108zM193 564h-110v108h110v-108zM454 480l-164 -522c-40 -125 -92 -168 -187 -168c-27 0 -70 3 -98 10l5 104c26 -5 57 -7 76 -7c26 0 45 4 59 18s21 30 27 51l-168 514h128l82 -278c6 -22 13 -56 18 -87h2c5 31 12 65 18 87l79 278h123z" />
    <glyph glyph-name="AEacute" unicode="&#x1fc;" horiz-adv-x="870" 
d="M664 890l-108 -154h-92l74 154h126zM350 675h483v-108h-292v-165h210v-108h-210v-186h297v-108h-421v135h-228l-73 -135h-135zM383 492l-136 -250h170v319h-3c-7 -19 -19 -47 -31 -69z" />
    <glyph glyph-name="AEmacron" unicode="&#x1e2;" horiz-adv-x="870" 
d="M703 768h-311v90h311v-90zM350 675h483v-108h-292v-165h210v-108h-210v-186h297v-108h-421v135h-228l-73 -135h-135zM383 492l-136 -250h170v319h-3c-7 -19 -19 -47 -31 -69z" />
    <glyph glyph-name="Abreve" unicode="&#x102;" horiz-adv-x="587" 
d="M458 883c-19 -82 -72 -140 -163 -140c-92 0 -144 58 -163 140h101c9 -43 28 -61 62 -61c33 0 53 18 62 61h101zM571 0h-129l-37 135h-225l-38 -135h-126l197 675h160zM276 492l-67 -250h166l-67 250c-6 22 -12 50 -15 69h-2c-3 -19 -9 -47 -15 -69z" />
    <glyph glyph-name="Acaron" unicode="&#x1cd;" horiz-adv-x="587" 
d="M347 736h-105l-99 154h102l52 -85l51 85h99zM571 0h-129l-37 135h-225l-38 -135h-126l197 675h160zM276 492l-67 -250h166l-67 250c-6 22 -12 50 -15 69h-2c-3 -19 -9 -47 -15 -69z" />
    <glyph glyph-name="Adieresismacron" unicode="&#x1de;" horiz-adv-x="587" 
d="M448 859h-311v80h311v-80zM427 720h-103v96h103v-96zM259 720h-104v96h104v-96zM571 0h-129l-37 135h-225l-38 -135h-126l197 675h160zM276 492l-67 -250h166l-67 250c-6 22 -12 50 -15 69h-2c-3 -19 -9 -47 -15 -69z" />
    <glyph glyph-name="Adotabove" unicode="&#x226;" horiz-adv-x="587" 
d="M353 757h-120v113h120v-113zM571 0h-129l-37 135h-225l-38 -135h-126l197 675h160zM276 492l-67 -250h166l-67 250c-6 22 -12 50 -15 69h-2c-3 -19 -9 -47 -15 -69z" />
    <glyph glyph-name="Adoublegrave" unicode="&#x200;" horiz-adv-x="587" 
d="M339 736l-107 154h120l74 -154h-87zM172 736l-107 154h120l74 -154h-87zM571 0h-129l-37 135h-225l-38 -135h-126l197 675h160zM276 492l-67 -250h166l-67 250c-6 22 -12 50 -15 69h-2c-3 -19 -9 -47 -15 -69z" />
    <glyph glyph-name="Ainvertedbreve" unicode="&#x202;" horiz-adv-x="587" 
d="M131 743c19 82 72 140 163 140c92 0 144 -58 163 -140h-101c-9 43 -28 61 -62 61c-33 0 -53 -18 -62 -61h-101zM571 0h-129l-37 135h-225l-38 -135h-126l197 675h160zM276 492l-67 -250h166l-67 250c-6 22 -12 50 -15 69h-2c-3 -19 -9 -47 -15 -69z" />
    <glyph glyph-name="Amacron" unicode="&#x100;" horiz-adv-x="587" 
d="M451 768h-311v90h311v-90zM571 0h-129l-37 135h-225l-38 -135h-126l197 675h160zM276 492l-67 -250h166l-67 250c-6 22 -12 50 -15 69h-2c-3 -19 -9 -47 -15 -69z" />
    <glyph glyph-name="Anocross" unicode="&#xe731;" horiz-adv-x="612" 
d="M18 0l212 675h149l215 -675h-138l-135 453c-7 22 -15 67 -18 100h-2c-4 -33 -12 -78 -18 -100l-132 -453h-133z" />
    <glyph glyph-name="Aogonek" unicode="&#x104;" horiz-adv-x="587" 
d="M592 -120l3 -68c-17 -9 -54 -15 -77 -15c-78 0 -117 44 -117 94c0 43 24 82 59 109h-18l-37 135h-225l-38 -135h-126l197 675h160l198 -675c-39 -15 -85 -54 -85 -95c0 -25 17 -38 50 -38c17 0 38 4 56 13zM276 492l-67 -250h166l-67 250c-6 22 -12 50 -15 69h-2
c-3 -19 -9 -47 -15 -69z" />
    <glyph glyph-name="Aringacute" unicode="&#x1fa;" horiz-adv-x="587" 
d="M221 851l65 103h63l-44 -70c42 -6 74 -42 74 -85c0 -48 -39 -85 -87 -85c-47 0 -86 37 -86 85c0 17 6 37 15 52zM324 799c0 18 -14 32 -32 32c-17 0 -31 -14 -31 -32c0 -17 14 -32 31 -32c18 0 32 15 32 32zM571 0h-129l-37 135h-225l-38 -135h-126l197 675h160zM276 492
l-67 -250h166l-67 250c-6 22 -12 50 -15 69h-2c-3 -19 -9 -47 -15 -69z" />
    <glyph glyph-name="Cacute" unicode="&#x106;" horiz-adv-x="512" 
d="M450 890l-108 -154h-92l74 154h126zM486 116l5 -111c-48 -9 -111 -15 -160 -15c-205 0 -290 98 -290 348c0 244 80 347 285 347c48 0 104 -5 156 -14l-5 -110c-49 9 -100 14 -142 14c-110 0 -164 -35 -164 -237c0 -197 61 -236 160 -236c48 0 88 3 155 14z" />
    <glyph glyph-name="Ccaron" unicode="&#x10c;" horiz-adv-x="512" 
d="M362 736h-105l-99 154h102l52 -85l51 85h99zM486 116l5 -111c-48 -9 -111 -15 -160 -15c-205 0 -290 98 -290 348c0 244 80 347 285 347c48 0 104 -5 156 -14l-5 -110c-49 9 -100 14 -142 14c-110 0 -164 -35 -164 -237c0 -197 61 -236 160 -236c48 0 88 3 155 14z" />
    <glyph glyph-name="Ccircumflex" unicode="&#x108;" horiz-adv-x="512" 
d="M254 890h104l100 -154h-102l-52 85l-51 -85h-99zM486 116l5 -111c-48 -9 -111 -15 -160 -15c-205 0 -290 98 -290 348c0 244 80 347 285 347c48 0 104 -5 156 -14l-5 -110c-49 9 -100 14 -142 14c-110 0 -164 -35 -164 -237c0 -197 61 -236 160 -236c48 0 88 3 155 14z
" />
    <glyph glyph-name="Cdotaccent" unicode="&#x10a;" horiz-adv-x="512" 
d="M373 757h-120v113h120v-113zM486 116l5 -111c-48 -9 -111 -15 -160 -15c-205 0 -290 98 -290 348c0 244 80 347 285 347c48 0 104 -5 156 -14l-5 -110c-49 9 -100 14 -142 14c-110 0 -164 -35 -164 -237c0 -197 61 -236 160 -236c48 0 88 3 155 14z" />
    <glyph glyph-name="Dcaron" unicode="&#x10e;" horiz-adv-x="604" 
d="M335 736h-105l-99 154h102l52 -85l51 85h99zM66 0v675h248c86 0 138 -24 173 -59c54 -54 76 -140 76 -277c0 -140 -21 -225 -76 -280c-33 -33 -89 -59 -175 -59h-246zM433 339c0 100 -11 166 -40 195c-30 30 -71 33 -122 33h-80v-459h80c51 0 93 4 122 33
c32 31 40 95 40 198z" />
    <glyph glyph-name="Dcedilla" unicode="&#x1e10;" horiz-adv-x="604" 
d="M66 0v675h248c86 0 138 -24 173 -59c54 -54 76 -140 76 -277c0 -140 -21 -225 -76 -280c-33 -33 -89 -59 -175 -59h-246zM433 339c0 100 -11 166 -40 195c-30 30 -71 33 -122 33h-80v-459h80c51 0 93 4 122 33c32 31 40 95 40 198zM294 -121c0 21 -45 23 -72 24l5 61
c74 0 151 -20 151 -89c0 -47 -42 -78 -115 -78c-18 0 -53 2 -74 10l4 64c19 -5 44 -9 64 -9s37 3 37 17z" />
    <glyph glyph-name="Dcroat" unicode="&#x110;" horiz-adv-x="633" 
d="M95 0v294h-95v108h95v273h248c86 0 138 -24 173 -59c54 -54 76 -140 76 -277c0 -140 -21 -225 -76 -280c-33 -33 -89 -59 -175 -59h-246zM462 339c0 100 -11 166 -40 195c-30 30 -71 33 -122 33h-80v-165h135v-108h-135v-186h80c51 0 93 4 122 33c32 31 40 95 40 198z
" />
    <glyph glyph-name="Ddotbelow" unicode="&#x1e0c;" horiz-adv-x="604" 
d="M66 0v675h248c86 0 138 -24 173 -59c54 -54 76 -140 76 -277c0 -140 -21 -225 -76 -280c-33 -33 -89 -59 -175 -59h-246zM433 339c0 100 -11 166 -40 195c-30 30 -71 33 -122 33h-80v-459h80c51 0 93 4 122 33c32 31 40 95 40 198zM341 -188h-121v113h121v-113z" />
    <glyph glyph-name="Eacutedotbelow" unicode="&#xe761;" horiz-adv-x="519" 
d="M428 890l-108 -154h-92l74 154h126zM487 0h-421v675h416v-108h-292v-165h210v-108h-210v-186h297v-108zM344 -188h-120v113h120v-113z" />
    <glyph glyph-name="Ebreve" unicode="&#x114;" horiz-adv-x="519" 
d="M433 883c-19 -82 -72 -140 -163 -140c-92 0 -144 58 -163 140h101c9 -43 28 -61 62 -61c33 0 53 18 62 61h101zM487 0h-421v675h416v-108h-292v-165h210v-108h-210v-186h297v-108z" />
    <glyph glyph-name="Ecaron" unicode="&#x11a;" horiz-adv-x="519" 
d="M337 736h-105l-99 154h102l52 -85l51 85h99zM487 0h-421v675h416v-108h-292v-165h210v-108h-210v-186h297v-108z" />
    <glyph glyph-name="Edotaccent" unicode="&#x116;" horiz-adv-x="519" 
d="M344 757h-120v113h120v-113zM487 0h-421v675h416v-108h-292v-165h210v-108h-210v-186h297v-108z" />
    <glyph glyph-name="Edoublegrave" unicode="&#x204;" horiz-adv-x="519" 
d="M335 736l-107 154h120l74 -154h-87zM168 736l-107 154h120l74 -154h-87zM487 0h-421v675h416v-108h-292v-165h210v-108h-210v-186h297v-108z" />
    <glyph glyph-name="Egravedotbelow" unicode="&#xe765;" horiz-adv-x="519" 
d="M238 736l-107 154h126l74 -154h-93zM487 0h-421v675h416v-108h-292v-165h210v-108h-210v-186h297v-108zM344 -188h-120v113h120v-113z" />
    <glyph glyph-name="Einvertedbreve" unicode="&#x206;" horiz-adv-x="519" 
d="M118 743c19 82 72 140 163 140c92 0 144 -58 163 -140h-101c-9 43 -28 61 -62 61c-33 0 -53 -18 -62 -61h-101zM487 0h-421v675h416v-108h-292v-165h210v-108h-210v-186h297v-108z" />
    <glyph glyph-name="Emacron" unicode="&#x112;" horiz-adv-x="519" 
d="M431 768h-311v90h311v-90zM487 0h-421v675h416v-108h-292v-165h210v-108h-210v-186h297v-108z" />
    <glyph glyph-name="Eng" unicode="&#x14a;" horiz-adv-x="636" 
d="M271 -205l5 113c36 -6 93 -9 108 -9c54 0 61 15 61 60v45l-228 446c-4 8 -20 41 -36 76h-4c3 -40 5 -71 5 -108l1 -418h-117v675h169l166 -328c14 -27 29 -59 42 -88h2v416h125v-741c0 -100 -59 -149 -167 -149c-30 0 -80 2 -132 10z" />
    <glyph glyph-name="Eogonek" unicode="&#x118;" horiz-adv-x="519" 
d="M509 -120l3 -68c-17 -9 -54 -15 -77 -15c-78 0 -117 44 -117 94c0 43 24 82 59 109h-311v675h416v-108h-292v-165h210v-108h-210v-186h297v-108c-38 -15 -84 -54 -84 -95c0 -25 17 -38 50 -38c17 0 38 4 56 13z" />
    <glyph glyph-name="Eurooldstyle" unicode="&#xe769;" horiz-adv-x="501" 
d="M85 229v45h-66v69h73c21 114 89 167 229 167c36 0 87 -4 129 -11l-4 -105c-41 6 -85 10 -115 10c-59 0 -93 -14 -109 -61h202l-31 -69h-181v-45h164l-31 -69h-123c15 -50 50 -63 109 -63c32 0 76 4 122 10l5 -106c-43 -8 -98 -11 -136 -11c-141 0 -210 54 -230 170h-73
v69h66z" />
    <glyph glyph-name="Gacute" unicode="&#x1f4;" horiz-adv-x="591" 
d="M468 890l-108 -154h-92l74 154h126zM338 -10c-205 0 -297 98 -297 348c0 244 85 347 301 347c45 0 115 -5 167 -14l-5 -110c-51 9 -110 14 -155 14c-120 0 -178 -35 -178 -237c0 -197 71 -236 166 -236c26 0 59 3 84 10v235h123v-326c-61 -16 -142 -31 -206 -31z" />
    <glyph glyph-name="Gbreve" unicode="&#x11e;" horiz-adv-x="591" 
d="M486 883c-19 -82 -72 -140 -163 -140c-92 0 -144 58 -163 140h101c9 -43 28 -61 62 -61c33 0 53 18 62 61h101zM338 -10c-205 0 -297 98 -297 348c0 244 85 347 301 347c45 0 115 -5 167 -14l-5 -110c-51 9 -110 14 -155 14c-120 0 -178 -35 -178 -237
c0 -197 71 -236 166 -236c26 0 59 3 84 10v235h123v-326c-61 -16 -142 -31 -206 -31z" />
    <glyph glyph-name="Gcaron" unicode="&#x1e6;" horiz-adv-x="591" 
d="M371 736h-105l-99 154h102l52 -85l51 85h99zM338 -10c-205 0 -297 98 -297 348c0 244 85 347 301 347c45 0 115 -5 167 -14l-5 -110c-51 9 -110 14 -155 14c-120 0 -178 -35 -178 -237c0 -197 71 -236 166 -236c26 0 59 3 84 10v235h123v-326c-61 -16 -142 -31 -206 -31z
" />
    <glyph glyph-name="Gcircumflex" unicode="&#x11c;" horiz-adv-x="591" 
d="M273 890h104l100 -154h-102l-52 85l-51 -85h-99zM338 -10c-205 0 -297 98 -297 348c0 244 85 347 301 347c45 0 115 -5 167 -14l-5 -110c-51 9 -110 14 -155 14c-120 0 -178 -35 -178 -237c0 -197 71 -236 166 -236c26 0 59 3 84 10v235h123v-326
c-61 -16 -142 -31 -206 -31z" />
    <glyph glyph-name="Gcommaaccent" unicode="&#x122;" horiz-adv-x="591" 
d="M338 -10c-205 0 -297 98 -297 348c0 244 85 347 301 347c45 0 115 -5 167 -14l-5 -110c-51 9 -110 14 -155 14c-120 0 -178 -35 -178 -237c0 -197 71 -236 166 -236c26 0 59 3 84 10v235h123v-326c-61 -16 -142 -31 -206 -31zM239 -246l43 182h118l-73 -182h-88z" />
    <glyph glyph-name="Gcommaturnedabove" unicode="&#xe107;" horiz-adv-x="591" 
d="M412 908l-45 -185h-118l75 185h88zM338 -10c-205 0 -297 98 -297 348c0 244 85 347 301 347c45 0 115 -5 167 -14l-5 -110c-51 9 -110 14 -155 14c-120 0 -178 -35 -178 -237c0 -197 71 -236 166 -236c26 0 59 3 84 10v235h123v-326c-61 -16 -142 -31 -206 -31z" />
    <glyph glyph-name="Gdotaccent" unicode="&#x120;" horiz-adv-x="591" 
d="M382 757h-120v113h120v-113zM338 -10c-205 0 -297 98 -297 348c0 244 85 347 301 347c45 0 115 -5 167 -14l-5 -110c-51 9 -110 14 -155 14c-120 0 -178 -35 -178 -237c0 -197 71 -236 166 -236c26 0 59 3 84 10v235h123v-326c-61 -16 -142 -31 -206 -31z" />
    <glyph glyph-name="Gstroke" unicode="&#x1e4;" horiz-adv-x="639" 
d="M338 -10c-205 0 -297 98 -297 348c0 244 85 347 301 347c45 0 115 -5 167 -14l-5 -110c-51 9 -110 14 -155 14c-120 0 -178 -35 -178 -237c0 -197 71 -236 166 -236c26 0 59 3 84 10v52h-122v107h122v76h123v-76h95v-107h-95v-143c-61 -16 -142 -31 -206 -31z" />
    <glyph glyph-name="Gtilde" unicode="&#xe105;" horiz-adv-x="591" 
d="M471 870l4 -90c-26 -16 -64 -27 -91 -27c-52 0 -97 31 -146 31c-26 0 -57 -14 -81 -28l-6 88c27 17 66 28 93 28c50 0 97 -31 143 -31c27 0 59 14 84 29zM338 -10c-205 0 -297 98 -297 348c0 244 85 347 301 347c45 0 115 -5 167 -14l-5 -110c-51 9 -110 14 -155 14
c-120 0 -178 -35 -178 -237c0 -197 71 -236 166 -236c26 0 59 3 84 10v235h123v-326c-61 -16 -142 -31 -206 -31z" />
    <glyph glyph-name="Hbar" unicode="&#x126;" horiz-adv-x="628" 
d="M561 0h-124v294h-247v-294h-124v675h124v-89h247v89h124v-675zM190 402h247v78h-247v-78z" />
    <glyph glyph-name="Hcaron" unicode="&#x21e;" horiz-adv-x="628" 
d="M364 736h-105l-99 154h102l52 -85l51 85h99zM561 0h-124v294h-247v-294h-124v675h124v-273h247v273h124v-675z" />
    <glyph glyph-name="Hcircumflex" unicode="&#x124;" horiz-adv-x="628" 
d="M264 890h104l100 -154h-102l-52 85l-51 -85h-99zM561 0h-124v294h-247v-294h-124v675h124v-273h247v273h124v-675z" />
    <glyph glyph-name="Hdotbelow" unicode="&#x1e24;" horiz-adv-x="628" 
d="M561 0h-124v294h-247v-294h-124v675h124v-273h247v273h124v-675zM375 -188h-121v113h121v-113z" />
    <glyph glyph-name="Hmacronbelow" unicode="&#xe109;" horiz-adv-x="628" 
d="M561 0h-124v294h-247v-294h-124v675h124v-273h247v273h124v-675zM470 -183h-311v90h311v-90z" />
    <glyph glyph-name="IJ" unicode="&#x132;" horiz-adv-x="608" 
d="M248 0l5 113c36 -6 93 -9 108 -9c54 0 61 15 61 60v511h125v-536c0 -100 -59 -149 -167 -149c-30 0 -80 2 -132 10zM190 0h-124v675h124v-675z" />
    <glyph glyph-name="Ibreve" unicode="&#x12c;" horiz-adv-x="257" 
d="M292 883c-19 -82 -72 -140 -163 -140c-92 0 -144 58 -163 140h101c9 -43 28 -61 62 -61c33 0 53 18 62 61h101zM190 0h-124v675h124v-675z" />
    <glyph glyph-name="Icaron" unicode="&#x1cf;" horiz-adv-x="257" 
d="M181 736h-105l-99 154h102l52 -85l51 85h99zM190 0h-124v675h124v-675z" />
    <glyph glyph-name="Idotaccent" unicode="&#x130;" horiz-adv-x="257" 
d="M188 757h-120v113h120v-113zM190 0h-124v675h124v-675z" />
    <glyph glyph-name="Idotbelow" unicode="&#x1eca;" horiz-adv-x="257" 
d="M190 0h-124v675h124v-675zM188 -188h-121v113h121v-113z" />
    <glyph glyph-name="Idoublegrave" unicode="&#x208;" horiz-adv-x="257" 
d="M174 736l-107 154h120l74 -154h-87zM7 736l-107 154h120l74 -154h-87zM190 0h-124v675h124v-675z" />
    <glyph glyph-name="Iinvertedbreve" unicode="&#x20a;" horiz-adv-x="257" 
d="M-34 743c19 82 72 140 163 140c92 0 144 -58 163 -140h-101c-9 43 -28 61 -62 61c-33 0 -53 -18 -62 -61h-101zM190 0h-124v675h124v-675z" />
    <glyph glyph-name="Imacron" unicode="&#x12a;" horiz-adv-x="257" 
d="M284 768h-311v90h311v-90zM190 0h-124v675h124v-675z" />
    <glyph glyph-name="Iogonek" unicode="&#x12e;" horiz-adv-x="257" 
d="M212 -120l3 -68c-17 -9 -54 -15 -77 -15c-78 0 -117 44 -117 94c0 43 24 82 59 109h-14v675h124v-675c-38 -15 -84 -54 -84 -95c0 -25 17 -38 50 -38c17 0 38 4 56 13z" />
    <glyph glyph-name="Itilde" unicode="&#x128;" horiz-adv-x="257" 
d="M287 870l4 -90c-26 -16 -64 -27 -91 -27c-52 0 -97 31 -146 31c-26 0 -57 -14 -81 -28l-6 88c27 17 66 28 93 28c50 0 97 -31 143 -31c27 0 59 14 84 29zM190 0h-124v675h124v-675z" />
    <glyph glyph-name="Jcaron" unicode="&#xe10b;" horiz-adv-x="351" 
d="M278 736h-105l-99 154h102l52 -85l51 85h99zM-9 0l5 113c36 -6 93 -9 108 -9c54 0 61 15 61 60v511h125v-536c0 -100 -59 -149 -167 -149c-30 0 -80 2 -132 10z" />
    <glyph glyph-name="Jcircumflex" unicode="&#x134;" horiz-adv-x="351" 
d="M178 890h104l100 -154h-102l-52 85l-51 -85h-99zM-9 0l5 113c36 -6 93 -9 108 -9c54 0 61 15 61 60v511h125v-536c0 -100 -59 -149 -167 -149c-30 0 -80 2 -132 10z" />
    <glyph glyph-name="Kcaron" unicode="&#x1e8;" horiz-adv-x="545" 
d="M336 736h-105l-99 154h102l52 -85l51 85h99zM190 396h2c14 21 27 39 39 54l169 225h148l-216 -284l227 -391h-149l-164 288l-56 -77v-211h-124v675h124v-279z" />
    <glyph glyph-name="Kcedilla" unicode="&#xe10d;" horiz-adv-x="545" 
d="M190 396h2c14 21 27 39 39 54l169 225h148l-216 -284l227 -391h-149l-164 288l-56 -77v-211h-124v675h124v-279zM300 -121c0 21 -45 23 -72 24l5 61c74 0 151 -20 151 -89c0 -47 -42 -78 -115 -78c-18 0 -53 2 -74 10l4 64c19 -5 44 -9 64 -9s37 3 37 17z" />
    <glyph glyph-name="Kgreenlandic" unicode="&#xe793;" horiz-adv-x="545" 
d="M190 396h2c14 21 27 39 39 54l169 225h148l-216 -284l227 -391h-149l-164 288l-56 -77v-211h-124v675h124v-279z" />
    <glyph glyph-name="Khook" unicode="&#x198;" horiz-adv-x="545" 
d="M190 675v-301c8 7 17 14 24 21c84 84 74 151 150 227c36 36 86 60 168 60h10v-115c-46 -1 -73 -17 -95 -39c-32 -32 -49 -98 -99 -164l211 -364h-149l-155 272c-21 -15 -42 -29 -65 -42v-230h-124v675h124z" />
    <glyph glyph-name="Lcaron" unicode="&#x13d;" horiz-adv-x="487" 
d="M473 0h-407v675h124v-567h283v-108zM294 494l46 181h101l-61 -181h-86z" />
    <glyph glyph-name="Lcedilla" unicode="&#xe10f;" horiz-adv-x="487" 
d="M473 0h-407v675h124v-567h283v-108zM280 -121c0 21 -45 23 -72 24l5 61c74 0 151 -20 151 -89c0 -47 -42 -78 -115 -78c-18 0 -53 2 -74 10l4 64c19 -5 44 -9 64 -9s37 3 37 17z" />
    <glyph glyph-name="Lcommaaccent" unicode="&#x13b;" horiz-adv-x="487" 
d="M473 0h-407v675h124v-567h283v-108zM174 -246l43 182h118l-73 -182h-88z" />
    <glyph glyph-name="Ldot" unicode="&#x13f;" horiz-adv-x="487" 
d="M473 0h-407v675h124v-567h283v-108zM401 292h-121v113h121v-113z" />
    <glyph glyph-name="Ldotbelow" unicode="&#x1e36;" horiz-adv-x="487" 
d="M473 0h-407v675h124v-567h283v-108zM336 -188h-121v113h121v-113z" />
    <glyph glyph-name="Ldotbelowmacron" unicode="&#x1e38;" horiz-adv-x="487" 
d="M284 768h-311v90h311v-90zM473 0h-407v675h124v-567h283v-108zM336 -188h-121v113h121v-113z" />
    <glyph glyph-name="Lslash" unicode="&#x141;" horiz-adv-x="497" 
d="M348 366l-148 -85v-173h283v-108h-407v211l-79 -45v106l79 45v358h124v-287l148 85v-107z" />
    <glyph glyph-name="Mdotbelow" unicode="&#x1e42;" horiz-adv-x="817" 
d="M409 125h2c6 35 20 88 26 110l113 440h201v-675h-123l2 437c0 17 3 96 5 120h-2c-7 -32 -24 -102 -30 -120l-119 -437h-151l-118 437c-6 18 -23 89 -30 120h-2c2 -24 5 -103 5 -120l2 -437h-124v675h204l114 -440c6 -22 19 -75 25 -110zM471 -188h-121v113h121v-113z" />
    <glyph glyph-name="Mmacron" unicode="&#xe111;" horiz-adv-x="817" 
d="M566 768h-311v90h311v-90zM409 125h2c6 35 20 88 26 110l113 440h201v-675h-123l2 437c0 17 3 96 5 120h-2c-7 -32 -24 -102 -30 -120l-119 -437h-151l-118 437c-6 18 -23 89 -30 120h-2c2 -24 5 -103 5 -120l2 -437h-124v675h204l114 -440c6 -22 19 -75 25 -110z" />
    <glyph glyph-name="Nacute" unicode="&#x143;" horiz-adv-x="636" 
d="M473 890l-108 -154h-92l74 154h126zM239 675l177 -418c14 -32 29 -73 41 -112h2c-3 40 -5 75 -5 112l-1 418h117v-675h-166l-184 418c-14 32 -29 69 -41 108h-2c3 -40 5 -71 5 -108l1 -418h-117v675h173z" />
    <glyph glyph-name="Ncaron" unicode="&#x147;" horiz-adv-x="636" 
d="M376 736h-105l-99 154h102l52 -85l51 85h99zM239 675l177 -418c14 -32 29 -73 41 -112h2c-3 40 -5 75 -5 112l-1 418h117v-675h-166l-184 418c-14 32 -29 69 -41 108h-2c3 -40 5 -71 5 -108l1 -418h-117v675h173z" />
    <glyph glyph-name="Ncedilla" unicode="&#xe119;" horiz-adv-x="636" 
d="M239 675l177 -418c14 -32 29 -73 41 -112h2c-3 40 -5 75 -5 112l-1 418h117v-675h-166l-184 418c-14 32 -29 69 -41 108h-2c3 -40 5 -71 5 -108l1 -418h-117v675h173zM342 -121c0 21 -45 23 -72 24l5 61c74 0 151 -20 151 -89c0 -47 -42 -78 -115 -78c-18 0 -53 2 -74 10
l4 64c19 -5 44 -9 64 -9s37 3 37 17z" />
    <glyph glyph-name="Ncommaaccent" unicode="&#x145;" horiz-adv-x="636" 
d="M239 675l177 -418c14 -32 29 -73 41 -112h2c-3 40 -5 75 -5 112l-1 418h117v-675h-166l-184 418c-14 32 -29 69 -41 108h-2c3 -40 5 -71 5 -108l1 -418h-117v675h173zM222 -246l43 182h118l-73 -182h-88z" />
    <glyph glyph-name="Ndescender" unicode="&#xe806;" horiz-adv-x="636" 
d="M239 675l177 -418c14 -32 29 -73 41 -112h2c-3 40 -5 75 -5 112l-1 418h117v-624h54v-178h-105v127h-115l-184 418c-14 32 -29 69 -41 108h-2c3 -40 5 -71 5 -108l1 -418h-117v675h173z" />
    <glyph glyph-name="Ndieresis" unicode="&#xe115;" horiz-adv-x="636" 
d="M468 759h-110v108h110v-108zM278 759h-110v108h110v-108zM239 675l177 -418c14 -32 29 -73 41 -112h2c-3 40 -5 75 -5 112l-1 418h117v-675h-166l-184 418c-14 32 -29 69 -41 108h-2c3 -40 5 -71 5 -108l1 -418h-117v675h173z" />
    <glyph glyph-name="Ndotaccent" unicode="&#x1e44;" horiz-adv-x="636" 
d="M378 757h-120v113h120v-113zM239 675l177 -418c14 -32 29 -73 41 -112h2c-3 40 -5 75 -5 112l-1 418h117v-675h-166l-184 418c-14 32 -29 69 -41 108h-2c3 -40 5 -71 5 -108l1 -418h-117v675h173z" />
    <glyph glyph-name="Ndotbelow" unicode="&#x1e46;" horiz-adv-x="636" 
d="M239 675l177 -418c14 -32 29 -73 41 -112h2c-3 40 -5 75 -5 112l-1 418h117v-675h-166l-184 418c-14 32 -29 69 -41 108h-2c3 -40 5 -71 5 -108l1 -418h-117v675h173zM388 -188h-121v113h121v-113z" />
    <glyph glyph-name="Ngrave" unicode="&#x1f8;" horiz-adv-x="636" 
d="M286 736l-107 154h126l74 -154h-93zM239 675l177 -418c14 -32 29 -73 41 -112h2c-3 40 -5 75 -5 112l-1 418h117v-675h-166l-184 418c-14 32 -29 69 -41 108h-2c3 -40 5 -71 5 -108l1 -418h-117v675h173z" />
    <glyph glyph-name="Nmacron" unicode="&#xe117;" horiz-adv-x="636" 
d="M471 768h-311v90h311v-90zM239 675l177 -418c14 -32 29 -73 41 -112h2c-3 40 -5 75 -5 112l-1 418h117v-675h-166l-184 418c-14 32 -29 69 -41 108h-2c3 -40 5 -71 5 -108l1 -418h-117v675h173z" />
    <glyph glyph-name="Obreve" unicode="&#x14e;" horiz-adv-x="620" 
d="M473 883c-19 -82 -72 -140 -163 -140c-92 0 -144 58 -163 140h101c9 -43 28 -61 62 -61c33 0 53 18 62 61h101zM579 337c0 -237 -66 -347 -269 -347s-269 110 -269 347c0 239 66 348 269 348s269 -109 269 -348zM171 338c0 -192 36 -238 139 -238s139 46 139 238
s-36 237 -139 237s-139 -45 -139 -237z" />
    <glyph glyph-name="Ocaron" unicode="&#x1d1;" horiz-adv-x="620" 
d="M362 736h-105l-99 154h102l52 -85l51 85h99zM579 337c0 -237 -66 -347 -269 -347s-269 110 -269 347c0 239 66 348 269 348s269 -109 269 -348zM171 338c0 -192 36 -238 139 -238s139 46 139 238s-36 237 -139 237s-139 -45 -139 -237z" />
    <glyph glyph-name="Ocedilla" unicode="&#xe11f;" horiz-adv-x="620" 
d="M579 337c0 -220 -57 -330 -226 -345c-5 -8 -8 -17 -8 -23s2 -8 6 -12c19 -19 52 -36 52 -78c0 -50 -42 -82 -110 -82c-16 0 -57 3 -79 9l4 70c22 -7 42 -10 62 -10c18 0 36 3 36 20c0 19 -29 29 -43 43c-9 9 -13 17 -13 29c0 10 4 22 11 34c-173 13 -230 124 -230 345
c0 239 66 348 269 348s269 -109 269 -348zM171 338c0 -192 36 -238 139 -238s139 46 139 238s-36 237 -139 237s-139 -45 -139 -237z" />
    <glyph glyph-name="Ocommaturnedabove" unicode="&#xe11b;" horiz-adv-x="620" 
d="M414 908l-45 -185h-118l75 185h88zM579 337c0 -237 -66 -347 -269 -347s-269 110 -269 347c0 239 66 348 269 348s269 -109 269 -348zM171 338c0 -192 36 -238 139 -238s139 46 139 238s-36 237 -139 237s-139 -45 -139 -237z" />
    <glyph glyph-name="Odotabove" unicode="&#x22e;" horiz-adv-x="620" 
d="M366 757h-120v113h120v-113zM579 337c0 -237 -66 -347 -269 -347s-269 110 -269 347c0 239 66 348 269 348s269 -109 269 -348zM171 338c0 -192 36 -238 139 -238s139 46 139 238s-36 237 -139 237s-139 -45 -139 -237z" />
    <glyph glyph-name="Odotabovemacron" unicode="&#x230;" horiz-adv-x="620" 
d="M461 859h-312v80h312v-80zM358 721h-105v104h105v-104zM579 337c0 -237 -66 -347 -269 -347s-269 110 -269 347c0 239 66 348 269 348s269 -109 269 -348zM171 338c0 -192 36 -238 139 -238s139 46 139 238s-36 237 -139 237s-139 -45 -139 -237z" />
    <glyph glyph-name="Odotbelow" unicode="&#x1ecc;" horiz-adv-x="620" 
d="M579 337c0 -237 -66 -347 -269 -347s-269 110 -269 347c0 239 66 348 269 348s269 -109 269 -348zM171 338c0 -192 36 -238 139 -238s139 46 139 238s-36 237 -139 237s-139 -45 -139 -237zM371 -188h-121v113h121v-113z" />
    <glyph glyph-name="Odoublegrave" unicode="&#x20c;" horiz-adv-x="620" 
d="M351 736l-107 154h120l74 -154h-87zM184 736l-107 154h120l74 -154h-87zM579 337c0 -237 -66 -347 -269 -347s-269 110 -269 347c0 239 66 348 269 348s269 -109 269 -348zM171 338c0 -192 36 -238 139 -238s139 46 139 238s-36 237 -139 237s-139 -45 -139 -237z" />
    <glyph glyph-name="Ohungarumlaut" unicode="&#x150;" horiz-adv-x="620" 
d="M543 890l-107 -154h-87l74 154h120zM376 890l-107 -154h-87l74 154h120zM579 337c0 -237 -66 -347 -269 -347s-269 110 -269 347c0 239 66 348 269 348s269 -109 269 -348zM171 338c0 -192 36 -238 139 -238s139 46 139 238s-36 237 -139 237s-139 -45 -139 -237z" />
    <glyph glyph-name="Oinvertedbreve" unicode="&#x20e;" horiz-adv-x="620" 
d="M147 743c19 82 72 140 163 140c92 0 144 -58 163 -140h-101c-9 43 -28 61 -62 61c-33 0 -53 -18 -62 -61h-101zM579 337c0 -237 -66 -347 -269 -347s-269 110 -269 347c0 239 66 348 269 348s269 -109 269 -348zM171 338c0 -192 36 -238 139 -238s139 46 139 238
s-36 237 -139 237s-139 -45 -139 -237z" />
    <glyph glyph-name="Omacron" unicode="&#x14c;" horiz-adv-x="620" 
d="M466 768h-311v90h311v-90zM579 337c0 -237 -66 -347 -269 -347s-269 110 -269 347c0 239 66 348 269 348s269 -109 269 -348zM171 338c0 -192 36 -238 139 -238s139 46 139 238s-36 237 -139 237s-139 -45 -139 -237z" />
    <glyph glyph-name="Oogonek" unicode="&#x1ea;" horiz-adv-x="620" 
d="M394 -120l3 -68c-17 -9 -54 -15 -77 -15c-78 0 -117 44 -117 94c0 39 20 76 51 103c-160 19 -213 129 -213 343c0 239 66 348 269 348s269 -109 269 -348c0 -219 -56 -329 -224 -345c-34 -18 -67 -52 -67 -87c0 -25 17 -38 50 -38c17 0 38 4 56 13zM171 338
c0 -192 36 -238 139 -238s139 46 139 238s-36 237 -139 237s-139 -45 -139 -237z" />
    <glyph glyph-name="Oogonekmacron" unicode="&#x1ec;" horiz-adv-x="620" 
d="M466 768h-311v90h311v-90zM394 -120l3 -68c-17 -9 -54 -15 -77 -15c-78 0 -117 44 -117 94c0 39 20 76 51 103c-160 19 -213 129 -213 343c0 239 66 348 269 348s269 -109 269 -348c0 -219 -56 -329 -224 -345c-34 -18 -67 -52 -67 -87c0 -25 17 -38 50 -38
c17 0 38 4 56 13zM171 338c0 -192 36 -238 139 -238s139 46 139 238s-36 237 -139 237s-139 -45 -139 -237z" />
    <glyph glyph-name="Oslashacute" unicode="&#x1fe;" horiz-adv-x="620" 
d="M465 890l-108 -154h-92l74 154h126zM585 721l-67 -117c44 -57 61 -145 61 -267c0 -237 -66 -347 -269 -347c-53 0 -97 8 -132 23l-34 -59h-108l67 116c-45 57 -62 145 -62 267c0 239 66 348 269 348c54 0 98 -8 134 -24l34 60h107zM171 338c0 -56 3 -100 10 -133l204 355
c-19 11 -44 15 -75 15c-103 0 -139 -45 -139 -237zM449 338c0 54 -3 97 -10 130l-203 -354c19 -11 44 -14 74 -14c103 0 139 46 139 238z" />
    <glyph glyph-name="Otildemacron" unicode="&#x22c;" horiz-adv-x="620" 
d="M467 859h-311v80h311v-80zM470 814l4 -78c-26 -16 -64 -27 -91 -27c-52 0 -97 31 -146 31c-26 0 -57 -14 -81 -28l-6 76c27 17 66 28 93 28c50 0 97 -31 143 -31c27 0 59 14 84 29zM579 337c0 -237 -66 -347 -269 -347s-269 110 -269 347c0 239 66 348 269 348
s269 -109 269 -348zM171 338c0 -192 36 -238 139 -238s139 46 139 238s-36 237 -139 237s-139 -45 -139 -237z" />
    <glyph glyph-name="Ounderlineaccent" unicode="&#xe121;" horiz-adv-x="620" 
d="M579 337c0 -237 -66 -347 -269 -347s-269 110 -269 347c0 239 66 348 269 348s269 -109 269 -348zM171 338c0 -192 36 -238 139 -238s139 46 139 238s-36 237 -139 237s-139 -45 -139 -237zM359 -230h-95v164h95v-164z" />
    <glyph glyph-name="Pmacron" unicode="&#xe123;" horiz-adv-x="521" 
d="M415 768h-311v90h311v-90zM190 0h-124v675h271c124 0 169 -97 169 -216c0 -122 -47 -215 -173 -215h-143v-244zM376 459c0 65 -18 108 -73 108h-113v-215h113c55 0 73 43 73 107z" />
    <glyph glyph-name="Racute" unicode="&#x154;" horiz-adv-x="532" 
d="M414 890l-108 -154h-92l74 154h126zM190 0h-124v675h272c124 0 169 -93 169 -207c0 -99 -35 -178 -122 -201l135 -267h-135l-129 261h-66v-261zM377 468c0 60 -18 100 -73 100h-114v-200h114c55 0 73 41 73 100z" />
    <glyph glyph-name="Rcaron" unicode="&#x158;" horiz-adv-x="532" 
d="M319 736h-105l-99 154h102l52 -85l51 85h99zM190 0h-124v675h272c124 0 169 -93 169 -207c0 -99 -35 -178 -122 -201l135 -267h-135l-129 261h-66v-261zM377 468c0 60 -18 100 -73 100h-114v-200h114c55 0 73 41 73 100z" />
    <glyph glyph-name="Rcedilla" unicode="&#xe127;" horiz-adv-x="532" 
d="M190 0h-124v675h272c124 0 169 -93 169 -207c0 -99 -35 -178 -122 -201l135 -267h-135l-129 261h-66v-261zM377 468c0 60 -18 100 -73 100h-114v-200h114c55 0 73 41 73 100zM302 -121c0 21 -45 23 -72 24l5 61c74 0 151 -20 151 -89c0 -47 -42 -78 -115 -78
c-18 0 -53 2 -74 10l4 64c19 -5 44 -9 64 -9s37 3 37 17z" />
    <glyph glyph-name="Rcommaaccent" unicode="&#x156;" horiz-adv-x="532" 
d="M190 0h-124v675h272c124 0 169 -93 169 -207c0 -99 -35 -178 -122 -201l135 -267h-135l-129 261h-66v-261zM377 468c0 60 -18 100 -73 100h-114v-200h114c55 0 73 41 73 100zM198 -246l43 182h118l-73 -182h-88z" />
    <glyph glyph-name="Rdotbelow" unicode="&#x1e5a;" horiz-adv-x="532" 
d="M190 0h-124v675h272c124 0 169 -93 169 -207c0 -99 -35 -178 -122 -201l135 -267h-135l-129 261h-66v-261zM377 468c0 60 -18 100 -73 100h-114v-200h114c55 0 73 41 73 100zM335 -188h-121v113h121v-113z" />
    <glyph glyph-name="Rdotbelowmacron" unicode="&#x1e5c;" horiz-adv-x="532" 
d="M417 768h-311v90h311v-90zM190 0h-124v675h272c124 0 169 -93 169 -207c0 -99 -35 -178 -122 -201l135 -267h-135l-129 261h-66v-261zM377 468c0 60 -18 100 -73 100h-114v-200h114c55 0 73 41 73 100zM335 -188h-121v113h121v-113z" />
    <glyph glyph-name="Rdoublegrave" unicode="&#xe125;" horiz-adv-x="532" 
d="M305 736l-107 154h120l74 -154h-87zM138 736l-107 154h120l74 -154h-87zM190 0h-124v675h272c124 0 169 -93 169 -207c0 -99 -35 -178 -122 -201l135 -267h-135l-129 261h-66v-261zM377 468c0 60 -18 100 -73 100h-114v-200h114c55 0 73 41 73 100z" />
    <glyph glyph-name="Rinvertedbreve" unicode="&#x212;" horiz-adv-x="532" 
d="M97 743c19 82 72 140 163 140c92 0 144 -58 163 -140h-101c-9 43 -28 61 -62 61c-33 0 -53 -18 -62 -61h-101zM190 0h-124v675h272c124 0 169 -93 169 -207c0 -99 -35 -178 -122 -201l135 -267h-135l-129 261h-66v-261zM377 468c0 60 -18 100 -73 100h-114v-200h114
c55 0 73 41 73 100z" />
    <glyph glyph-name="Sacute" unicode="&#x15a;" horiz-adv-x="479" 
d="M400 890l-108 -154h-92l74 154h126zM453 174c0 -132 -112 -184 -236 -184c-49 0 -143 5 -177 10l5 112c54 -7 127 -9 165 -9c54 0 113 7 113 68c0 36 -19 52 -44 69l-148 104c-57 40 -103 90 -103 170c0 131 96 171 225 171c46 0 111 -3 158 -10l-5 -110
c-42 5 -113 9 -150 9c-56 0 -100 -4 -100 -57c0 -38 20 -51 55 -75l144 -100c52 -36 98 -77 98 -168z" />
    <glyph glyph-name="Scedilla" unicode="&#x15e;" horiz-adv-x="479" 
d="M453 174c0 -112 -81 -167 -181 -180c-5 -9 -9 -18 -9 -25c0 -6 2 -8 6 -12c19 -19 52 -36 52 -78c0 -50 -42 -82 -110 -82c-16 0 -57 3 -79 9l4 70c22 -7 42 -10 62 -10c18 0 36 3 36 20c0 19 -29 29 -43 43c-9 9 -13 17 -13 29c0 10 4 21 10 32c-51 2 -120 6 -148 10
l5 112c54 -7 127 -9 165 -9c54 0 113 7 113 68c0 36 -19 52 -44 69l-148 104c-57 40 -103 90 -103 170c0 131 96 171 225 171c46 0 111 -3 158 -10l-5 -110c-42 5 -113 9 -150 9c-56 0 -100 -4 -100 -57c0 -38 20 -51 55 -75l144 -100c52 -36 98 -77 98 -168z" />
    <glyph glyph-name="Schwa" unicode="&#x18f;" horiz-adv-x="587" 
d="M239 685c217 0 307 -106 307 -344c0 -235 -74 -351 -272 -351c-187 0 -243 119 -243 287c0 34 0 61 2 90h384c-2 153 -52 208 -194 208c-48 0 -113 -10 -162 -20l-5 110c59 14 136 20 183 20zM280 100c93 0 126 55 134 163h-261c4 -92 17 -163 127 -163z" />
    <glyph glyph-name="Scircumflex" unicode="&#x15c;" horiz-adv-x="479" 
d="M187 890h104l100 -154h-102l-52 85l-51 -85h-99zM453 174c0 -132 -112 -184 -236 -184c-49 0 -143 5 -177 10l5 112c54 -7 127 -9 165 -9c54 0 113 7 113 68c0 36 -19 52 -44 69l-148 104c-57 40 -103 90 -103 170c0 131 96 171 225 171c46 0 111 -3 158 -10l-5 -110
c-42 5 -113 9 -150 9c-56 0 -100 -4 -100 -57c0 -38 20 -51 55 -75l144 -100c52 -36 98 -77 98 -168z" />
    <glyph glyph-name="Scommaaccent" unicode="&#x218;" horiz-adv-x="479" 
d="M453 174c0 -132 -112 -184 -236 -184c-49 0 -143 5 -177 10l5 112c54 -7 127 -9 165 -9c54 0 113 7 113 68c0 36 -19 52 -44 69l-148 104c-57 40 -103 90 -103 170c0 131 96 171 225 171c46 0 111 -3 158 -10l-5 -110c-42 5 -113 9 -150 9c-56 0 -100 -4 -100 -57
c0 -38 20 -51 55 -75l144 -100c52 -36 98 -77 98 -168zM132 -246l43 182h118l-73 -182h-88z" />
    <glyph glyph-name="Sdotbelow" unicode="&#x1e62;" horiz-adv-x="479" 
d="M453 174c0 -132 -112 -184 -236 -184c-49 0 -143 5 -177 10l5 112c54 -7 127 -9 165 -9c54 0 113 7 113 68c0 36 -19 52 -44 69l-148 104c-57 40 -103 90 -103 170c0 131 96 171 225 171c46 0 111 -3 158 -10l-5 -110c-42 5 -113 9 -150 9c-56 0 -100 -4 -100 -57
c0 -38 20 -51 55 -75l144 -100c52 -36 98 -77 98 -168zM302 -188h-121v113h121v-113z" />
    <glyph glyph-name="Tbar" unicode="&#x166;" horiz-adv-x="471" 
d="M464 567h-167v-165h139v-108h-139v-294h-123v294h-147v108h147v165h-167v108h457v-108z" />
    <glyph glyph-name="Tcaron" unicode="&#x164;" horiz-adv-x="471" 
d="M280 736h-105l-99 154h102l52 -85l51 85h99zM464 567h-167v-567h-123v567h-167v108h457v-108z" />
    <glyph glyph-name="Tcedilla" unicode="&#xe129;" horiz-adv-x="471" 
d="M464 567h-167v-567h-123v567h-167v108h457v-108zM242 -121c0 21 -45 23 -72 24l5 61c74 0 151 -20 151 -89c0 -47 -42 -78 -115 -78c-18 0 -53 2 -74 10l4 64c19 -5 44 -9 64 -9s37 3 37 17z" />
    <glyph glyph-name="Tcommaaccent" unicode="&#x162;" horiz-adv-x="471" 
d="M464 567h-167v-567h-123v567h-167v108h457v-108zM129 -246l43 182h118l-73 -182h-88z" />
    <glyph glyph-name="Tdotbelow" unicode="&#x1e6c;" horiz-adv-x="471" 
d="M464 567h-167v-567h-123v567h-167v108h457v-108zM291 -188h-121v113h121v-113z" />
    <glyph glyph-name="UE" unicode="&#xe859;" horiz-adv-x="888" 
d="M856 0h-421v23h-2c-38 -22 -88 -33 -125 -33c-96 0 -247 46 -247 213v472h122v-479c0 -69 67 -99 125 -99c59 0 127 30 127 99v479h416v-108h-292v-165h210v-108h-210v-186h297v-108z" />
    <glyph glyph-name="Ubreve" unicode="&#x16c;" horiz-adv-x="617" 
d="M473 883c-19 -82 -72 -140 -163 -140c-92 0 -144 58 -163 140h101c9 -43 28 -61 62 -61c33 0 53 18 62 61h101zM308 -10c-96 0 -247 46 -247 213v472h122v-479c0 -69 67 -99 125 -99c59 0 127 30 127 99v479h121v-472c0 -167 -152 -213 -248 -213z" />
    <glyph glyph-name="Ucaron" unicode="&#x1d3;" horiz-adv-x="617" 
d="M363 736h-105l-99 154h102l52 -85l51 85h99zM308 -10c-96 0 -247 46 -247 213v472h122v-479c0 -69 67 -99 125 -99c59 0 127 30 127 99v479h121v-472c0 -167 -152 -213 -248 -213z" />
    <glyph glyph-name="Udotbelow" unicode="&#x1ee4;" horiz-adv-x="617" 
d="M308 -10c-96 0 -247 46 -247 213v472h122v-479c0 -69 67 -99 125 -99c59 0 127 30 127 99v479h121v-472c0 -167 -152 -213 -248 -213zM369 -188h-121v113h121v-113z" />
    <glyph glyph-name="Udoublegrave" unicode="&#x214;" horiz-adv-x="617" 
d="M351 736l-107 154h120l74 -154h-87zM184 736l-107 154h120l74 -154h-87zM308 -10c-96 0 -247 46 -247 213v472h122v-479c0 -69 67 -99 125 -99c59 0 127 30 127 99v479h121v-472c0 -167 -152 -213 -248 -213z" />
    <glyph glyph-name="Uhungarumlaut" unicode="&#x170;" horiz-adv-x="617" 
d="M542 890l-107 -154h-87l74 154h120zM375 890l-107 -154h-87l74 154h120zM308 -10c-96 0 -247 46 -247 213v472h122v-479c0 -69 67 -99 125 -99c59 0 127 30 127 99v479h121v-472c0 -167 -152 -213 -248 -213z" />
    <glyph glyph-name="Uinvertedbreve" unicode="&#x216;" horiz-adv-x="617" 
d="M147 743c19 82 72 140 163 140c92 0 144 -58 163 -140h-101c-9 43 -28 61 -62 61c-33 0 -53 -18 -62 -61h-101zM308 -10c-96 0 -247 46 -247 213v472h122v-479c0 -69 67 -99 125 -99c59 0 127 30 127 99v479h121v-472c0 -167 -152 -213 -248 -213z" />
    <glyph glyph-name="Umacron" unicode="&#x16a;" horiz-adv-x="617" 
d="M466 768h-311v90h311v-90zM308 -10c-96 0 -247 46 -247 213v472h122v-479c0 -69 67 -99 125 -99c59 0 127 30 127 99v479h121v-472c0 -167 -152 -213 -248 -213z" />
    <glyph glyph-name="Umacronbelow" unicode="&#xe12b;" horiz-adv-x="617" 
d="M308 -10c-96 0 -247 46 -247 213v472h122v-479c0 -69 67 -99 125 -99c59 0 127 30 127 99v479h121v-472c0 -167 -152 -213 -248 -213zM464 -199h-311v90h311v-90z" />
    <glyph glyph-name="Uogonek" unicode="&#x172;" horiz-adv-x="617" 
d="M404 -120l3 -68c-17 -9 -54 -15 -77 -15c-78 0 -117 44 -117 94c0 39 20 76 51 102c-92 12 -203 67 -203 210v472h122v-479c0 -69 67 -99 125 -99c59 0 127 30 127 99v479h121v-472c0 -132 -95 -188 -182 -206c-36 -17 -76 -53 -76 -92c0 -25 17 -38 50 -38
c17 0 38 4 56 13z" />
    <glyph glyph-name="Uring" unicode="&#x16e;" horiz-adv-x="617" 
d="M402 813c0 -51 -41 -90 -92 -90c-50 0 -92 39 -92 90s42 91 92 91c51 0 92 -40 92 -91zM342 813c0 18 -14 32 -32 32c-17 0 -31 -14 -31 -32c0 -17 14 -32 31 -32c18 0 32 15 32 32zM308 -10c-96 0 -247 46 -247 213v472h122v-479c0 -69 67 -99 125 -99
c59 0 127 30 127 99v479h121v-472c0 -167 -152 -213 -248 -213z" />
    <glyph glyph-name="Utilde" unicode="&#x168;" horiz-adv-x="617" 
d="M466 870l4 -90c-26 -16 -64 -27 -91 -27c-52 0 -97 31 -146 31c-26 0 -57 -14 -81 -28l-6 88c27 17 66 28 93 28c50 0 97 -31 143 -31c27 0 59 14 84 29zM308 -10c-96 0 -247 46 -247 213v472h122v-479c0 -69 67 -99 125 -99c59 0 127 30 127 99v479h121v-472
c0 -167 -152 -213 -248 -213z" />
    <glyph glyph-name="Wacute" unicode="&#x1e82;" horiz-adv-x="915" 
d="M617 890l-108 -154h-92l74 154h126zM538 675l99 -436c5 -22 12 -85 15 -116h2c2 31 8 94 13 116l94 436h126l-158 -675h-155l-103 446c-5 23 -11 64 -14 94h-2c-3 -30 -10 -72 -15 -95l-99 -445h-155l-158 675h131l94 -433c5 -25 12 -86 14 -116h2c2 30 8 91 14 116
l98 433h157z" />
    <glyph glyph-name="Wcircumflex" unicode="&#x174;" horiz-adv-x="915" 
d="M404 890h104l100 -154h-102l-52 85l-51 -85h-99zM538 675l99 -436c5 -22 12 -85 15 -116h2c2 31 8 94 13 116l94 436h126l-158 -675h-155l-103 446c-5 23 -11 64 -14 94h-2c-3 -30 -10 -72 -15 -95l-99 -445h-155l-158 675h131l94 -433c5 -25 12 -86 14 -116h2
c2 30 8 91 14 116l98 433h157z" />
    <glyph glyph-name="Wdieresis" unicode="&#x1e84;" horiz-adv-x="915" 
d="M606 759h-110v108h110v-108zM416 759h-110v108h110v-108zM538 675l99 -436c5 -22 12 -85 15 -116h2c2 31 8 94 13 116l94 436h126l-158 -675h-155l-103 446c-5 23 -11 64 -14 94h-2c-3 -30 -10 -72 -15 -95l-99 -445h-155l-158 675h131l94 -433c5 -25 12 -86 14 -116h2
c2 30 8 91 14 116l98 433h157z" />
    <glyph glyph-name="Wgrave" unicode="&#x1e80;" horiz-adv-x="915" 
d="M411 736l-107 154h126l74 -154h-93zM538 675l99 -436c5 -22 12 -85 15 -116h2c2 31 8 94 13 116l94 436h126l-158 -675h-155l-103 446c-5 23 -11 64 -14 94h-2c-3 -30 -10 -72 -15 -95l-99 -445h-155l-158 675h131l94 -433c5 -25 12 -86 14 -116h2c2 30 8 91 14 116
l98 433h157z" />
    <glyph glyph-name="Ycircumflex" unicode="&#x176;" horiz-adv-x="546" 
d="M224 890h104l100 -154h-102l-52 85l-51 -85h-99zM335 264v-264h-124v264l-205 411h138l109 -233c7 -14 15 -33 21 -48h2c6 15 14 34 21 48l109 233h134z" />
    <glyph glyph-name="Ygrave" unicode="&#x1ef2;" horiz-adv-x="546" 
d="M236 736l-107 154h126l74 -154h-93zM335 264v-264h-124v264l-205 411h138l109 -233c7 -14 15 -33 21 -48h2c6 15 14 34 21 48l109 233h134z" />
    <glyph glyph-name="Ymacron" unicode="&#x232;" horiz-adv-x="546" 
d="M431 768h-311v90h311v-90zM335 264v-264h-124v264l-205 411h138l109 -233c7 -14 15 -33 21 -48h2c6 15 14 34 21 48l109 233h134z" />
    <glyph glyph-name="Yogh" unicode="&#x1b7;" horiz-adv-x="513" 
d="M486 108c0 -175 -113 -273 -294 -273c-56 0 -142 7 -184 17l7 113c48 -9 110 -17 160 -17c89 0 183 33 183 158c0 109 -72 142 -187 142c-23 0 -45 -1 -67 -2l-9 94l194 226l-1 2c-24 -1 -38 -1 -53 -1h-215v108h438v-98l-188 -220v-2c128 -12 216 -107 216 -247z" />
    <glyph glyph-name="Yoghcaron" unicode="&#xe886;" horiz-adv-x="513" 
d="M292 736h-105l-99 154h102l52 -85l51 85h99zM486 108c0 -175 -113 -273 -294 -273c-56 0 -142 6 -184 17l7 113c48 -9 110 -17 160 -17c89 0 183 33 183 158c0 109 -72 142 -187 142c-23 0 -45 -1 -67 -2l-9 94l194 226l-1 2c-24 -1 -38 -1 -53 -1h-215v108h438v-98
l-188 -220v-2c128 -12 216 -107 216 -247z" />
    <glyph glyph-name="Ytilde" unicode="&#x1ef8;" horiz-adv-x="546" 
d="M433 870l4 -90c-26 -16 -64 -27 -91 -27c-52 0 -97 31 -146 31c-26 0 -57 -14 -81 -28l-6 88c27 17 66 28 93 28c50 0 97 -31 143 -31c27 0 59 14 84 29zM335 264v-264h-124v264l-205 411h138l109 -233c7 -14 15 -33 21 -48h2c6 15 14 34 21 48l109 233h134z" />
    <glyph glyph-name="Zacute" unicode="&#x179;" horiz-adv-x="495" 
d="M404 890l-108 -154h-92l74 154h126zM23 0v98l293 468l-1 2c-24 -1 -38 -1 -53 -1h-228v108h438v-98l-292 -468l1 -2c24 1 39 1 54 1h237v-108h-449z" />
    <glyph glyph-name="Zdotaccent" unicode="&#x17b;" horiz-adv-x="495" 
d="M322 757h-120v113h120v-113zM23 0v98l293 468l-1 2c-24 -1 -38 -1 -53 -1h-228v108h438v-98l-292 -468l1 -2c24 1 39 1 54 1h237v-108h-449z" />
    <glyph glyph-name="a.school" unicode="&#xe151;" horiz-adv-x="497" 
d="M31 245c0 125 34 244 191 244c40 0 83 -11 123 -31l5 22h91v-480h-89l-8 32h-1c-31 -23 -83 -42 -134 -42c-134 0 -178 98 -178 255zM153 235c0 -105 29 -141 79 -141c42 0 68 13 91 30v235c-21 18 -54 28 -87 28c-80 0 -83 -81 -83 -152z" />
    <glyph glyph-name="a.small" unicode="&#xf761;" horiz-adv-x="495" 
d="M353 0l-25 91h-166l-25 -91h-123l153 500h157l157 -500h-128zM228 328l-38 -137h110l-38 137c-5 19 -13 52 -16 75h-2c-3 -23 -11 -56 -16 -75z" />
    <glyph glyph-name="a.superior" unicode="&#xe361;" horiz-adv-x="276" 
d="M158 452v19c0 19 -9 23 -29 23c-16 0 -54 -3 -93 -12l-3 75c35 8 75 12 100 12c63 0 115 -20 115 -80v-219h-65l-5 16h-1c-14 -13 -44 -21 -73 -21c-52 0 -93 31 -93 93c0 23 6 46 24 64c25 25 78 30 123 30zM159 346v47h-10c-18 0 -32 -1 -41 -10c-5 -5 -6 -14 -6 -19
c0 -20 8 -29 26 -29c10 0 23 5 31 11z" />
    <glyph glyph-name="aacute.school" unicode="&#xe153;" horiz-adv-x="497" 
d="M383 695l-108 -154h-92l74 154h126zM31 245c0 125 34 244 191 244c40 0 83 -11 123 -31l5 22h91v-480h-89l-8 32h-1c-31 -23 -83 -42 -134 -42c-134 0 -178 98 -178 255zM153 235c0 -105 29 -141 79 -141c42 0 68 13 91 30v235c-21 18 -54 28 -87 28
c-80 0 -83 -81 -83 -152z" />
    <glyph glyph-name="aacute.small" unicode="&#xf7e1;" horiz-adv-x="495" 
d="M402 715l-108 -154h-92l74 154h126zM353 0l-25 91h-166l-25 -91h-123l153 500h157l157 -500h-128zM228 328l-38 -137h110l-38 137c-5 19 -13 52 -16 75h-2c-3 -23 -11 -56 -16 -75z" />
    <glyph glyph-name="abreve" unicode="&#x103;" horiz-adv-x="438" 
d="M379 688c-19 -82 -72 -140 -163 -140c-92 0 -144 58 -163 140h101c9 -43 28 -61 62 -61c33 0 53 18 62 61h101zM392 0h-89l-7 29h-1c-31 -23 -82 -38 -125 -38c-82 0 -150 46 -150 146c0 44 13 80 40 107c45 45 136 49 215 49v52c0 36 -28 42 -70 42
c-35 0 -90 -6 -145 -18l-5 102c55 14 122 19 160 19c95 0 177 -29 177 -127v-363zM275 116v91h-12c-39 0 -90 -4 -108 -22c-10 -10 -15 -21 -15 -39c0 -40 23 -55 58 -55c25 0 57 11 77 25z" />
    <glyph glyph-name="abreve.school" unicode="&#xe15a;" horiz-adv-x="497" 
d="M415 688c-19 -82 -72 -140 -163 -140c-92 0 -144 58 -163 140h101c9 -43 28 -61 62 -61c33 0 53 18 62 61h101zM31 245c0 125 34 244 191 244c40 0 83 -11 123 -31l5 22h91v-480h-89l-8 32h-1c-31 -23 -83 -42 -134 -42c-134 0 -178 98 -178 255zM153 235
c0 -105 29 -141 79 -141c42 0 68 13 91 30v235c-21 18 -54 28 -87 28c-80 0 -83 -81 -83 -152z" />
    <glyph glyph-name="abreve.small" unicode="&#xf640;" horiz-adv-x="495" 
d="M408 708c-19 -82 -72 -140 -163 -140c-92 0 -144 58 -163 140h101c9 -43 28 -61 62 -61c33 0 53 18 62 61h101zM353 0l-25 91h-166l-25 -91h-123l153 500h157l157 -500h-128zM228 328l-38 -137h110l-38 137c-5 19 -13 52 -16 75h-2c-3 -23 -11 -56 -16 -75z" />
    <glyph glyph-name="acaron" unicode="&#x1ce;" horiz-adv-x="438" 
d="M267 541h-105l-99 154h102l52 -85l51 85h99zM391 0h-89l-7 29h-1c-31 -23 -82 -38 -125 -38c-82 0 -150 46 -150 146c0 44 13 80 40 107c45 45 136 49 215 49v52c0 36 -28 42 -70 42c-35 0 -90 -6 -145 -18l-5 102c55 14 122 19 160 19c95 0 177 -29 177 -127v-363z
M274 116v91h-12c-39 0 -90 -4 -108 -22c-10 -10 -15 -21 -15 -39c0 -40 23 -55 58 -55c25 0 57 11 77 25z" />
    <glyph glyph-name="acaron.school" unicode="&#xe158;" horiz-adv-x="497" 
d="M300 541h-105l-99 154h102l52 -85l51 85h99zM31 245c0 125 34 244 191 244c40 0 83 -11 123 -31l5 22h91v-480h-89l-8 32h-1c-31 -23 -83 -42 -134 -42c-134 0 -178 98 -178 255zM153 235c0 -105 29 -141 79 -141c42 0 68 13 91 30v235c-21 18 -54 28 -87 28
c-80 0 -83 -81 -83 -152z" />
    <glyph glyph-name="acaron.small" unicode="&#xe715;" horiz-adv-x="495" 
d="M295 561h-105l-99 154h102l52 -85l51 85h99zM353 0l-25 91h-166l-25 -91h-123l153 500h157l157 -500h-128zM228 328l-38 -137h110l-38 137c-5 19 -13 52 -16 75h-2c-3 -23 -11 -56 -16 -75z" />
    <glyph glyph-name="acircumflex.school" unicode="&#xe154;" horiz-adv-x="497" 
d="M207 695h104l100 -154h-102l-52 85l-51 -85h-99zM31 245c0 125 34 244 191 244c40 0 83 -11 123 -31l5 22h91v-480h-89l-8 32h-1c-31 -23 -83 -42 -134 -42c-134 0 -178 98 -178 255zM153 235c0 -105 29 -141 79 -141c42 0 68 13 91 30v235c-21 18 -54 28 -87 28
c-80 0 -83 -81 -83 -152z" />
    <glyph glyph-name="acircumflex.small" unicode="&#xf7e2;" horiz-adv-x="495" 
d="M194 715h104l100 -154h-102l-52 85l-51 -85h-99zM353 0l-25 91h-166l-25 -91h-123l153 500h157l157 -500h-128zM228 328l-38 -137h110l-38 137c-5 19 -13 52 -16 75h-2c-3 -23 -11 -56 -16 -75z" />
    <glyph glyph-name="acute.cap" unicode="&#xe422;" 
d="M363 890l-108 -154h-92l74 154h126z" />
    <glyph glyph-name="adieresis.school" unicode="&#xe155;" horiz-adv-x="497" 
d="M408 564h-110v108h110v-108zM218 564h-110v108h110v-108zM31 245c0 125 34 244 191 244c40 0 83 -11 123 -31l5 22h91v-480h-89l-8 32h-1c-31 -23 -83 -42 -134 -42c-134 0 -178 98 -178 255zM153 235c0 -105 29 -141 79 -141c42 0 68 13 91 30v235c-21 18 -54 28 -87 28
c-80 0 -83 -81 -83 -152z" />
    <glyph glyph-name="adieresis.small" unicode="&#xf7e4;" horiz-adv-x="495" 
d="M395 584h-110v108h110v-108zM205 584h-110v108h110v-108zM353 0l-25 91h-166l-25 -91h-123l153 500h157l157 -500h-128zM228 328l-38 -137h110l-38 137c-5 19 -13 52 -16 75h-2c-3 -23 -11 -56 -16 -75z" />
    <glyph glyph-name="adieresismacron" unicode="&#x1df;" horiz-adv-x="438" 
d="M373 664h-311v80h311v-80zM352 525h-103v96h103v-96zM184 525h-104v96h104v-96zM391 0h-89l-7 29h-1c-31 -23 -82 -38 -125 -38c-82 0 -150 46 -150 146c0 44 13 80 40 107c45 45 136 49 215 49v52c0 36 -28 42 -70 42c-35 0 -90 -6 -145 -18l-5 102c55 14 122 19 160 19
c95 0 177 -29 177 -127v-363zM274 116v91h-12c-39 0 -90 -4 -108 -22c-10 -10 -15 -21 -15 -39c0 -40 23 -55 58 -55c25 0 57 11 77 25z" />
    <glyph glyph-name="adieresismacron.school" unicode="&#xe15f;" horiz-adv-x="497" 
d="M414 664h-311v80h311v-80zM393 525h-103v96h103v-96zM225 525h-104v96h104v-96zM31 245c0 125 34 244 191 244c40 0 83 -11 123 -31l5 22h91v-480h-89l-8 32h-1c-31 -23 -83 -42 -134 -42c-134 0 -178 98 -178 255zM153 235c0 -105 29 -141 79 -141c42 0 68 13 91 30v235
c-21 18 -54 28 -87 28c-80 0 -83 -81 -83 -152z" />
    <glyph glyph-name="adieresismacron.small" unicode="&#xe719;" horiz-adv-x="495" 
d="M399 684h-311v80h311v-80zM378 545h-103v96h103v-96zM210 545h-104v96h104v-96zM353 0l-25 91h-166l-25 -91h-123l153 500h157l157 -500h-128zM228 328l-38 -137h110l-38 137c-5 19 -13 52 -16 75h-2c-3 -23 -11 -56 -16 -75z" />
    <glyph glyph-name="adotabove" unicode="&#x227;" horiz-adv-x="438" 
d="M284 562h-120v113h120v-113zM391 0h-89l-7 29h-1c-31 -23 -82 -38 -125 -38c-82 0 -150 46 -150 146c0 44 13 80 40 107c45 45 136 49 215 49v52c0 36 -28 42 -70 42c-35 0 -90 -6 -145 -18l-5 102c55 14 122 19 160 19c95 0 177 -29 177 -127v-363zM274 116v91h-12
c-39 0 -90 -4 -108 -22c-10 -10 -15 -21 -15 -39c0 -40 23 -55 58 -55c25 0 57 11 77 25z" />
    <glyph glyph-name="adotabove.school" unicode="&#xe15d;" horiz-adv-x="497" 
d="M307 562h-120v113h120v-113zM31 245c0 125 34 244 191 244c40 0 83 -11 123 -31l5 22h91v-480h-89l-8 32h-1c-31 -23 -83 -42 -134 -42c-134 0 -178 98 -178 255zM153 235c0 -105 29 -141 79 -141c42 0 68 13 91 30v235c-21 18 -54 28 -87 28c-80 0 -83 -81 -83 -152z
" />
    <glyph glyph-name="adotabove.small" unicode="&#xe721;" horiz-adv-x="495" 
d="M305 582h-120v113h120v-113zM353 0l-25 91h-166l-25 -91h-123l153 500h157l157 -500h-128zM228 328l-38 -137h110l-38 137c-5 19 -13 52 -16 75h-2c-3 -23 -11 -56 -16 -75z" />
    <glyph glyph-name="adoublegrave" unicode="&#xe722;" horiz-adv-x="438" 
d="M261 541l-107 154h120l74 -154h-87zM94 541l-107 154h120l74 -154h-87zM391 0h-89l-7 29h-1c-31 -23 -82 -38 -125 -38c-82 0 -150 46 -150 146c0 44 13 80 40 107c45 45 136 49 215 49v52c0 36 -28 42 -70 42c-35 0 -90 -6 -145 -18l-5 102c55 14 122 19 160 19
c95 0 177 -29 177 -127v-363zM274 116v91h-12c-39 0 -90 -4 -108 -22c-10 -10 -15 -21 -15 -39c0 -40 23 -55 58 -55c25 0 57 11 77 25z" />
    <glyph glyph-name="adoublegrave.school" unicode="&#xe15c;" horiz-adv-x="497" 
d="M299 541l-107 154h120l74 -154h-87zM132 541l-107 154h120l74 -154h-87zM31 245c0 125 34 244 191 244c40 0 83 -11 123 -31l5 22h91v-480h-89l-8 32h-1c-31 -23 -83 -42 -134 -42c-134 0 -178 98 -178 255zM153 235c0 -105 29 -141 79 -141c42 0 68 13 91 30v235
c-21 18 -54 28 -87 28c-80 0 -83 -81 -83 -152z" />
    <glyph glyph-name="adoublegrave.small" unicode="&#xe724;" horiz-adv-x="495" 
d="M288 561l-107 154h120l74 -154h-87zM121 561l-107 154h120l74 -154h-87zM353 0l-25 91h-166l-25 -91h-123l153 500h157l157 -500h-128zM228 328l-38 -137h110l-38 137c-5 19 -13 52 -16 75h-2c-3 -23 -11 -56 -16 -75z" />
    <glyph glyph-name="ae.small" unicode="&#xf7e6;" horiz-adv-x="682" 
d="M250 500h410v-106h-225v-84h164v-104h-164v-100h228v-106h-348v91h-149l-44 -91h-131zM282 328l-67 -137h100v212h-1c-8 -23 -23 -56 -32 -75z" />
    <glyph glyph-name="aeacute" unicode="&#x1fd;" horiz-adv-x="691" 
d="M336 41c-54 -40 -116 -50 -158 -50c-91 0 -159 46 -159 146c0 44 13 80 40 107c47 47 136 49 215 49v52c0 36 -28 42 -70 42c-35 0 -90 -6 -145 -18l-5 102c55 14 122 19 160 19c53 0 102 -7 135 -38h2c32 28 74 39 131 39c139 0 178 -87 178 -209v-66h-264
c0 -92 28 -122 114 -122c38 0 93 8 128 16l5 -101c-43 -13 -107 -18 -144 -18c-75 0 -125 16 -161 50h-2zM497 695l-108 -154h-92l74 154h126zM286 125c-7 24 -11 51 -12 82h-13c-39 0 -89 -4 -107 -22c-9 -9 -15 -21 -15 -39c0 -40 23 -55 58 -55c32 0 67 14 89 34z
M548 302c-1 49 -11 94 -68 94c-55 0 -76 -31 -80 -94h148z" />
    <glyph glyph-name="aeacute.small" unicode="&#xf624;" horiz-adv-x="682" 
d="M557 715l-108 -154h-92l74 154h126zM250 500h410v-106h-225v-84h164v-104h-164v-100h228v-106h-348v91h-149l-44 -91h-131zM282 328l-67 -137h100v212h-1c-8 -23 -23 -56 -32 -75z" />
    <glyph glyph-name="aemacron" unicode="&#x1e3;" horiz-adv-x="691" 
d="M336 41c-54 -40 -116 -50 -158 -50c-91 0 -159 46 -159 146c0 44 13 80 40 107c47 47 136 49 215 49v52c0 36 -28 42 -70 42c-35 0 -90 -6 -145 -18l-5 102c55 14 122 19 160 19c53 0 102 -7 135 -38h2c32 28 74 39 131 39c139 0 178 -87 178 -209v-66h-264
c0 -92 28 -122 114 -122c38 0 93 8 128 16l5 -101c-43 -13 -107 -18 -144 -18c-75 0 -125 16 -161 50h-2zM485 573h-311v90h311v-90zM286 125c-7 24 -11 51 -12 82h-13c-39 0 -89 -4 -107 -22c-9 -9 -15 -21 -15 -39c0 -40 23 -55 58 -55c32 0 67 14 89 34zM548 302
c-1 49 -11 94 -68 94c-55 0 -76 -31 -80 -94h148z" />
    <glyph glyph-name="aemacron.small" unicode="&#xe725;" horiz-adv-x="682" 
d="M606 594h-311v90h311v-90zM250 500h410v-106h-225v-84h164v-104h-164v-100h228v-106h-348v91h-149l-44 -91h-131zM282 328l-67 -137h100v212h-1c-8 -23 -23 -56 -32 -75z" />
    <glyph glyph-name="afii61289" unicode="&#x2113;" horiz-adv-x="364" 
d="M73 114v48l-32 -11l-2 103c14 6 25 11 34 17v237c0 126 49 177 137 177c90 0 126 -62 126 -132c0 -115 -60 -236 -145 -315v-106c0 -27 9 -42 34 -42c23 0 47 5 71 14l4 -97c-28 -12 -74 -16 -97 -16c-104 0 -130 60 -130 123zM187 526v-141c29 59 40 119 40 160
c0 27 -9 40 -19 40c-15 0 -21 -24 -21 -59z" />
    <glyph glyph-name="agrave.school" unicode="&#xe152;" horiz-adv-x="497" 
d="M194 541l-107 154h126l74 -154h-93zM31 245c0 125 34 244 191 244c40 0 83 -11 123 -31l5 22h91v-480h-89l-8 32h-1c-31 -23 -83 -42 -134 -42c-134 0 -178 98 -178 255zM153 235c0 -105 29 -141 79 -141c42 0 68 13 91 30v235c-21 18 -54 28 -87 28
c-80 0 -83 -81 -83 -152z" />
    <glyph glyph-name="agrave.small" unicode="&#xf7e0;" horiz-adv-x="495" 
d="M198 561l-107 154h126l74 -154h-93zM353 0l-25 91h-166l-25 -91h-123l153 500h157l157 -500h-128zM228 328l-38 -137h110l-38 137c-5 19 -13 52 -16 75h-2c-3 -23 -11 -56 -16 -75z" />
    <glyph glyph-name="ainvertedbreve" unicode="&#x203;" horiz-adv-x="438" 
d="M55 548c19 82 72 140 163 140c92 0 144 -58 163 -140h-101c-9 43 -28 61 -62 61c-33 0 -53 -18 -62 -61h-101zM391 0h-89l-7 29h-1c-31 -23 -82 -38 -125 -38c-82 0 -150 46 -150 146c0 44 13 80 40 107c45 45 136 49 215 49v52c0 36 -28 42 -70 42
c-35 0 -90 -6 -145 -18l-5 102c55 14 122 19 160 19c95 0 177 -29 177 -127v-363zM274 116v91h-12c-39 0 -90 -4 -108 -22c-10 -10 -15 -21 -15 -39c0 -40 23 -55 58 -55c25 0 57 11 77 25z" />
    <glyph glyph-name="ainvertedbreve.school" unicode="&#xe15b;" horiz-adv-x="497" 
d="M87 548c19 82 72 140 163 140c92 0 144 -58 163 -140h-101c-9 43 -28 61 -62 61c-33 0 -53 -18 -62 -61h-101zM31 245c0 125 34 244 191 244c40 0 83 -11 123 -31l5 22h91v-480h-89l-8 32h-1c-31 -23 -83 -42 -134 -42c-134 0 -178 98 -178 255zM153 235
c0 -105 29 -141 79 -141c42 0 68 13 91 30v235c-21 18 -54 28 -87 28c-80 0 -83 -81 -83 -152z" />
    <glyph glyph-name="ainvertedbreve.small" unicode="&#xe728;" horiz-adv-x="495" 
d="M82 568c19 82 72 140 163 140c92 0 144 -58 163 -140h-101c-9 43 -28 61 -62 61c-33 0 -53 -18 -62 -61h-101zM353 0l-25 91h-166l-25 -91h-123l153 500h157l157 -500h-128zM228 328l-38 -137h110l-38 137c-5 19 -13 52 -16 75h-2c-3 -23 -11 -56 -16 -75z" />
    <glyph glyph-name="altcedilla" unicode="&#xe416;" 
d="M273 -121c0 21 -45 23 -72 24l5 61c74 0 151 -20 151 -89c0 -47 -42 -78 -115 -78c-18 0 -53 2 -74 10l4 64c19 -5 44 -9 64 -9s37 3 37 17z" />
    <glyph glyph-name="amacron" unicode="&#x101;" horiz-adv-x="438" 
d="M370 573h-311v90h311v-90zM391 0h-89l-7 29h-1c-31 -23 -82 -38 -125 -38c-82 0 -150 46 -150 146c0 44 13 80 40 107c45 45 136 49 215 49v52c0 36 -28 42 -70 42c-35 0 -90 -6 -145 -18l-5 102c55 14 122 19 160 19c95 0 177 -29 177 -127v-363zM274 116v91h-12
c-39 0 -90 -4 -108 -22c-10 -10 -15 -21 -15 -39c0 -40 23 -55 58 -55c25 0 57 11 77 25z" />
    <glyph glyph-name="amacron.school" unicode="&#xe159;" horiz-adv-x="497" 
d="M405 573h-311v90h311v-90zM31 245c0 125 34 244 191 244c40 0 83 -11 123 -31l5 22h91v-480h-89l-8 32h-1c-31 -23 -83 -42 -134 -42c-134 0 -178 98 -178 255zM153 235c0 -105 29 -141 79 -141c42 0 68 13 91 30v235c-21 18 -54 28 -87 28c-80 0 -83 -81 -83 -152z" />
    <glyph glyph-name="amacron.small" unicode="&#xf641;" horiz-adv-x="495" 
d="M401 593h-311v90h311v-90zM353 0l-25 91h-166l-25 -91h-123l153 500h157l157 -500h-128zM228 328l-38 -137h110l-38 137c-5 19 -13 52 -16 75h-2c-3 -23 -11 -56 -16 -75z" />
    <glyph glyph-name="anocross.small" unicode="&#xe732;" horiz-adv-x="479" 
d="M128 0h-123l166 500h137l166 -500h-127l-90 285c-9 27 -16 73 -20 102h-2c-4 -28 -12 -75 -21 -103z" />
    <glyph glyph-name="aogonek" unicode="&#x105;" horiz-adv-x="438" 
d="M413 -120l3 -68c-17 -9 -54 -15 -77 -15c-78 0 -117 44 -117 94s33 95 77 121l-4 17h-1c-31 -23 -82 -38 -125 -38c-82 0 -150 46 -150 146c0 44 13 80 40 107c45 45 136 49 215 49v52c0 36 -28 42 -70 42c-35 0 -90 -6 -145 -18l-5 102c55 14 122 19 160 19
c95 0 177 -29 177 -127v-363c-38 -15 -84 -54 -84 -95c0 -25 17 -38 50 -38c17 0 38 4 56 13zM274 116v91h-12c-39 0 -90 -4 -108 -22c-10 -10 -15 -21 -15 -39c0 -40 23 -55 58 -55c25 0 57 11 77 25z" />
    <glyph glyph-name="aogonek.school" unicode="&#xe150;" horiz-adv-x="497" 
d="M463 -120l3 -68c-17 -9 -54 -15 -77 -15c-78 0 -117 44 -117 94s33 95 77 121l-5 20h-1c-31 -23 -83 -42 -134 -42c-134 0 -178 98 -178 255c0 125 34 244 191 244c40 0 83 -11 123 -31l5 22h91v-480c-38 -15 -84 -54 -84 -95c0 -25 17 -38 50 -38c17 0 38 4 56 13z
M153 235c0 -105 29 -141 79 -141c42 0 68 13 91 30v235c-21 18 -54 28 -87 28c-80 0 -83 -81 -83 -152z" />
    <glyph glyph-name="aogonek.small" unicode="&#xf642;" horiz-adv-x="495" 
d="M353 0l-25 91h-166l-25 -91h-123l153 500h157l157 -500c-38 -15 -84 -54 -84 -95c0 -25 17 -38 50 -38c17 0 38 4 56 13l3 -68c-17 -9 -54 -15 -77 -15c-78 0 -117 44 -117 94c0 43 24 82 59 109h-18zM228 328l-38 -137h110l-38 137c-5 19 -13 52 -16 75h-2
c-3 -23 -11 -56 -16 -75z" />
    <glyph glyph-name="approxequal" unicode="&#x2248;" horiz-adv-x="585" 
d="M531 325c-38 -16 -116 -25 -149 -25c-62 0 -129 20 -191 20c-40 0 -80 -9 -131 -32l-6 107c43 21 103 28 140 28c69 0 134 -22 202 -22c34 0 84 10 129 31zM531 138c-38 -16 -116 -25 -149 -25c-62 0 -129 20 -191 20c-40 0 -80 -9 -131 -32l-6 107c43 21 103 28 140 28
c69 0 134 -22 202 -22c34 0 84 10 129 31z" />
    <glyph glyph-name="aring.school" unicode="&#xe157;" horiz-adv-x="497" 
d="M352 618c0 -51 -41 -90 -92 -90c-50 0 -92 39 -92 90s42 91 92 91c51 0 92 -40 92 -91zM292 618c0 18 -14 32 -32 32c-17 0 -31 -14 -31 -32c0 -17 14 -32 31 -32c18 0 32 15 32 32zM31 245c0 125 34 244 191 244c40 0 83 -11 123 -31l5 22h91v-480h-89l-8 32h-1
c-31 -23 -83 -42 -134 -42c-134 0 -178 98 -178 255zM153 235c0 -105 29 -141 79 -141c42 0 68 13 91 30v235c-21 18 -54 28 -87 28c-80 0 -83 -81 -83 -152z" />
    <glyph glyph-name="aring.small" unicode="&#xf7e5;" horiz-adv-x="495" 
d="M337 638c0 -51 -41 -90 -92 -90c-50 0 -92 39 -92 90s42 91 92 91c51 0 92 -40 92 -91zM277 638c0 18 -14 32 -32 32c-17 0 -31 -14 -31 -32c0 -17 14 -32 31 -32c18 0 32 15 32 32zM353 0l-25 91h-166l-25 -91h-123l153 500h157l157 -500h-128zM228 328l-38 -137h110
l-38 137c-5 19 -13 52 -16 75h-2c-3 -23 -11 -56 -16 -75z" />
    <glyph glyph-name="aringacute" unicode="&#x1fb;" horiz-adv-x="438" 
d="M153 656l65 103h63l-44 -70c42 -6 74 -42 74 -85c0 -48 -39 -85 -87 -85c-47 0 -86 37 -86 85c0 17 6 37 15 52zM256 604c0 18 -14 32 -32 32c-17 0 -31 -14 -31 -32c0 -17 14 -32 31 -32c18 0 32 15 32 32zM391 0h-89l-7 29h-1c-31 -23 -82 -38 -125 -38
c-82 0 -150 46 -150 146c0 44 13 80 40 107c45 45 136 49 215 49v52c0 36 -28 42 -70 42c-35 0 -90 -6 -145 -18l-5 102c55 14 122 19 160 19c95 0 177 -29 177 -127v-363zM274 116v91h-12c-39 0 -90 -4 -108 -22c-10 -10 -15 -21 -15 -39c0 -40 23 -55 58 -55
c25 0 57 11 77 25z" />
    <glyph glyph-name="aringacute.school" unicode="&#xe15e;" horiz-adv-x="497" 
d="M182 661l65 103h63l-44 -70c42 -6 74 -42 74 -85c0 -48 -39 -85 -87 -85c-47 0 -86 37 -86 85c0 17 6 37 15 52zM285 609c0 18 -14 32 -32 32c-17 0 -31 -14 -31 -32c0 -17 14 -32 31 -32c18 0 32 15 32 32zM31 245c0 125 34 244 191 244c40 0 83 -11 123 -31l5 22h91
v-480h-89l-8 32h-1c-31 -23 -83 -42 -134 -42c-134 0 -178 98 -178 255zM153 235c0 -105 29 -141 79 -141c42 0 68 13 91 30v235c-21 18 -54 28 -87 28c-80 0 -83 -81 -83 -152z" />
    <glyph glyph-name="aringacute.small" unicode="&#xf625;" horiz-adv-x="495" 
d="M174 676l65 103h63l-44 -70c42 -6 74 -42 74 -85c0 -48 -39 -85 -87 -85c-47 0 -86 37 -86 85c0 17 6 37 15 52zM277 624c0 18 -14 32 -32 32c-17 0 -31 -14 -31 -32c0 -17 14 -32 31 -32c18 0 32 15 32 32zM353 0l-25 91h-166l-25 -91h-123l153 500h157l157 -500h-128z
M228 328l-38 -137h110l-38 137c-5 19 -13 52 -16 75h-2c-3 -23 -11 -56 -16 -75z" />
    <glyph glyph-name="arrowdown" unicode="&#x2193;" horiz-adv-x="982" 
d="M500 17h-18l-255 255v139l208 -207h2v455h108v-455h2l208 208v-140z" />
    <glyph glyph-name="arrowleft" unicode="&#x2190;" horiz-adv-x="982" 
d="M150 339v18l255 255h140l-208 -208v-2h496v-108h-496v-2l207 -208h-139z" />
    <glyph glyph-name="arrowright" unicode="&#x2192;" horiz-adv-x="982" 
d="M833 357v-18l-255 -255h-139l207 208v2h-496v108h496v2l-208 208h140z" />
    <glyph glyph-name="arrowup" unicode="&#x2191;" horiz-adv-x="982" 
d="M482 659h18l255 -255v-140l-208 208h-2v-455h-108v455h-2l-208 -207v139z" />
    <glyph glyph-name="at.cap" unicode="&#xe513;" horiz-adv-x="775" 
d="M743 345c0 -96 -47 -198 -162 -198c-73 0 -110 33 -124 77h-2c-25 -41 -75 -79 -130 -79c-80 0 -123 57 -123 137c0 134 83 244 231 244c55 0 97 -20 145 -45l-42 -178c-2 -8 -3 -16 -3 -23c0 -32 18 -57 52 -57c50 0 67 74 67 116c0 195 -91 261 -253 261
c-164 0 -265 -76 -265 -263c0 -191 98 -262 255 -262c49 0 133 13 177 35l14 -86c-56 -25 -133 -33 -191 -33c-230 0 -348 115 -348 346s134 347 358 347c226 0 344 -113 344 -339zM453 368l18 67c-15 7 -26 12 -49 12c-87 0 -123 -86 -123 -155c0 -40 5 -64 42 -64
c54 0 91 61 112 140z" />
    <glyph glyph-name="atilde.school" unicode="&#xe156;" horiz-adv-x="497" 
d="M414 676l4 -90c-26 -16 -64 -27 -91 -27c-52 0 -97 31 -146 31c-26 0 -57 -14 -81 -28l-6 88c27 17 66 28 93 28c50 0 97 -31 143 -31c27 0 59 14 84 29zM31 245c0 125 34 244 191 244c40 0 83 -11 123 -31l5 22h91v-480h-89l-8 32h-1c-31 -23 -83 -42 -134 -42
c-134 0 -178 98 -178 255zM153 235c0 -105 29 -141 79 -141c42 0 68 13 91 30v235c-21 18 -54 28 -87 28c-80 0 -83 -81 -83 -152z" />
    <glyph glyph-name="atilde.small" unicode="&#xf7e3;" horiz-adv-x="495" 
d="M403 696l4 -90c-26 -16 -64 -27 -91 -27c-52 0 -97 31 -146 31c-26 0 -57 -14 -81 -28l-6 88c27 17 66 28 93 28c50 0 97 -31 143 -31c27 0 59 14 84 29zM353 0l-25 91h-166l-25 -91h-123l153 500h157l157 -500h-128zM228 328l-38 -137h110l-38 137c-5 19 -13 52 -16 75
h-2c-3 -23 -11 -56 -16 -75z" />
    <glyph glyph-name="b.small" unicode="&#xf762;" horiz-adv-x="449" 
d="M267 0h-216v500h218c104 0 140 -55 140 -129c0 -50 -14 -86 -49 -107v-2c40 -17 64 -68 64 -122c0 -85 -48 -140 -157 -140zM292 356c0 27 -10 48 -45 48h-77v-99h72c35 0 50 20 50 51zM307 155c0 34 -18 56 -64 56h-73v-116h81c45 0 56 24 56 60z" />
    <glyph glyph-name="b.superior" unicode="&#xe362;" horiz-adv-x="314" 
d="M180 264c-26 0 -53 7 -75 20l-5 -14h-66v423h93v-137h1c14 9 37 13 61 13c84 0 107 -67 107 -152c0 -92 -29 -153 -116 -153zM202 418c0 57 -12 75 -35 75c-15 0 -32 -4 -41 -13v-128c10 -10 24 -15 39 -15c28 0 37 22 37 81z" />
    <glyph glyph-name="barredO" unicode="&#xe738;" horiz-adv-x="620" 
d="M579 337c0 -237 -66 -347 -269 -347s-269 110 -269 347c0 239 66 348 269 348s269 -109 269 -348zM310 575c-93 0 -131 -36 -138 -182h276c-7 146 -46 182 -138 182zM310 100c93 0 131 37 138 186h-276c6 -149 45 -186 138 -186z" />
    <glyph glyph-name="barredo" unicode="&#xe737;" horiz-adv-x="494" 
d="M463 240c0 -170 -66 -250 -216 -250c-149 0 -216 81 -216 251s66 249 216 249c149 0 216 -79 216 -250zM247 387c-54 0 -86 -19 -93 -104h185c-7 85 -38 104 -92 104zM247 94c55 0 86 19 92 107h-185c7 -88 38 -107 93 -107z" />
    <glyph glyph-name="barredo.small" unicode="&#xe739;" horiz-adv-x="507" 
d="M474 250c0 -178 -60 -260 -220 -260c-162 0 -221 82 -221 260s59 260 221 260c160 0 220 -82 220 -260zM254 404c-60 0 -87 -19 -94 -102h188c-8 83 -36 102 -94 102zM254 96c58 0 87 18 94 102h-188c7 -84 34 -102 94 -102z" />
    <glyph glyph-name="blackcircle" unicode="&#x25cf;" horiz-adv-x="982" 
d="M840 337c0 -192 -155 -349 -347 -349s-349 157 -349 349s157 349 349 349s347 -157 347 -349z" />
    <glyph glyph-name="blacksmallsquare" unicode="&#x25aa;" horiz-adv-x="982" 
d="M730 0h-477v480h477v-480z" />
    <glyph glyph-name="blacksquare" unicode="&#xe740;" horiz-adv-x="982" 
d="M830 0h-678v675h678v-675z" />
    <glyph glyph-name="braceleft.cap" unicode="&#xe495;" horiz-adv-x="327" 
d="M304 -122h-111c-81 0 -96 29 -93 95l9 240c3 75 -54 95 -112 114v40c58 20 115 39 112 114l-9 221c-3 66 12 95 93 95h111v-107h-69c-16 0 -17 -5 -16 -21l10 -201c2 -46 0 -88 -44 -121v-1c44 -33 46 -74 44 -120l-10 -219c-1 -14 0 -21 16 -21h69v-108z" />
    <glyph glyph-name="braceright.cap" unicode="&#xe496;" horiz-adv-x="327" 
d="M134 -122h-111v108h69c16 0 17 7 16 21l-10 219c-2 46 0 87 44 120v1c-44 33 -46 75 -44 121l10 201c1 16 0 21 -16 21h-69v107h111c81 0 96 -29 93 -95l-9 -221c-3 -75 54 -94 112 -114v-40c-58 -19 -115 -39 -112 -114l9 -240c3 -66 -12 -95 -93 -95z" />
    <glyph glyph-name="bracketleft.cap" unicode="&#xe493;" horiz-adv-x="307" 
d="M283 -122h-212v919h212v-108h-92v-703h92v-108z" />
    <glyph glyph-name="bracketright.cap" unicode="&#xe494;" horiz-adv-x="307" 
d="M236 -122h-212v108h92v703h-92v108h212v-919z" />
    <glyph glyph-name="breve" unicode="&#x2d8;" 
d="M426 688c-19 -82 -72 -140 -163 -140c-92 0 -144 58 -163 140h101c9 -43 28 -61 62 -61c33 0 53 18 62 61h101z" />
    <glyph glyph-name="breve.cap" unicode="&#xe426;" 
d="M426 883c-19 -82 -72 -140 -163 -140c-92 0 -144 58 -163 140h101c9 -43 28 -61 62 -61c33 0 53 18 62 61h101z" />
    <glyph glyph-name="c.small" unicode="&#xf763;" horiz-adv-x="424" 
d="M33 251c0 178 63 259 236 259c36 0 87 -4 129 -11l-4 -105c-41 6 -85 10 -115 10c-87 0 -119 -28 -119 -153c0 -126 34 -154 119 -154c32 0 76 4 122 10l5 -106c-43 -8 -98 -11 -136 -11c-174 0 -237 82 -237 261z" />
    <glyph glyph-name="c.superior" unicode="&#xe363;" horiz-adv-x="255" 
d="M19 418c0 100 37 151 146 151c21 0 54 -3 75 -8l-4 -74c-20 3 -47 6 -66 6c-40 0 -55 -13 -55 -75c0 -63 17 -78 56 -78c16 0 45 2 68 6l3 -74c-20 -4 -55 -8 -76 -8c-109 0 -147 52 -147 154z" />
    <glyph glyph-name="cacute" unicode="&#x107;" horiz-adv-x="401" 
d="M391 695l-108 -154h-92l74 154h126zM153 242c0 -125 31 -149 113 -149c33 0 72 4 110 10l4 -101c-41 -8 -89 -12 -126 -12c-144 0 -223 65 -223 252c0 183 79 248 217 248c37 0 86 -4 127 -13l-5 -101c-38 6 -74 11 -107 11c-77 0 -110 -21 -110 -145z" />
    <glyph glyph-name="cacute.small" unicode="&#xf643;" horiz-adv-x="424" 
d="M398 715l-108 -154h-92l74 154h126zM33 251c0 178 63 259 236 259c36 0 87 -4 129 -11l-4 -105c-41 6 -85 10 -115 10c-87 0 -119 -28 -119 -153c0 -126 34 -154 119 -154c32 0 76 4 122 10l5 -106c-43 -8 -98 -11 -136 -11c-174 0 -237 82 -237 261z" />
    <glyph glyph-name="caron" unicode="&#x2c7;" 
d="M315 541h-105l-99 154h102l52 -85l51 85h99z" />
    <glyph glyph-name="caron.cap" unicode="&#xe42d;" 
d="M315 736h-105l-99 154h102l52 -85l51 85h99z" />
    <glyph glyph-name="caronSlovak" unicode="&#xe413;" 
d="M189 533l46 181h101l-61 -181h-86z" />
    <glyph glyph-name="ccaron" unicode="&#x10d;" horiz-adv-x="401" 
d="M289 541h-105l-99 154h102l52 -85l51 85h99zM153 242c0 -125 31 -149 113 -149c33 0 72 4 110 10l4 -101c-41 -8 -89 -12 -126 -12c-144 0 -223 65 -223 252c0 183 79 248 217 248c37 0 86 -4 127 -13l-5 -101c-38 6 -74 11 -107 11c-77 0 -110 -21 -110 -145z" />
    <glyph glyph-name="ccaron.small" unicode="&#xf644;" horiz-adv-x="424" 
d="M294 561h-105l-99 154h102l52 -85l51 85h99zM33 251c0 178 63 259 236 259c36 0 87 -4 129 -11l-4 -105c-41 6 -85 10 -115 10c-87 0 -119 -28 -119 -153c0 -126 34 -154 119 -154c32 0 76 4 122 10l5 -106c-43 -8 -98 -11 -136 -11c-174 0 -237 82 -237 261z" />
    <glyph glyph-name="ccedilla.small" unicode="&#xf7e7;" horiz-adv-x="424" 
d="M33 251c0 178 63 259 236 259c36 0 87 -4 129 -11l-4 -105c-41 6 -85 10 -115 10c-87 0 -119 -28 -119 -153c0 -126 34 -154 119 -154c32 0 76 4 122 10l5 -106c-32 -6 -71 -9 -105 -10c-4 -8 -7 -16 -7 -22s2 -8 6 -12c19 -19 52 -36 52 -78c0 -50 -42 -82 -110 -82
c-16 0 -57 3 -79 9l4 70c22 -7 42 -10 62 -10c18 0 36 3 36 20c0 19 -29 29 -43 43c-9 9 -13 17 -13 29c0 10 4 23 11 35c-136 14 -187 97 -187 258z" />
    <glyph glyph-name="ccircumflex" unicode="&#x109;" horiz-adv-x="401" 
d="M187 695h104l100 -154h-102l-52 85l-51 -85h-99zM153 242c0 -125 31 -149 113 -149c33 0 72 4 110 10l4 -101c-41 -8 -89 -12 -126 -12c-144 0 -223 65 -223 252c0 183 79 248 217 248c37 0 86 -4 127 -13l-5 -101c-38 6 -74 11 -107 11c-77 0 -110 -21 -110 -145z" />
    <glyph glyph-name="ccircumflex.small" unicode="&#xf628;" horiz-adv-x="424" 
d="M193 715h104l100 -154h-102l-52 85l-51 -85h-99zM33 251c0 178 63 259 236 259c36 0 87 -4 129 -11l-4 -105c-41 6 -85 10 -115 10c-87 0 -119 -28 -119 -153c0 -126 34 -154 119 -154c32 0 76 4 122 10l5 -106c-43 -8 -98 -11 -136 -11c-174 0 -237 82 -237 261z" />
    <glyph glyph-name="cdotaccent" unicode="&#x10b;" horiz-adv-x="401" 
d="M296 562h-120v113h120v-113zM153 242c0 -125 31 -149 113 -149c33 0 72 4 110 10l4 -101c-41 -8 -89 -12 -126 -12c-144 0 -223 65 -223 252c0 183 79 248 217 248c37 0 86 -4 127 -13l-5 -101c-38 6 -74 11 -107 11c-77 0 -110 -21 -110 -145z" />
    <glyph glyph-name="cdotaccent.small" unicode="&#xf629;" horiz-adv-x="424" 
d="M312 582h-120v113h120v-113zM33 251c0 178 63 259 236 259c36 0 87 -4 129 -11l-4 -105c-41 6 -85 10 -115 10c-87 0 -119 -28 -119 -153c0 -126 34 -154 119 -154c32 0 76 4 122 10l5 -106c-43 -8 -98 -11 -136 -11c-174 0 -237 82 -237 261z" />
    <glyph glyph-name="centoldstyle" unicode="&#xf7a2;" horiz-adv-x="468" 
d="M59 251c0 159 50 240 184 256v130h84v-128c31 -1 66 -5 97 -10l-4 -105c-41 6 -85 10 -115 10c-87 0 -119 -28 -119 -153c0 -126 34 -154 119 -154c32 0 76 4 122 10l5 -106c-33 -6 -72 -9 -105 -10v-129h-84v131c-134 16 -184 98 -184 258z" />
    <glyph glyph-name="circumflex.cap" unicode="&#xe423;" 
d="M211 890h104l100 -154h-102l-52 85l-51 -85h-99z" />
    <glyph glyph-name="commaabovecmb" unicode="&#x313;" 
d="M344 714l-45 -190h-118l75 190h88z" />
    <glyph glyph-name="commaaccent" unicode="&#xe414;" 
d="M182 -246l43 182h118l-73 -182h-88z" />
    <glyph glyph-name="commaaccent" unicode="&#xf6c3;" 
d="M182 -246l43 182h118l-73 -182h-88z" />
    <glyph glyph-name="cordinal" unicode="&#xe181;" horiz-adv-x="299" 
d="M288 316c-29 -6 -74 -9 -100 -9c-119 0 -171 58 -171 184c0 125 51 189 167 189c23 0 70 -3 104 -9l-5 -89c-33 6 -66 9 -83 9c-46 0 -79 -14 -79 -100c0 -85 32 -95 73 -95c23 0 53 1 90 8z" />
    <glyph glyph-name="cordinal.small" unicode="&#xe743;" horiz-adv-x="303" 
d="M295 687l-7 -88c-34 6 -69 10 -90 10c-50 0 -78 -13 -78 -107s28 -106 80 -106c21 0 59 3 87 9l8 -88c-32 -6 -69 -10 -104 -10c-123 0 -174 70 -174 194c0 125 52 196 174 196c32 0 67 -3 104 -10z" />
    <glyph glyph-name="d.small" unicode="&#xf764;" horiz-adv-x="492" 
d="M51 0v500h218c65 0 106 -18 132 -44c40 -40 58 -104 58 -207c0 -104 -17 -168 -58 -209c-24 -24 -69 -40 -133 -40h-217zM334 249c0 68 -7 113 -25 131c-19 19 -45 22 -76 22h-62v-304h62c31 0 59 2 76 19c20 20 25 62 25 132z" />
    <glyph glyph-name="d.superior" unicode="&#xe364;" horiz-adv-x="314" 
d="M19 422c0 97 40 146 126 146c13 0 32 -1 45 -3v128h91v-423h-67l-5 19h-1c-22 -18 -54 -25 -82 -25c-85 0 -107 68 -107 158zM114 418c0 -64 12 -78 36 -78c17 0 31 6 40 13v137c-9 3 -22 5 -31 5c-33 0 -45 -22 -45 -77z" />
    <glyph glyph-name="dcaron.small" unicode="&#xf645;" horiz-adv-x="492" 
d="M284 561h-105l-99 154h102l52 -85l51 85h99zM51 0v500h218c65 0 106 -18 132 -44c40 -40 58 -104 58 -207c0 -104 -17 -168 -58 -209c-24 -24 -69 -40 -133 -40h-217zM334 249c0 68 -7 113 -25 131c-19 19 -45 22 -76 22h-62v-304h62c31 0 59 2 76 19c20 20 25 62 25 132
z" />
    <glyph glyph-name="dcedilla" unicode="&#x1e11;" horiz-adv-x="497" 
d="M441 0h-89l-8 32h-1c-31 -23 -83 -42 -134 -42c-134 0 -178 98 -178 255c0 168 63 245 201 245c33 0 57 -4 91 -13v228h118v-705zM323 125v249c-26 10 -49 15 -78 15c-59 0 -92 -23 -92 -148c0 -119 29 -147 78 -147c40 0 71 14 92 31zM273 -121c0 21 -45 23 -72 24l5 61
c74 0 151 -20 151 -89c0 -47 -42 -78 -115 -78c-18 0 -53 2 -74 10l4 64c19 -5 44 -9 64 -9s37 3 37 17z" />
    <glyph glyph-name="dcedilla.small" unicode="&#xe747;" horiz-adv-x="492" 
d="M51 0v500h218c65 0 106 -18 132 -44c40 -40 58 -104 58 -207c0 -104 -17 -168 -58 -209c-24 -24 -69 -40 -133 -40h-217zM334 249c0 68 -7 113 -25 131c-19 19 -45 22 -76 22h-62v-304h62c31 0 59 2 76 19c20 20 25 62 25 132zM245 -121c0 21 -45 23 -72 24l5 61
c74 0 151 -20 151 -89c0 -47 -42 -78 -115 -78c-18 0 -53 2 -74 10l4 64c19 -5 44 -9 64 -9s37 3 37 17z" />
    <glyph glyph-name="dcroat" unicode="&#x111;" horiz-adv-x="497" 
d="M441 0h-89l-8 32h-1c-31 -23 -83 -42 -134 -42c-134 0 -178 98 -178 255c0 168 63 245 201 245c33 0 57 -4 91 -13v80h-161v82h161v66h118v-66h72v-82h-72v-557zM323 125v249c-26 10 -49 15 -78 15c-59 0 -92 -23 -92 -148c0 -119 29 -147 78 -147c40 0 71 14 92 31z" />
    <glyph glyph-name="dcroat.small" unicode="&#xf646;" horiz-adv-x="525" 
d="M84 0v206h-84v104h84v190h218c65 0 106 -18 132 -44c40 -40 58 -104 58 -207c0 -104 -17 -168 -58 -209c-24 -24 -69 -40 -133 -40h-217zM367 249c0 68 -7 113 -25 131c-19 19 -45 22 -76 22h-62v-92h100v-104h-100v-108h62c31 0 59 2 76 19c20 20 25 62 25 132z" />
    <glyph glyph-name="ddotbelow" unicode="&#x1e0d;" horiz-adv-x="497" 
d="M441 0h-89l-8 32h-1c-31 -23 -83 -42 -134 -42c-134 0 -178 98 -178 255c0 168 63 245 201 245c33 0 57 -4 91 -13v228h118v-705zM323 125v249c-26 10 -49 15 -78 15c-59 0 -92 -23 -92 -148c0 -119 29 -147 78 -147c40 0 71 14 92 31zM316 -188h-121v113h121v-113z" />
    <glyph glyph-name="ddotbelow.small" unicode="&#xe748;" horiz-adv-x="492" 
d="M51 0v500h218c65 0 106 -18 132 -44c40 -40 58 -104 58 -207c0 -104 -17 -168 -58 -209c-24 -24 -69 -40 -133 -40h-217zM334 249c0 68 -7 113 -25 131c-19 19 -45 22 -76 22h-62v-304h62c31 0 59 2 76 19c20 20 25 62 25 132zM290 -188h-121v113h121v-113z" />
    <glyph glyph-name="dieresis.cap" unicode="&#xe429;" 
d="M413 760h-110v108h110v-108zM223 760h-110v108h110v-108z" />
    <glyph glyph-name="divide.cap" unicode="&#xe594;" horiz-adv-x="566" 
d="M343 443h-120v120h120v-120zM521 297h-476v102h476v-102zM343 133h-120v120h120v-120z" />
    <glyph glyph-name="dollaroldstyle" unicode="&#xf724;" horiz-adv-x="434" 
d="M262 -138h-84v128c-38 1 -91 4 -123 8l4 108c52 -6 110 -8 136 -8c53 0 78 8 78 35c0 15 -9 26 -27 36l-130 76c-48 28 -69 81 -69 128c0 89 53 124 131 134v130h84v-127c32 -1 72 -4 102 -7l-5 -107c-36 5 -88 8 -118 8c-43 0 -73 -4 -73 -32c0 -15 7 -24 36 -41
l121 -71c41 -24 68 -61 68 -122c0 -90 -59 -131 -131 -143v-133z" />
    <glyph glyph-name="dotaccent" unicode="&#x2d9;" 
d="M323 562h-120v113h120v-113z" />
    <glyph glyph-name="dotaccent.cap" unicode="&#xe428;" 
d="M323 757h-120v113h120v-113z" />
    <glyph glyph-name="dotlessI" unicode="&#xe755;" horiz-adv-x="257" 
d="M190 0h-124v675h124v-675z" />
    <glyph glyph-name="dotlessJ" unicode="&#xe757;" horiz-adv-x="351" 
d="M-9 0l5 113c36 -6 93 -9 108 -9c54 0 61 15 61 60v511h125v-536c0 -100 -59 -149 -167 -149c-30 0 -80 2 -132 10z" />
    <glyph glyph-name="dotlessi" unicode="&#x131;" horiz-adv-x="228" 
d="M173 0h-118v480h118v-480z" />
    <glyph glyph-name="dotlessi.small" unicode="&#xe756;" horiz-adv-x="223" 
d="M171 0h-120v500h120v-500z" />
    <glyph glyph-name="dotlessj" unicode="&#x237;" horiz-adv-x="230" 
d="M-88 -207l5 106c31 -5 63 -7 82 -7c50 0 57 18 57 60v528h118v-546c0 -98 -45 -149 -160 -149c-30 0 -66 2 -102 8z" />
    <glyph glyph-name="dotlessj.small" unicode="&#xe758;" horiz-adv-x="301" 
d="M254 500v-395c0 -79 -55 -115 -142 -115c-28 0 -77 2 -117 8l4 104c31 -4 73 -7 87 -7c36 0 48 7 48 36v369h120z" />
    <glyph glyph-name="doublebar" unicode="&#x2016;" horiz-adv-x="365" 
d="M289 -155h-77v910h77v-910zM153 -155h-77v910h77v-910z" />
    <glyph glyph-name="doublegrave" unicode="&#xe412;" 
d="M356 541l-107 154h120l74 -154h-87zM189 541l-107 154h120l74 -154h-87z" />
    <glyph glyph-name="doublegrave.cap" unicode="&#xe42c;" 
d="M356 736l-107 154h120l74 -154h-87zM189 736l-107 154h120l74 -154h-87z" />
    <glyph glyph-name="e.small" unicode="&#xf765;" horiz-adv-x="418" 
d="M399 0h-348v500h345v-106h-225v-84h164v-104h-164v-100h228v-106z" />
    <glyph glyph-name="e.superior" unicode="&#xe365;" horiz-adv-x="283" 
d="M165 264c-109 0 -146 54 -146 148c0 100 32 157 132 157c87 0 114 -58 114 -131v-43h-151c0 -36 7 -56 65 -56c21 0 53 5 71 10l3 -74c-23 -7 -67 -11 -88 -11zM114 455h68v7c0 22 -5 44 -31 44c-30 0 -36 -21 -37 -51z" />
    <glyph glyph-name="eacute.small" unicode="&#xf7e9;" horiz-adv-x="418" 
d="M383 715l-108 -154h-92l74 154h126zM399 0h-348v500h345v-106h-225v-84h164v-104h-164v-100h228v-106z" />
    <glyph glyph-name="eacutedotbelow" unicode="&#xe760;" horiz-adv-x="449" 
d="M390 695l-108 -154h-92l74 154h126zM257 -10c-162 0 -226 77 -226 247c0 169 56 253 209 253c139 0 178 -87 178 -209v-66h-264c0 -92 28 -122 114 -122c38 0 93 8 128 16l5 -101c-43 -13 -107 -18 -144 -18zM306 301c-1 49 -11 94 -68 94c-55 0 -76 -31 -80 -94h148z
M299 -188h-121v113h121v-113z" />
    <glyph glyph-name="eacutedotbelow.small" unicode="&#xe762;" horiz-adv-x="418" 
d="M383 715l-108 -154h-92l74 154h126zM399 0h-348v500h345v-106h-225v-84h164v-104h-164v-100h228v-106zM283 -188h-121v113h121v-113z" />
    <glyph glyph-name="ebreve" unicode="&#x115;" horiz-adv-x="449" 
d="M399 688c-19 -82 -72 -140 -163 -140c-92 0 -144 58 -163 140h101c9 -43 28 -61 62 -61c33 0 53 18 62 61h101zM257 -10c-162 0 -226 77 -226 247c0 169 56 253 209 253c139 0 178 -87 178 -209v-66h-264c0 -92 28 -122 114 -122c38 0 93 8 128 16l5 -101
c-43 -13 -107 -18 -144 -18zM306 301c-1 49 -11 94 -68 94c-55 0 -76 -31 -80 -94h148z" />
    <glyph glyph-name="ebreve.small" unicode="&#xf62a;" horiz-adv-x="418" 
d="M385 708c-19 -82 -72 -140 -163 -140c-92 0 -144 58 -163 140h101c9 -43 28 -61 62 -61c33 0 53 18 62 61h101zM399 0h-348v500h345v-106h-225v-84h164v-104h-164v-100h228v-106z" />
    <glyph glyph-name="ecaron" unicode="&#x11b;" horiz-adv-x="449" 
d="M289 541h-105l-99 154h102l52 -85l51 85h99zM257 -10c-162 0 -226 77 -226 247c0 169 56 253 209 253c139 0 178 -87 178 -209v-66h-264c0 -92 28 -122 114 -122c38 0 93 8 128 16l5 -101c-43 -13 -107 -18 -144 -18zM306 301c-1 49 -11 94 -68 94c-55 0 -76 -31 -80 -94
h148z" />
    <glyph glyph-name="ecaron.small" unicode="&#xf647;" horiz-adv-x="418" 
d="M274 561h-105l-99 154h102l52 -85l51 85h99zM399 0h-348v500h345v-106h-225v-84h164v-104h-164v-100h228v-106z" />
    <glyph glyph-name="ecircumflex.small" unicode="&#xf7ea;" horiz-adv-x="418" 
d="M172 715h104l100 -154h-102l-52 85l-51 -85h-99zM399 0h-348v500h345v-106h-225v-84h164v-104h-164v-100h228v-106z" />
    <glyph glyph-name="edieresis.small" unicode="&#xf7eb;" horiz-adv-x="418" 
d="M372 564h-110v108h110v-108zM182 564h-110v108h110v-108zM399 0h-348v500h345v-106h-225v-84h164v-104h-164v-100h228v-106z" />
    <glyph glyph-name="edotaccent" unicode="&#x117;" horiz-adv-x="449" 
d="M300 562h-120v113h120v-113zM257 -10c-162 0 -226 77 -226 247c0 169 56 253 209 253c139 0 178 -87 178 -209v-66h-264c0 -92 28 -122 114 -122c38 0 93 8 128 16l5 -101c-43 -13 -107 -18 -144 -18zM306 301c-1 49 -11 94 -68 94c-55 0 -76 -31 -80 -94h148z" />
    <glyph glyph-name="edotaccent.small" unicode="&#xf648;" horiz-adv-x="418" 
d="M282 582h-120v113h120v-113zM399 0h-348v500h345v-106h-225v-84h164v-104h-164v-100h228v-106z" />
    <glyph glyph-name="edoublegrave" unicode="&#x201;" horiz-adv-x="449" 
d="M281 541l-107 154h120l74 -154h-87zM114 541l-107 154h120l74 -154h-87zM257 -10c-162 0 -226 77 -226 247c0 169 56 253 209 253c139 0 178 -87 178 -209v-66h-264c0 -92 28 -122 114 -122c38 0 93 8 128 16l5 -101c-43 -13 -107 -18 -144 -18zM306 301
c-1 49 -11 94 -68 94c-55 0 -76 -31 -80 -94h148z" />
    <glyph glyph-name="edoublegrave" unicode="&#x205;" horiz-adv-x="449" 
d="M281 541l-107 154h120l74 -154h-87zM114 541l-107 154h120l74 -154h-87zM257 -10c-162 0 -226 77 -226 247c0 169 56 253 209 253c139 0 178 -87 178 -209v-66h-264c0 -92 28 -122 114 -122c38 0 93 8 128 16l5 -101c-43 -13 -107 -18 -144 -18zM306 301
c-1 49 -11 94 -68 94c-55 0 -76 -31 -80 -94h148z" />
    <glyph glyph-name="edoublegrave.small" unicode="&#xe763;" horiz-adv-x="418" 
d="M258 561l-107 154h120l74 -154h-87zM91 561l-107 154h120l74 -154h-87zM399 0h-348v500h345v-106h-225v-84h164v-104h-164v-100h228v-106z" />
    <glyph glyph-name="egrave.small" unicode="&#xf7e8;" horiz-adv-x="418" 
d="M184 561l-107 154h126l74 -154h-93zM399 0h-348v500h345v-106h-225v-84h164v-104h-164v-100h228v-106z" />
    <glyph glyph-name="egravedotbelow" unicode="&#xe764;" horiz-adv-x="449" 
d="M191 541l-107 154h126l74 -154h-93zM257 -10c-162 0 -226 77 -226 247c0 169 56 253 209 253c139 0 178 -87 178 -209v-66h-264c0 -92 28 -122 114 -122c38 0 93 8 128 16l5 -101c-43 -13 -107 -18 -144 -18zM306 301c-1 49 -11 94 -68 94c-55 0 -76 -31 -80 -94h148z
M299 -188h-121v113h121v-113z" />
    <glyph glyph-name="egravedotbelow.small" unicode="&#xe766;" horiz-adv-x="418" 
d="M184 561l-107 154h126l74 -154h-93zM399 0h-348v500h345v-106h-225v-84h164v-104h-164v-100h228v-106zM282 -188h-121v113h121v-113z" />
    <glyph glyph-name="eight.LP" unicode="&#xe53d;" horiz-adv-x="548" 
d="M274 685c117 0 208 -46 208 -185c0 -65 -34 -119 -75 -147v-1c50 -28 95 -82 95 -163c0 -149 -101 -200 -228 -200s-228 51 -228 200c0 81 45 135 95 163v1c-42 28 -75 82 -75 147c0 139 91 185 208 185zM273 588c-55 0 -90 -22 -90 -97c0 -53 27 -91 90 -91
c64 0 91 38 91 91c0 75 -35 97 -91 97zM274 89c65 0 108 22 108 108c0 60 -33 99 -108 99s-108 -39 -108 -99c0 -86 43 -108 108 -108z" />
    <glyph glyph-name="eight.LT" unicode="&#xe548;" 
d="M263 685c117 0 208 -46 208 -185c0 -65 -34 -119 -75 -147v-1c50 -28 95 -82 95 -163c0 -149 -101 -200 -228 -200s-228 51 -228 200c0 81 45 135 95 163v1c-42 28 -75 82 -75 147c0 139 91 185 208 185zM262 588c-55 0 -90 -22 -90 -97c0 -53 27 -91 90 -91
c64 0 91 38 91 91c0 75 -35 97 -91 97zM263 89c65 0 108 22 108 108c0 60 -33 99 -108 99s-108 -39 -108 -99c0 -86 43 -108 108 -108z" />
    <glyph glyph-name="eight.OT" unicode="&#xe55e;" 
d="M263 665c114 0 201 -45 201 -178c0 -66 -34 -121 -75 -149v-1c50 -28 95 -81 95 -161c0 -140 -99 -187 -221 -187c-123 0 -221 47 -221 187c0 80 45 133 95 161v1c-42 28 -75 83 -75 149c0 133 88 178 201 178zM262 568c-51 0 -83 -20 -83 -90c0 -54 25 -93 83 -93
c59 0 84 39 84 93c0 70 -32 90 -84 90zM263 89c61 0 101 20 101 95c0 59 -31 97 -101 97s-101 -38 -101 -97c0 -75 40 -95 101 -95z" />
    <glyph glyph-name="einvertedbreve.small" unicode="&#xe767;" horiz-adv-x="418" 
d="M59 568c19 82 72 140 163 140c92 0 144 -58 163 -140h-101c-9 43 -28 61 -62 61c-33 0 -53 -18 -62 -61h-101zM399 0h-348v500h345v-106h-225v-84h164v-104h-164v-100h228v-106z" />
    <glyph glyph-name="emacron.small" unicode="&#xf649;" horiz-adv-x="418" 
d="M378 594h-311v90h311v-90zM399 0h-348v500h345v-106h-225v-84h164v-104h-164v-100h228v-106z" />
    <glyph glyph-name="emdash.cap" unicode="&#xe486;" horiz-adv-x="688" 
d="M651 308h-614v81h614v-81z" />
    <glyph glyph-name="emspace" unicode="&#x2003;" horiz-adv-x="1000" 
 />
    <glyph glyph-name="endash.cap" unicode="&#xe484;" horiz-adv-x="493" 
d="M456 308h-419v81h419v-81z" />
    <glyph glyph-name="eng" unicode="&#x14b;" horiz-adv-x="492" 
d="M178 -207l5 106c31 -5 63 -7 82 -7c50 0 57 18 57 60v401c0 28 -19 37 -45 37c-45 0 -86 -19 -108 -35v-355h-118v480h89l8 -32h1c38 25 89 42 141 42c65 0 150 -28 150 -125v-431c0 -98 -45 -149 -160 -149c-30 0 -66 2 -102 8z" />
    <glyph glyph-name="eng.small" unicode="&#xf62b;" horiz-adv-x="515" 
d="M299 -121c43 0 57 8 57 44v53l-157 275c-10 17 -37 69 -44 98h-2c2 -30 4 -65 4 -93l1 -256h-107v500h149l126 -231c9 -18 27 -56 34 -85h2c-2 30 -4 65 -4 93l-1 223h107v-604c0 -77 -53 -111 -139 -111c-27 0 -72 2 -113 7l4 93c32 -3 69 -6 83 -6z" />
    <glyph glyph-name="enspace" unicode="&#x2002;" horiz-adv-x="500" 
 />
    <glyph glyph-name="eogonek" unicode="&#x119;" horiz-adv-x="449" 
d="M257 -10c-162 0 -226 77 -226 247c0 169 56 253 209 253c139 0 178 -87 178 -209v-66h-264c0 -92 28 -122 114 -122c38 0 93 8 128 16l5 -101c-53 -19 -99 -62 -99 -103c0 -25 17 -38 50 -38c17 0 38 4 56 13l3 -68c-17 -9 -54 -15 -77 -15c-78 0 -117 44 -117 94
c0 38 19 73 47 99h-7zM306 301c-1 49 -11 94 -68 94c-55 0 -76 -31 -80 -94h148z" />
    <glyph glyph-name="eogonek.small" unicode="&#xf64a;" horiz-adv-x="418" 
d="M421 -120l3 -68c-17 -9 -54 -15 -77 -15c-78 0 -117 44 -117 94c0 43 24 82 59 109h-238v500h345v-106h-225v-84h164v-104h-164v-100h228v-106c-38 -15 -84 -54 -84 -95c0 -25 17 -38 50 -38c17 0 38 4 56 13z" />
    <glyph glyph-name="equal.cap" unicode="&#xe595;" horiz-adv-x="584" 
d="M530 390h-476v102h476v-102zM530 204h-476v102h476v-102z" />
    <glyph glyph-name="estimated" unicode="&#x212e;" horiz-adv-x="743" 
d="M624 228h66c-25 -167 -140 -239 -318 -239c-203 0 -332 138 -332 349c0 210 133 348 334 348c197 0 329 -138 329 -348v-29h-551c6 -143 61 -264 226 -264c136 0 225 56 246 183zM374 629c-161 0 -216 -120 -222 -264h439c-4 144 -57 264 -217 264z" />
    <glyph glyph-name="eth.small" unicode="&#xe768;" horiz-adv-x="525" 
d="M84 0v206h-84v104h84v190h218c65 0 106 -18 132 -44c40 -40 58 -104 58 -207c0 -104 -17 -168 -58 -209c-24 -24 -69 -40 -133 -40h-217zM367 249c0 68 -7 113 -25 131c-19 19 -45 22 -76 22h-62v-92h100v-104h-100v-108h62c31 0 59 2 76 19c20 20 25 62 25 132z" />
    <glyph glyph-name="exclamdown.cap" unicode="&#xe441;" horiz-adv-x="341" 
d="M101 675h139v-143h-139v143zM103 0l11 465h113l11 -465h-135z" />
    <glyph glyph-name="f.small" unicode="&#xf766;" horiz-adv-x="394" 
d="M171 0h-120v500h344v-106h-224v-84h164v-104h-164v-206z" />
    <glyph glyph-name="f.superior" unicode="&#xe366;" horiz-adv-x="222" 
d="M231 691l-3 -71c-22 4 -44 6 -58 6c-25 0 -28 -7 -28 -30v-33h75v-74h-75v-219h-91v219h-44v64l44 7v47c0 55 30 91 102 91c22 0 51 -1 78 -7z" />
    <glyph glyph-name="figuredash" unicode="&#x2012;" horiz-adv-x="638" 
d="M603 218h-565v81h565v-81z" />
    <glyph glyph-name="figuredash.cap" unicode="&#xe487;" horiz-adv-x="638" 
d="M601 308h-564v81h564v-81z" />
    <glyph glyph-name="figurespace" unicode="&#x2007;" horiz-adv-x="700" 
 />
    <glyph glyph-name="filledbox" unicode="&#x25a0;" horiz-adv-x="982" 
d="M830 0h-678v675h678v-675zM754 76v523h-528v-523h528zM672 467l-129 -128l129 -127l-53 -54l-128 128l-128 -128l-52 54l128 127l-128 128l52 53l128 -128l128 128z" />
    <glyph glyph-name="filledsmallbox" unicode="&#xe774;" horiz-adv-x="982" 
d="M730 0h-477v480h477v-480zM656 75v331h-329v-331h329zM623 316l-78 -78l78 -78l-52 -52l-78 78l-77 -78l-53 52l78 78l-78 78l53 52l77 -78l78 78z" />
    <glyph glyph-name="five.LP" unicode="&#xe53a;" horiz-adv-x="470" 
d="M323 204c0 43 -19 93 -121 93h-144v378h360v-102h-246v-165h48c140 0 222 -67 222 -194c0 -149 -86 -224 -247 -224c-31 0 -110 3 -141 8l4 105c31 -4 74 -9 117 -9c75 0 148 8 148 110z" />
    <glyph glyph-name="five.LT" unicode="&#xe545;" 
d="M355 204c0 43 -19 93 -121 93h-144v378h360v-102h-246v-165h48c140 0 222 -67 222 -194c0 -149 -86 -224 -247 -224c-31 0 -110 3 -141 8l4 105c31 -4 74 -9 117 -9c75 0 148 8 148 110z" />
    <glyph glyph-name="five.OT" unicode="&#xe55b;" 
d="M343 44c0 44 -17 97 -109 97h-138v359h343v-102h-228v-147h41c132 0 210 -71 210 -200c0 -144 -86 -216 -235 -216c-30 0 -99 3 -135 8l4 105c29 -4 70 -9 111 -9c69 0 136 9 136 105z" />
    <glyph glyph-name="florinoldstyle" unicode="&#xe775;" horiz-adv-x="430" 
d="M339 307v-81h-141l-48 -381h-122l48 381h-78v81h88l7 53c12 92 74 150 175 150c68 0 103 -12 136 -23l-19 -102c-38 13 -77 19 -109 19c-44 0 -58 -19 -63 -61l-5 -36h131z" />
    <glyph glyph-name="four.LP" unicode="&#xe539;" horiz-adv-x="524" 
d="M528 171h-86v-171h-118v171h-294l-4 97l186 417h121l-151 -352c-6 -14 -15 -35 -27 -59l1 -2c18 1 34 1 52 1h117l11 189h106v-189h86v-102z" />
    <glyph glyph-name="four.LT" unicode="&#xe544;" 
d="M536 171h-86v-171h-118v171h-294l-4 97l186 417h121l-151 -352c-6 -14 -15 -35 -27 -59l1 -2c18 1 34 1 52 1h117l11 189h106v-189h86v-102z" />
    <glyph glyph-name="four.OT" unicode="&#xe55a;" 
d="M527 6h-84v-161h-118v161h-278l-4 97l176 407h121l-141 -342c-6 -14 -15 -35 -27 -59l1 -2c17 1 34 1 52 1h101l11 189h106v-189h84v-102z" />
    <glyph glyph-name="fourperemspace" unicode="&#x2005;" horiz-adv-x="250" 
 />
    <glyph glyph-name="fraction" unicode="&#x2044;" horiz-adv-x="183" 
d="M365 678l-442 -678h-105l441 678h106z" />
    <glyph glyph-name="g.small" unicode="&#xf767;" horiz-adv-x="488" 
d="M160 251c0 -127 41 -156 119 -156c15 0 40 2 54 5v156h118v-239c-41 -16 -116 -27 -167 -27c-177 0 -251 75 -251 261c0 176 67 259 253 259c37 0 94 -4 138 -11l-4 -105c-43 6 -93 10 -128 10c-94 0 -132 -23 -132 -153z" />
    <glyph glyph-name="g.superior" unicode="&#xe367;" horiz-adv-x="314" 
d="M313 569l3 -67c-15 -5 -37 -8 -59 -9c5 -10 8 -25 8 -35c0 -86 -47 -111 -123 -111h-11l-8 -12c-3 -4 -5 -7 -5 -10c0 -5 3 -8 9 -8h60c72 0 103 -34 103 -81c0 -25 -7 -42 -24 -59c-27 -27 -73 -36 -124 -36c-45 0 -84 3 -106 25c-12 12 -20 27 -20 46c0 25 18 43 33 53
v1c-12 7 -20 20 -20 35c0 16 9 29 21 45l13 18c-23 16 -41 46 -41 93c0 82 51 112 125 112c31 0 53 -10 80 -10c23 0 60 4 86 10zM110 459c0 -36 10 -47 36 -47s34 12 34 47c0 33 -8 43 -34 43s-36 -10 -36 -43zM203 232c0 9 -6 18 -18 18h-69c-6 -5 -13 -12 -13 -23
c0 -7 2 -11 6 -15c7 -7 25 -7 40 -7s39 1 48 10c5 5 6 10 6 17z" />
    <glyph glyph-name="gacute" unicode="&#x1f5;" horiz-adv-x="499" 
d="M399 695l-108 -154h-92l74 154h126zM497 491l4 -93c-18 -6 -76 -13 -98 -13c10 -26 16 -57 16 -79c0 -130 -74 -183 -184 -183c-11 0 -26 0 -39 1l-24 -33c-5 -6 -7 -10 -7 -14c0 -7 4 -10 15 -10h123c116 0 156 -56 156 -125c0 -44 -14 -76 -40 -101
c-46 -45 -118 -56 -192 -56c-56 0 -133 8 -171 46c-18 18 -30 39 -30 70c0 37 27 73 53 90v1c-16 11 -30 29 -30 57c0 31 17 53 40 82l17 21c-38 29 -69 78 -69 154c0 137 81 184 196 184c42 0 80 -14 127 -14c24 0 95 6 137 15zM305 309c0 67 -25 82 -73 82
c-53 0 -77 -15 -77 -82c0 -69 24 -87 77 -87c48 0 73 18 73 87zM346 -63c0 17 -12 32 -44 32h-128c-16 -11 -32 -25 -32 -48c0 -10 2 -17 8 -23c16 -16 63 -16 82 -16c32 0 80 2 102 24c8 8 12 17 12 31z" />
    <glyph glyph-name="gacute.small" unicode="&#xe776;" horiz-adv-x="488" 
d="M416 715l-108 -154h-92l74 154h126zM160 251c0 -127 41 -156 119 -156c15 0 40 2 54 5v156h118v-239c-41 -16 -116 -27 -167 -27c-177 0 -251 75 -251 261c0 176 67 259 253 259c37 0 94 -4 138 -11l-4 -105c-43 6 -93 10 -128 10c-94 0 -132 -23 -132 -153z" />
    <glyph glyph-name="gbreve" unicode="&#x11f;" horiz-adv-x="499" 
d="M397 688c-19 -82 -72 -140 -163 -140c-92 0 -144 58 -163 140h101c9 -43 28 -61 62 -61c33 0 53 18 62 61h101zM497 491l4 -93c-18 -6 -76 -13 -98 -13c10 -26 16 -57 16 -79c0 -130 -74 -183 -184 -183c-11 0 -26 0 -39 1l-24 -33c-5 -6 -7 -10 -7 -14
c0 -7 4 -10 15 -10h123c116 0 156 -56 156 -125c0 -44 -14 -76 -40 -101c-46 -45 -118 -56 -192 -56c-56 0 -133 8 -171 46c-18 18 -30 39 -30 70c0 37 27 73 53 90v1c-16 11 -30 29 -30 57c0 31 17 53 40 82l17 21c-38 29 -69 78 -69 154c0 137 81 184 196 184
c42 0 80 -14 127 -14c24 0 95 6 137 15zM305 309c0 67 -25 82 -73 82c-53 0 -77 -15 -77 -82c0 -69 24 -87 77 -87c48 0 73 18 73 87zM346 -63c0 17 -12 32 -44 32h-128c-16 -11 -32 -25 -32 -48c0 -10 2 -17 8 -23c16 -16 63 -16 82 -16c32 0 80 2 102 24c8 8 12 17 12 31z
" />
    <glyph glyph-name="gbreve.small" unicode="&#xf64b;" horiz-adv-x="488" 
d="M424 708c-19 -82 -72 -140 -163 -140c-92 0 -144 58 -163 140h101c9 -43 28 -61 62 -61c33 0 53 18 62 61h101zM160 251c0 -127 41 -156 119 -156c15 0 40 2 54 5v156h118v-239c-41 -16 -116 -27 -167 -27c-177 0 -251 75 -251 261c0 176 67 259 253 259
c37 0 94 -4 138 -11l-4 -105c-43 6 -93 10 -128 10c-94 0 -132 -23 -132 -153z" />
    <glyph glyph-name="gcaron" unicode="&#x1e7;" horiz-adv-x="499" 
d="M287 541h-105l-99 154h102l52 -85l51 85h99zM497 491l4 -93c-18 -6 -76 -13 -98 -13c10 -26 16 -57 16 -79c0 -130 -74 -183 -184 -183c-11 0 -26 0 -39 1l-24 -33c-5 -6 -7 -10 -7 -14c0 -7 4 -10 15 -10h123c116 0 156 -56 156 -125c0 -44 -14 -76 -40 -101
c-46 -45 -118 -56 -192 -56c-56 0 -133 8 -171 46c-18 18 -30 39 -30 70c0 37 27 73 53 90v1c-16 11 -30 29 -30 57c0 31 17 53 40 82l17 21c-38 29 -69 78 -69 154c0 137 81 184 196 184c42 0 80 -14 127 -14c24 0 95 6 137 15zM305 309c0 67 -25 82 -73 82
c-53 0 -77 -15 -77 -82c0 -69 24 -87 77 -87c48 0 73 18 73 87zM346 -63c0 17 -12 32 -44 32h-128c-16 -11 -32 -25 -32 -48c0 -10 2 -17 8 -23c16 -16 63 -16 82 -16c32 0 80 2 102 24c8 8 12 17 12 31z" />
    <glyph glyph-name="gcaron.small" unicode="&#xf626;" horiz-adv-x="488" 
d="M329 561h-105l-99 154h102l52 -85l51 85h99zM160 251c0 -127 41 -156 119 -156c15 0 40 2 54 5v156h118v-239c-41 -16 -116 -27 -167 -27c-177 0 -251 75 -251 261c0 176 67 259 253 259c37 0 94 -4 138 -11l-4 -105c-43 6 -93 10 -128 10c-94 0 -132 -23 -132 -153z" />
    <glyph glyph-name="gcircumflex" unicode="&#x11d;" horiz-adv-x="499" 
d="M183 695h104l100 -154h-102l-52 85l-51 -85h-99zM497 491l4 -93c-18 -6 -76 -13 -98 -13c10 -26 16 -57 16 -79c0 -130 -74 -183 -184 -183c-11 0 -26 0 -39 1l-24 -33c-5 -6 -7 -10 -7 -14c0 -7 4 -10 15 -10h123c116 0 156 -56 156 -125c0 -44 -14 -76 -40 -101
c-46 -45 -118 -56 -192 -56c-56 0 -133 8 -171 46c-18 18 -30 39 -30 70c0 37 27 73 53 90v1c-16 11 -30 29 -30 57c0 31 17 53 40 82l17 21c-38 29 -69 78 -69 154c0 137 81 184 196 184c42 0 80 -14 127 -14c24 0 95 6 137 15zM305 309c0 67 -25 82 -73 82
c-53 0 -77 -15 -77 -82c0 -69 24 -87 77 -87c48 0 73 18 73 87zM346 -63c0 17 -12 32 -44 32h-128c-16 -11 -32 -25 -32 -48c0 -10 2 -17 8 -23c16 -16 63 -16 82 -16c32 0 80 2 102 24c8 8 12 17 12 31z" />
    <glyph glyph-name="gcircumflex.small" unicode="&#xf62c;" horiz-adv-x="488" 
d="M209 715h104l100 -154h-102l-52 85l-51 -85h-99zM160 251c0 -127 41 -156 119 -156c15 0 40 2 54 5v156h118v-239c-41 -16 -116 -27 -167 -27c-177 0 -251 75 -251 261c0 176 67 259 253 259c37 0 94 -4 138 -11l-4 -105c-43 6 -93 10 -128 10c-94 0 -132 -23 -132 -153z
" />
    <glyph glyph-name="gcommaaccent" unicode="&#x123;" horiz-adv-x="499" 
d="M187 529l45 187h118l-75 -187h-88zM497 491l4 -93c-18 -6 -76 -13 -98 -13c10 -26 16 -57 16 -79c0 -130 -74 -183 -184 -183c-11 0 -26 0 -39 1l-24 -33c-5 -6 -7 -10 -7 -14c0 -7 4 -10 15 -10h123c116 0 156 -56 156 -125c0 -44 -14 -76 -40 -101
c-46 -45 -118 -56 -192 -56c-56 0 -133 8 -171 46c-18 18 -30 39 -30 70c0 37 27 73 53 90v1c-16 11 -30 29 -30 57c0 31 17 53 40 82l17 21c-38 29 -69 78 -69 154c0 137 81 184 196 184c42 0 80 -14 127 -14c24 0 95 6 137 15zM305 309c0 67 -25 82 -73 82
c-53 0 -77 -15 -77 -82c0 -69 24 -87 77 -87c48 0 73 18 73 87zM346 -63c0 17 -12 32 -44 32h-128c-16 -11 -32 -25 -32 -48c0 -10 2 -17 8 -23c16 -16 63 -16 82 -16c32 0 80 2 102 24c8 8 12 17 12 31z" />
    <glyph glyph-name="gcommaaccent.small" unicode="&#xf64c;" horiz-adv-x="488" 
d="M160 251c0 -127 41 -156 119 -156c15 0 40 2 54 5v156h118v-239c-41 -16 -116 -27 -167 -27c-177 0 -251 75 -251 261c0 176 67 259 253 259c37 0 94 -4 138 -11l-4 -105c-43 6 -93 10 -128 10c-94 0 -132 -23 -132 -153zM183 -246l43 182h118l-73 -182h-88z" />
    <glyph glyph-name="gcommaturnedabove" unicode="&#xe108;" horiz-adv-x="499" 
d="M333 716l-45 -187h-118l75 187h88zM497 491l4 -93c-18 -6 -76 -13 -98 -13c10 -26 16 -57 16 -79c0 -130 -74 -183 -184 -183c-11 0 -26 0 -39 1l-24 -33c-5 -6 -7 -10 -7 -14c0 -7 4 -10 15 -10h123c116 0 156 -56 156 -125c0 -44 -14 -76 -40 -101
c-46 -45 -118 -56 -192 -56c-56 0 -133 8 -171 46c-18 18 -30 39 -30 70c0 37 27 73 53 90v1c-16 11 -30 29 -30 57c0 31 17 53 40 82l17 21c-38 29 -69 78 -69 154c0 137 81 184 196 184c42 0 80 -14 127 -14c24 0 95 6 137 15zM305 309c0 67 -25 82 -73 82
c-53 0 -77 -15 -77 -82c0 -69 24 -87 77 -87c48 0 73 18 73 87zM346 -63c0 17 -12 32 -44 32h-128c-16 -11 -32 -25 -32 -48c0 -10 2 -17 8 -23c16 -16 63 -16 82 -16c32 0 80 2 102 24c8 8 12 17 12 31z" />
    <glyph glyph-name="gcommaturnedabove.small" unicode="&#xe777;" horiz-adv-x="488" 
d="M360 732l-45 -185h-118l75 185h88zM160 251c0 -127 41 -156 119 -156c15 0 40 2 54 5v156h118v-239c-41 -16 -116 -27 -167 -27c-177 0 -251 75 -251 261c0 176 67 259 253 259c37 0 94 -4 138 -11l-4 -105c-43 6 -93 10 -128 10c-94 0 -132 -23 -132 -153z" />
    <glyph glyph-name="gdotaccent" unicode="&#x121;" horiz-adv-x="499" 
d="M293 562h-120v113h120v-113zM497 491l4 -93c-18 -6 -76 -13 -98 -13c10 -26 16 -57 16 -79c0 -130 -74 -183 -184 -183c-11 0 -26 0 -39 1l-24 -33c-5 -6 -7 -10 -7 -14c0 -7 4 -10 15 -10h123c116 0 156 -56 156 -125c0 -44 -14 -76 -40 -101c-46 -45 -118 -56 -192 -56
c-56 0 -133 8 -171 46c-18 18 -30 39 -30 70c0 37 27 73 53 90v1c-16 11 -30 29 -30 57c0 31 17 53 40 82l17 21c-38 29 -69 78 -69 154c0 137 81 184 196 184c42 0 80 -14 127 -14c24 0 95 6 137 15zM305 309c0 67 -25 82 -73 82c-53 0 -77 -15 -77 -82
c0 -69 24 -87 77 -87c48 0 73 18 73 87zM346 -63c0 17 -12 32 -44 32h-128c-16 -11 -32 -25 -32 -48c0 -10 2 -17 8 -23c16 -16 63 -16 82 -16c32 0 80 2 102 24c8 8 12 17 12 31z" />
    <glyph glyph-name="gdotaccent.small" unicode="&#xf62d;" horiz-adv-x="488" 
d="M338 582h-120v113h120v-113zM160 251c0 -127 41 -156 119 -156c15 0 40 2 54 5v156h118v-239c-41 -16 -116 -27 -167 -27c-177 0 -251 75 -251 261c0 176 67 259 253 259c37 0 94 -4 138 -11l-4 -105c-43 6 -93 10 -128 10c-94 0 -132 -23 -132 -153z" />
    <glyph glyph-name="germandblS" unicode="&#xe778;" horiz-adv-x="958" 
d="M932 174c0 -132 -112 -184 -236 -184c-49 0 -143 5 -177 10l5 112c54 -7 127 -9 165 -9c54 0 113 7 113 68c0 36 -19 52 -44 69l-148 104c-57 40 -103 90 -103 170c0 131 96 171 225 171c46 0 111 -3 158 -10l-5 -110c-42 5 -113 9 -150 9c-56 0 -100 -4 -100 -57
c0 -38 20 -51 55 -75l144 -100c52 -36 98 -77 98 -168zM453 174c0 -132 -112 -184 -236 -184c-49 0 -143 5 -177 10l5 112c54 -7 127 -9 165 -9c54 0 113 7 113 68c0 36 -19 52 -44 69l-148 104c-57 40 -103 90 -103 170c0 131 96 171 225 171c46 0 111 -3 158 -10l-5 -110
c-42 5 -113 9 -150 9c-56 0 -100 -4 -100 -57c0 -38 20 -51 55 -75l144 -100c52 -36 98 -77 98 -168z" />
    <glyph glyph-name="germandbls.small" unicode="&#xf667;" horiz-adv-x="782" 
d="M760 138c0 -112 -92 -148 -188 -148c-35 0 -109 2 -150 8l4 108c52 -6 110 -8 136 -8c53 0 78 8 78 35c0 15 -9 26 -27 36l-130 76c-48 28 -69 81 -69 128c0 109 79 137 186 137c33 0 91 -2 131 -7l-5 -107c-36 5 -88 8 -118 8c-43 0 -73 -4 -73 -32c0 -15 7 -24 36 -41
l121 -71c41 -24 68 -61 68 -122zM369 138c0 -112 -92 -148 -188 -148c-35 0 -109 2 -150 8l4 108c52 -6 110 -8 136 -8c53 0 78 8 78 35c0 15 -9 26 -27 36l-130 76c-48 28 -69 81 -69 128c0 109 79 137 186 137c33 0 91 -2 131 -7l-5 -107c-36 5 -88 8 -118 8
c-43 0 -73 -4 -73 -32c0 -15 7 -24 36 -41l121 -71c41 -24 68 -61 68 -122z" />
    <glyph glyph-name="grave.cap" unicode="&#xe421;" 
d="M270 736c-35 52 -72 103 -107 154h126l74 -154h-93z" />
    <glyph glyph-name="greater.cap" unicode="&#xe597;" horiz-adv-x="540" 
d="M491 307l-430 -185v115l270 113l-270 112v114l430 -185v-84z" />
    <glyph glyph-name="greaterequal" unicode="&#x2265;" horiz-adv-x="550" 
d="M491 0h-430v190l267 94l-267 94v108l430 -160v-84l-389 -145h389v-97z" />
    <glyph glyph-name="gstroke" unicode="&#x1e5;" horiz-adv-x="511" 
d="M535 -34v-82h-81c-7 -16 -17 -30 -30 -43c-46 -45 -118 -56 -192 -56c-56 0 -130 6 -171 46c-16 14 -26 31 -29 53h-70v82h94c9 11 18 19 28 25v1c-16 11 -30 29 -30 57c0 31 17 53 40 82l17 21c-38 29 -69 78 -69 154c0 137 81 184 196 184c42 0 80 -14 127 -14
c24 0 95 6 137 15l4 -93c-18 -6 -76 -13 -98 -13c10 -26 16 -57 16 -79c0 -130 -74 -183 -184 -183c-11 0 -26 0 -39 1l-24 -33c-5 -6 -7 -10 -7 -14c0 -7 4 -10 15 -10h123c102 0 145 -44 154 -101h73zM310 309c0 67 -25 82 -73 82c-53 0 -77 -15 -77 -82
c0 -69 24 -87 77 -87c48 0 73 18 73 87zM176 -22c-6 -4 -13 -10 -18 -17h189c-7 10 -18 17 -36 17h-135zM237 -132c39 0 77 2 99 21h-183c15 -20 49 -21 84 -21z" />
    <glyph glyph-name="gstroke.small" unicode="&#xe779;" horiz-adv-x="535" 
d="M251 131v100h82v46h118v-46h84v-100h-84v-114c-41 -16 -116 -27 -167 -27c-177 0 -251 75 -251 261c0 176 67 259 253 259c37 0 94 -4 138 -11l-4 -105c-43 6 -93 10 -128 10c-94 0 -132 -23 -132 -153c0 -127 41 -156 119 -156c15 0 40 2 54 5v31h-82z" />
    <glyph glyph-name="gtilde" unicode="&#xe106;" horiz-adv-x="499" 
d="M394 676l4 -90c-26 -16 -64 -27 -91 -27c-52 0 -97 31 -146 31c-26 0 -57 -14 -81 -28l-6 88c27 17 66 28 93 28c50 0 97 -31 143 -31c27 0 59 14 84 29zM497 491l4 -93c-18 -6 -76 -13 -98 -13c10 -26 16 -57 16 -79c0 -130 -74 -183 -184 -183c-11 0 -26 0 -39 1
l-24 -33c-5 -6 -7 -10 -7 -14c0 -7 4 -10 15 -10h123c116 0 156 -56 156 -125c0 -44 -14 -76 -40 -101c-46 -45 -118 -56 -192 -56c-56 0 -133 8 -171 46c-18 18 -30 39 -30 70c0 37 27 73 53 90v1c-16 11 -30 29 -30 57c0 31 17 53 40 82l17 21c-38 29 -69 78 -69 154
c0 137 81 184 196 184c42 0 80 -14 127 -14c24 0 95 6 137 15zM305 309c0 67 -25 82 -73 82c-53 0 -77 -15 -77 -82c0 -69 24 -87 77 -87c48 0 73 18 73 87zM346 -63c0 17 -12 32 -44 32h-128c-16 -11 -32 -25 -32 -48c0 -10 2 -17 8 -23c16 -16 63 -16 82 -16
c32 0 80 2 102 24c8 8 12 17 12 31z" />
    <glyph glyph-name="gtilde.small" unicode="&#xe780;" horiz-adv-x="488" 
d="M398 696l4 -90c-26 -16 -64 -27 -91 -27c-52 0 -97 31 -146 31c-26 0 -57 -14 -81 -28l-6 88c27 17 66 28 93 28c50 0 97 -31 143 -31c27 0 59 14 84 29zM160 251c0 -127 41 -156 119 -156c15 0 40 2 54 5v156h118v-239c-41 -16 -116 -27 -167 -27
c-177 0 -251 75 -251 261c0 176 67 259 253 259c37 0 94 -4 138 -11l-4 -105c-43 6 -93 10 -128 10c-94 0 -132 -23 -132 -153z" />
    <glyph glyph-name="guillemotleft.cap" unicode="&#xe453;" horiz-adv-x="567" 
d="M400 544h134l-164 -197l165 -198h-134l-160 191v13zM187 544h133l-164 -197l165 -198h-133l-160 191v13z" />
    <glyph glyph-name="guillemotright.cap" unicode="&#xe454;" horiz-adv-x="567" 
d="M247 544h133l159 -191v-13l-160 -191h-133l165 198zM33 544h134l159 -191v-13l-160 -191h-134l165 198z" />
    <glyph glyph-name="guilsinglleft.cap" unicode="&#xe451;" horiz-adv-x="360" 
d="M187 544h140l-164 -197l165 -198h-140l-160 191v13z" />
    <glyph glyph-name="guilsinglright.cap" unicode="&#xe452;" horiz-adv-x="360" 
d="M33 544h140l159 -191v-13l-160 -191h-140l165 198z" />
    <glyph glyph-name="h.small" unicode="&#xf768;" horiz-adv-x="509" 
d="M171 500v-190h167v190h120v-500h-120v206h-167v-206h-120v500h120z" />
    <glyph glyph-name="h.superior" unicode="&#xe368;" horiz-adv-x="311" 
d="M283 490v-220h-91v205c0 13 -6 18 -19 18c-16 0 -34 -8 -47 -17v-206h-92v423h92v-139h1c17 9 38 15 60 15c46 0 96 -18 96 -79z" />
    <glyph glyph-name="hairspace" unicode="&#x200a;" horiz-adv-x="100" 
 />
    <glyph glyph-name="hbar" unicode="&#x127;" horiz-adv-x="491" 
d="M-17 557v82h73v66h118v-66h160v-82h-160v-96h2c31 16 75 29 119 29c65 0 150 -28 150 -125v-365h-118v353c0 28 -19 37 -45 37c-45 0 -86 -19 -108 -35v-355h-118v557h-73z" />
    <glyph glyph-name="hbar.small" unicode="&#xf62e;" horiz-adv-x="509" 
d="M171 500v-50h167v50h120v-500h-120v206h-167v-206h-120v500h120zM171 310h167v47h-167v-47z" />
    <glyph glyph-name="hcaron" unicode="&#x21f;" horiz-adv-x="491" 
d="M169 766h-104l-100 154h102l52 -85l51 85h99zM295 490c65 0 150 -28 150 -125v-365h-118v353c0 28 -19 37 -45 37c-45 0 -86 -19 -108 -35v-355h-118v705h118v-244h2c31 16 75 29 119 29z" />
    <glyph glyph-name="hcaron.small" unicode="&#xe781;" horiz-adv-x="509" 
d="M306 561h-105l-99 154h102l52 -85l51 85h99zM171 500v-190h167v190h120v-500h-120v206h-167v-206h-120v500h120z" />
    <glyph glyph-name="hcircumflex" unicode="&#x125;" horiz-adv-x="491" 
d="M65 920h104l100 -154h-102l-52 85l-51 -85h-99zM295 490c65 0 150 -28 150 -125v-365h-118v353c0 28 -19 37 -45 37c-45 0 -86 -19 -108 -35v-355h-118v705h118v-244h2c31 16 75 29 119 29z" />
    <glyph glyph-name="hcircumflex.small" unicode="&#xf62f;" horiz-adv-x="509" 
d="M202 715h104l100 -154h-102l-52 85l-51 -85h-99zM171 500v-190h167v190h120v-500h-120v206h-167v-206h-120v500h120z" />
    <glyph glyph-name="hdotbelow" unicode="&#x1e25;" horiz-adv-x="491" 
d="M295 490c65 0 150 -28 150 -125v-365h-118v353c0 28 -19 37 -45 37c-45 0 -86 -19 -108 -35v-355h-118v705h118v-244h2c31 16 75 29 119 29zM311 -188h-121v113h121v-113z" />
    <glyph glyph-name="hdotbelow.small" unicode="&#xe782;" horiz-adv-x="509" 
d="M171 500v-190h167v190h120v-500h-120v206h-167v-206h-120v500h120zM315 -188h-121v113h121v-113z" />
    <glyph glyph-name="hmacronbelow" unicode="&#xe10a;" horiz-adv-x="491" 
d="M295 490c65 0 150 -28 150 -125v-365h-118v353c0 28 -19 37 -45 37c-45 0 -86 -19 -108 -35v-355h-118v705h118v-244h2c31 16 75 29 119 29zM407 -183h-311v90h311v-90z" />
    <glyph glyph-name="hmacronbelow.small" unicode="&#xe783;" horiz-adv-x="509" 
d="M171 500v-190h167v190h120v-500h-120v206h-167v-206h-120v500h120zM410 -183h-311v90h311v-90z" />
    <glyph glyph-name="hungarumlaut" unicode="&#x2dd;" 
d="M443 695l-107 -154h-87l74 154h120zM276 695l-107 -154h-87l74 154h120z" />
    <glyph glyph-name="hungarumlaut.cap" unicode="&#xe42b;" 
d="M443 890l-107 -154h-87l74 154h120zM276 890l-107 -154h-87l74 154h120z" />
    <glyph glyph-name="hyphen.cap" unicode="&#xe482;" horiz-adv-x="331" 
d="M287 294h-243v108h243v-108z" />
    <glyph glyph-name="i.small" unicode="&#xf769;" horiz-adv-x="223" 
d="M171 0h-120v500h120v-500z" />
    <glyph glyph-name="i.superior" unicode="&#xe369;" horiz-adv-x="159" 
d="M128 604h-97v85h97v-85zM126 270h-92v293h92v-293z" />
    <glyph glyph-name="iacute.small" unicode="&#xf7ed;" horiz-adv-x="223" 
d="M268 715l-108 -154h-92l74 154h126zM171 0h-120v500h120v-500z" />
    <glyph glyph-name="ibreve" unicode="&#x12d;" horiz-adv-x="228" 
d="M277 688c-19 -82 -72 -140 -163 -140c-92 0 -144 58 -163 140h101c9 -43 28 -61 62 -61c33 0 53 18 62 61h101zM173 0h-118v480h118v-480z" />
    <glyph glyph-name="ibreve.small" unicode="&#xf630;" horiz-adv-x="223" 
d="M274 708c-19 -82 -72 -140 -163 -140c-92 0 -144 58 -163 140h101c9 -43 28 -61 62 -61c33 0 53 18 62 61h101zM171 0h-120v500h120v-500z" />
    <glyph glyph-name="icaron" unicode="&#x1d0;" horiz-adv-x="228" 
d="M166 541h-105l-99 154h102l52 -85l51 85h99zM173 0h-118v480h118v-480z" />
    <glyph glyph-name="icaron.small" unicode="&#xe784;" horiz-adv-x="223" 
d="M163 561h-105l-99 154h102l52 -85l51 85h99zM171 0h-120v500h120v-500z" />
    <glyph glyph-name="icircumflex.small" unicode="&#xf7ee;" horiz-adv-x="223" 
d="M60 715h104l100 -154h-102l-52 85l-51 -85h-99zM171 0h-120v500h120v-500z" />
    <glyph glyph-name="idieresis.small" unicode="&#xf7ef;" horiz-adv-x="223" 
d="M261 584h-110v108h110v-108zM71 584h-110v108h110v-108zM171 0h-120v500h120v-500z" />
    <glyph glyph-name="idotaccent.small" unicode="&#xf666;" horiz-adv-x="223" 
d="M171 582h-120v113h120v-113zM171 0h-120v500h120v-500z" />
    <glyph glyph-name="idotbelow" unicode="&#x1ecb;" horiz-adv-x="228" 
d="M177 565h-126v128h126v-128zM173 0h-118v480h118v-480zM174 -188h-121v113h121v-113z" />
    <glyph glyph-name="idotbelow.small" unicode="&#xe786;" horiz-adv-x="223" 
d="M171 0h-120v500h120v-500zM172 -188h-121v113h121v-113z" />
    <glyph glyph-name="idoublegrave.small" unicode="&#xe787;" horiz-adv-x="223" 
d="M151 561l-107 154h120l74 -154h-87zM-16 561l-107 154h120l74 -154h-87zM171 0h-120v500h120v-500z" />
    <glyph glyph-name="igrave.small" unicode="&#xf7ec;" horiz-adv-x="223" 
d="M63 561l-107 154h126l74 -154h-93zM171 0h-120v500h120v-500z" />
    <glyph glyph-name="iinvertedbreve" unicode="&#x20b;" horiz-adv-x="228" 
d="M-49 548c19 82 72 140 163 140c92 0 144 -58 163 -140h-101c-9 43 -28 61 -62 61c-33 0 -53 -18 -62 -61h-101zM173 0h-118v480h118v-480z" />
    <glyph glyph-name="iinvertedbreve.small" unicode="&#xe788;" horiz-adv-x="223" 
d="M-52 568c19 82 72 140 163 140c92 0 144 -58 163 -140h-101c-9 43 -28 61 -62 61c-33 0 -53 -18 -62 -61h-101zM171 0h-120v500h120v-500z" />
    <glyph glyph-name="ij" unicode="&#x133;" horiz-adv-x="458" 
d="M406 565h-126v128h126v-128zM177 565h-126v128h126v-128zM140 -207l5 106c31 -5 63 -7 82 -7c50 0 57 18 57 60v528h118v-546c0 -98 -45 -149 -160 -149c-30 0 -66 2 -102 8zM173 0h-118v480h118v-480z" />
    <glyph glyph-name="ij.small" unicode="&#xf631;" horiz-adv-x="524" 
d="M477 500v-395c0 -79 -55 -115 -142 -115c-28 0 -77 2 -117 8l4 104c31 -4 73 -7 87 -7c36 0 48 7 48 36v369h120zM171 0h-120v500h120v-500z" />
    <glyph glyph-name="imacron" unicode="&#x12b;" horiz-adv-x="228" 
d="M272 573h-311v90h311v-90zM173 0h-118v480h118v-480z" />
    <glyph glyph-name="imacron.small" unicode="&#xf64d;" horiz-adv-x="223" 
d="M267 593h-311v90h311v-90zM171 0h-120v500h120v-500z" />
    <glyph glyph-name="increment" unicode="&#x2206;" horiz-adv-x="707" 
d="M296 676h112l273 -606v-70h-655v70zM171 106h363l-184 409z" />
    <glyph glyph-name="infinity" unicode="&#x221e;" horiz-adv-x="750" 
d="M531 88c-64 0 -117 32 -156 71c-40 -40 -90 -71 -155 -71c-99 0 -177 72 -177 163c0 92 75 166 177 166c73 0 116 -28 156 -71c39 39 87 71 155 71c102 0 176 -74 176 -166c0 -91 -77 -163 -176 -163zM529 188c35 0 61 29 61 65c0 34 -24 65 -59 65
c-34 0 -63 -32 -93 -69c24 -35 54 -61 91 -61zM222 188c41 0 68 26 90 61c-33 49 -53 69 -88 69c-39 0 -63 -31 -63 -67c0 -34 26 -63 61 -63z" />
    <glyph glyph-name="integral" unicode="&#x222b;" horiz-adv-x="405" 
d="M-24 -152l5 102c36 -7 78 -12 100 -12c51 0 55 38 55 84v498c0 92 47 165 157 165c37 0 83 -5 121 -13l-5 -102c-36 7 -78 12 -100 12c-51 0 -55 -38 -55 -84v-498c0 -92 -47 -165 -157 -165c-37 0 -83 5 -121 13z" />
    <glyph glyph-name="invertedbreve" unicode="&#xe411;" 
d="M100 548c19 82 72 140 163 140c92 0 144 -58 163 -140h-101c-9 43 -28 61 -62 61c-33 0 -53 -18 -62 -61h-101z" />
    <glyph glyph-name="invertedbreve.cap" unicode="&#xe427;" 
d="M100 743c19 82 72 140 163 140c92 0 144 -58 163 -140h-101c-9 43 -28 61 -62 61c-33 0 -53 -18 -62 -61h-101z" />
    <glyph glyph-name="iogonek" unicode="&#x12f;" horiz-adv-x="228" 
d="M177 565h-126v128h126v-128zM195 -120l3 -68c-17 -9 -54 -15 -77 -15c-78 0 -117 44 -117 94c0 43 24 82 59 109h-8v480h118v-480c-38 -15 -84 -54 -84 -95c0 -25 17 -38 50 -38c17 0 38 4 56 13z" />
    <glyph glyph-name="iogonek.small" unicode="&#xf64e;" horiz-adv-x="223" 
d="M193 -120l3 -68c-17 -9 -54 -15 -77 -15c-78 0 -117 44 -117 94c0 43 24 82 59 109h-10v500h120v-500c-38 -15 -84 -54 -84 -95c0 -25 17 -38 50 -38c17 0 38 4 56 13z" />
    <glyph glyph-name="itilde" unicode="&#x129;" horiz-adv-x="228" 
d="M271 676l4 -90c-26 -16 -64 -27 -91 -27c-52 0 -97 31 -146 31c-26 0 -57 -14 -81 -28l-6 88c27 17 66 28 93 28c50 0 97 -31 143 -31c27 0 59 14 84 29zM173 0h-118v480h118v-480z" />
    <glyph glyph-name="itilde.small" unicode="&#xf632;" horiz-adv-x="223" 
d="M272 696l4 -90c-26 -16 -64 -27 -91 -27c-52 0 -97 31 -146 31c-26 0 -57 -14 -81 -28l-6 88c27 17 66 28 93 28c50 0 97 -31 143 -31c27 0 59 14 84 29zM171 0h-120v500h120v-500z" />
    <glyph glyph-name="j.small" unicode="&#xf76a;" horiz-adv-x="301" 
d="M254 500v-395c0 -79 -55 -115 -142 -115c-28 0 -77 2 -117 8l4 104c31 -4 73 -7 87 -7c36 0 48 7 48 36v369h120z" />
    <glyph glyph-name="j.superior" unicode="&#xe36a;" horiz-adv-x="157" 
d="M126 604h-97v85h97v-85zM-53 147l4 79c18 -3 39 -5 49 -5c25 0 31 10 31 32v310h92v-328c0 -59 -31 -94 -105 -94c-18 0 -52 2 -71 6z" />
    <glyph glyph-name="jcaron" unicode="&#x1f0;" horiz-adv-x="230" 
d="M170 568h-105l-99 154h102l52 -85l51 85h99zM-88 -207l5 106c31 -5 63 -7 82 -7c50 0 57 18 57 60v528h118v-546c0 -98 -45 -149 -160 -149c-30 0 -66 2 -102 8z" />
    <glyph glyph-name="jcaron" unicode="&#xe10c;" horiz-adv-x="230" 
d="M170 568h-105l-99 154h102l52 -85l51 85h99zM-88 -207l5 106c31 -5 63 -7 82 -7c50 0 57 18 57 60v528h118v-546c0 -98 -45 -149 -160 -149c-30 0 -66 2 -102 8z" />
    <glyph glyph-name="jcaron.small" unicode="&#xe790;" horiz-adv-x="301" 
d="M247 561h-105l-99 154h102l52 -85l51 85h99zM254 500v-395c0 -79 -55 -115 -142 -115c-28 0 -77 2 -117 8l4 104c31 -4 73 -7 87 -7c36 0 48 7 48 36v369h120z" />
    <glyph glyph-name="jcircumflex" unicode="&#x135;" horiz-adv-x="230" 
d="M71 715h104l100 -154h-102l-52 85l-51 -85h-99zM-88 -207l5 106c31 -5 63 -7 82 -7c50 0 57 18 57 60v528h118v-546c0 -98 -45 -149 -160 -149c-30 0 -66 2 -102 8z" />
    <glyph glyph-name="jcircumflex.small" unicode="&#xf633;" horiz-adv-x="301" 
d="M143 715h104l100 -154h-102l-52 85l-51 -85h-99zM254 500v-395c0 -79 -55 -115 -142 -115c-28 0 -77 2 -117 8l4 104c31 -4 73 -7 87 -7c36 0 48 7 48 36v369h120z" />
    <glyph glyph-name="k.small" unicode="&#xf76b;" horiz-adv-x="458" 
d="M325 0l-110 194l-44 -56v-138h-120v500h120v-197h2c14 22 33 49 44 63l100 134h137l-159 -205l172 -295h-142z" />
    <glyph glyph-name="k.superior" unicode="&#xe36b;" horiz-adv-x="301" 
d="M296 563l-89 -120l101 -173h-102l-59 104l-22 -30v-74h-91v423h92v-161c0 -14 0 -55 -1 -71h1c7 15 23 41 30 51l36 51h104z" />
    <glyph glyph-name="kcaron" unicode="&#x1e9;" horiz-adv-x="462" 
d="M169 766h-104l-100 154h102l52 -85l51 85h99zM450 480l-148 -183l172 -297h-132l-118 206l-49 -62v-144h-118v705h118v-406h2c12 18 27 38 40 55l94 126h139z" />
    <glyph glyph-name="kcaron.small" unicode="&#xe791;" horiz-adv-x="458" 
d="M286 561h-105l-99 154h102l52 -85l51 85h99zM325 0l-110 194l-44 -56v-138h-120v500h120v-197h2c14 22 33 49 44 63l100 134h137l-159 -205l172 -295h-142z" />
    <glyph glyph-name="kcedilla" unicode="&#xe10e;" horiz-adv-x="462" 
d="M450 480l-148 -183l172 -297h-132l-118 206l-49 -62v-144h-118v705h118v-406h2c12 18 27 38 40 55l94 126h139zM265 -121c0 21 -45 23 -72 24l5 61c74 0 151 -20 151 -89c0 -47 -42 -78 -115 -78c-18 0 -53 2 -74 10l4 64c19 -5 44 -9 64 -9s37 3 37 17z" />
    <glyph glyph-name="kcedilla.small" unicode="&#xe792;" horiz-adv-x="458" 
d="M325 0l-110 194l-44 -56v-138h-120v500h120v-197h2c14 22 33 49 44 63l100 134h137l-159 -205l172 -295h-142zM244 -121c0 21 -45 23 -72 24l5 61c74 0 151 -20 151 -89c0 -47 -42 -78 -115 -78c-18 0 -53 2 -74 10l4 64c19 -5 44 -9 64 -9s37 3 37 17z" />
    <glyph glyph-name="kcommaaccent" unicode="&#x137;" horiz-adv-x="462" 
d="M450 480l-148 -183l172 -297h-132l-118 206l-49 -62v-144h-118v705h118v-406h2c12 18 27 38 40 55l94 126h139zM155 -246l43 182h118l-73 -182h-88z" />
    <glyph glyph-name="kcommaaccent.small" unicode="&#xf64f;" horiz-adv-x="458" 
d="M325 0l-110 194l-44 -56v-138h-120v500h120v-197h2c14 22 33 49 44 63l100 134h137l-159 -205l172 -295h-142zM142 -246l43 182h118l-73 -182h-88z" />
    <glyph glyph-name="kgreenlandic" unicode="&#x138;" horiz-adv-x="462" 
d="M311 480h139l-148 -183l172 -297h-132l-118 206l-49 -62v-144h-118v480h118v-181h2c12 18 27 38 40 55z" />
    <glyph glyph-name="kgreenlandic.small" unicode="&#xe794;" horiz-adv-x="458" 
d="M325 0l-110 194l-44 -56v-138h-120v500h120v-197h2c14 22 33 49 44 63l100 134h137l-159 -205l172 -295h-142z" />
    <glyph glyph-name="khook" unicode="&#x199;" horiz-adv-x="462" 
d="M175 299h2c12 18 27 38 40 55l94 126h139l-148 -183l172 -297h-132l-118 206l-49 -62v-144h-118v574c0 92 47 141 152 141c42 0 88 -5 126 -13l-5 -102c-36 7 -78 12 -104 12c-47 0 -51 -14 -51 -60v-253z" />
    <glyph glyph-name="khook.small" unicode="&#xe795;" horiz-adv-x="458" 
d="M450 498v-105h-6c-38 0 -58 -9 -77 -28c-30 -30 -36 -59 -56 -97l156 -268h-136l-101 175c-19 -16 -38 -28 -59 -38v-137h-120v500h120v-232c52 46 62 120 126 184c30 30 65 48 120 48c10 0 25 -1 33 -2z" />
    <glyph glyph-name="l.small" unicode="&#xf76c;" horiz-adv-x="409" 
d="M392 0h-341v500h120v-397h221v-103z" />
    <glyph glyph-name="l.superior" unicode="&#xe36c;" horiz-adv-x="160" 
d="M126 270h-92v423h92v-423z" />
    <glyph glyph-name="lacute" unicode="&#x13a;" horiz-adv-x="232" 
d="M270 920l-108 -154h-92l74 154h126zM175 0h-118v705h118v-705z" />
    <glyph glyph-name="lacute.small" unicode="&#xf650;" horiz-adv-x="409" 
d="M269 715l-108 -154h-92l74 154h126zM392 0h-341v500h120v-397h221v-103z" />
    <glyph glyph-name="lcaron" unicode="&#x13e;" horiz-adv-x="365" 
d="M219 524l46 181h101l-61 -181h-86zM175 0h-118v705h118v-705z" />
    <glyph glyph-name="lcaron.small" unicode="&#xf651;" horiz-adv-x="414" 
d="M248 319l46 181h101l-61 -181h-86zM392 0h-341v500h120v-397h221v-103z" />
    <glyph glyph-name="lcedilla" unicode="&#xe100;" horiz-adv-x="232" 
d="M175 0h-118v705h118v-705zM126 -121c0 21 -45 23 -72 24l5 61c74 0 151 -20 151 -89c0 -47 -42 -78 -115 -78c-18 0 -53 2 -74 10l4 64c19 -5 44 -9 64 -9s37 3 37 17z" />
    <glyph glyph-name="lcedilla.small" unicode="&#xe796;" horiz-adv-x="409" 
d="M392 0h-341v500h120v-397h221v-103zM231 -121c0 21 -45 23 -72 24l5 61c74 0 151 -20 151 -89c0 -47 -42 -78 -115 -78c-18 0 -53 2 -74 10l4 64c19 -5 44 -9 64 -9s37 3 37 17z" />
    <glyph glyph-name="lcommaaccent" unicode="&#x13c;" horiz-adv-x="232" 
d="M175 0h-118v705h118v-705zM14 -246l43 182h118l-73 -182h-88z" />
    <glyph glyph-name="lcommaaccent.small" unicode="&#xf652;" horiz-adv-x="409" 
d="M392 0h-341v500h120v-397h221v-103zM125 -246l43 182h118l-73 -182h-88z" />
    <glyph glyph-name="ldot" unicode="&#x140;" horiz-adv-x="432" 
d="M175 0h-118v705h118v-705zM392 292h-121v113h121v-113z" />
    <glyph glyph-name="ldot.small" unicode="&#xf634;" horiz-adv-x="409" 
d="M392 0h-341v500h120v-397h221v-103zM350 201h-121v113h121v-113z" />
    <glyph glyph-name="ldotbelow" unicode="&#x1e37;" horiz-adv-x="232" 
d="M175 0h-118v705h118v-705zM177 -188h-121v113h121v-113z" />
    <glyph glyph-name="ldotbelow.small" unicode="&#xe797;" horiz-adv-x="409" 
d="M392 0h-341v500h120v-397h221v-103zM280 -188h-121v113h121v-113z" />
    <glyph glyph-name="ldotbelowmacron" unicode="&#x1e39;" horiz-adv-x="232" 
d="M272 798h-311v90h311v-90zM175 0h-118v705h118v-705zM176 -188h-121v113h121v-113z" />
    <glyph glyph-name="ldotbelowmacron.small" unicode="&#xe798;" horiz-adv-x="409" 
d="M267 594h-311v90h311v-90zM392 0h-341v500h120v-397h221v-103zM280 -188h-121v113h121v-113z" />
    <glyph glyph-name="less.cap" unicode="&#xe596;" horiz-adv-x="540" 
d="M49 391l430 185v-115l-270 -113l270 -112v-114l-430 185v84z" />
    <glyph glyph-name="lessequal" unicode="&#x2264;" horiz-adv-x="550" 
d="M489 0h-430v97h389l-389 145v84l430 160v-108l-267 -94l267 -94v-190z" />
    <glyph glyph-name="litre" unicode="&#xe799;" horiz-adv-x="364" 
d="M73 114v48l-32 -11l-2 103c14 6 25 11 34 17v237c0 126 49 177 137 177c90 0 126 -62 126 -132c0 -115 -60 -236 -145 -315v-106c0 -27 9 -42 34 -42c23 0 47 5 71 14l4 -97c-28 -12 -74 -16 -97 -16c-104 0 -130 60 -130 123zM187 526v-141c29 59 40 119 40 160
c0 27 -9 40 -19 40c-15 0 -21 -24 -21 -59z" />
    <glyph glyph-name="lowline" unicode="&#xe511;" horiz-adv-x="648" 
d="M650 -81h-652v81h652v-81z" />
    <glyph glyph-name="lozenge" unicode="&#x25ca;" horiz-adv-x="596" 
d="M331 -2h-66l-236 328v26l236 327h65l237 -327v-26zM300 151l131 188l-131 186l-131 -186z" />
    <glyph glyph-name="lslash" unicode="&#x142;" horiz-adv-x="316" 
d="M212 0h-118v211l-79 -45v106l79 45v388h118v-321l86 50v-107l-86 -49v-278z" />
    <glyph glyph-name="lslash.small" unicode="&#xf6f9;" horiz-adv-x="429" 
d="M320 272l-129 -74v-95h221v-103h-341v129l-71 -40v103l71 40v268h120v-199l129 74v-103z" />
    <glyph glyph-name="m.small" unicode="&#xf76d;" horiz-adv-x="655" 
d="M474 310l-86 -310h-125l-86 310c-4 16 -15 62 -19 94h-2c3 -34 4 -78 4 -94l1 -310h-110v500h178l79 -292c6 -22 14 -62 18 -91h2c4 29 12 69 18 91l79 292h178v-500h-113l1 310c0 16 1 60 4 94h-2c-4 -32 -15 -78 -19 -94z" />
    <glyph glyph-name="m.superior" unicode="&#xe36d;" horiz-adv-x="442" 
d="M322 270v205c0 13 -5 18 -15 18c-13 0 -29 -8 -39 -17v-206h-91v205c0 13 -5 18 -15 18c-14 0 -29 -8 -39 -17v-206h-92v293h67l5 -19h1c17 14 44 25 71 25s57 -6 74 -25h1c18 14 46 25 75 25c42 0 89 -18 89 -79v-220h-92z" />
    <glyph glyph-name="macron.cap" unicode="&#xe425;" 
d="M418 768h-311v90h311v-90z" />
    <glyph glyph-name="mcedilla" unicode="&#xe114;" horiz-adv-x="711" 
d="M665 365v-365h-118v353c0 28 -15 37 -35 37c-40 0 -76 -19 -95 -35v-355h-118v353c0 28 -15 37 -35 37c-40 0 -76 -19 -95 -35v-355h-118v480h89l8 -32h1c34 25 81 42 128 42c39 0 86 -12 114 -46h1c34 27 84 46 133 46c61 0 140 -28 140 -125zM369 -121
c0 21 -45 23 -72 24l5 61c74 0 151 -20 151 -89c0 -47 -42 -78 -115 -78c-18 0 -53 2 -74 10l4 64c19 -5 44 -9 64 -9s37 3 37 17z" />
    <glyph glyph-name="mcedilla.small" unicode="&#xe801;" horiz-adv-x="655" 
d="M474 310l-86 -310h-125l-86 310c-4 16 -15 62 -19 94h-2c3 -34 4 -78 4 -94l1 -310h-110v500h178l79 -292c6 -22 14 -62 18 -91h2c4 29 12 69 18 91l79 292h178v-500h-113l1 310c0 16 1 60 4 94h-2c-4 -32 -15 -78 -19 -94zM341 -121c0 21 -45 23 -72 24l5 61
c74 0 151 -20 151 -89c0 -47 -42 -78 -115 -78c-18 0 -53 2 -74 10l4 64c19 -5 44 -9 64 -9s37 3 37 17z" />
    <glyph glyph-name="mdotbelow" unicode="&#x1e43;" horiz-adv-x="711" 
d="M665 365v-365h-118v353c0 28 -15 37 -35 37c-40 0 -76 -19 -95 -35v-355h-118v353c0 28 -15 37 -35 37c-40 0 -76 -19 -95 -35v-355h-118v480h89l8 -32h1c34 25 81 42 128 42c39 0 86 -12 114 -46h1c34 27 84 46 133 46c61 0 140 -28 140 -125zM420 -188h-121v113h121
v-113z" />
    <glyph glyph-name="mdotbelow.small" unicode="&#xe802;" horiz-adv-x="655" 
d="M474 310l-86 -310h-125l-86 310c-4 16 -15 62 -19 94h-2c3 -34 4 -78 4 -94l1 -310h-110v500h178l79 -292c6 -22 14 -62 18 -91h2c4 29 12 69 18 91l79 292h178v-500h-113l1 310c0 16 1 60 4 94h-2c-4 -32 -15 -78 -19 -94zM388 -188h-121v113h121v-113z" />
    <glyph glyph-name="minus" unicode="&#x2212;" horiz-adv-x="566" 
d="M521 207h-476v102h476v-102z" />
    <glyph glyph-name="minus.cap" unicode="&#xe592;" horiz-adv-x="566" 
d="M521 297h-476v102h476v-102z" />
    <glyph glyph-name="mmacron" unicode="&#xe112;" horiz-adv-x="711" 
d="M516 573h-311v90h311v-90zM665 365v-365h-118v353c0 28 -15 37 -35 37c-40 0 -76 -19 -95 -35v-355h-118v353c0 28 -15 37 -35 37c-40 0 -76 -19 -95 -35v-355h-118v480h89l8 -32h1c34 25 81 42 128 42c39 0 86 -12 114 -46h1c34 27 84 46 133 46c61 0 140 -28 140 -125z
" />
    <glyph glyph-name="mmacron.small" unicode="&#xe803;" horiz-adv-x="655" 
d="M483 594h-311v90h311v-90zM474 310l-86 -310h-125l-86 310c-4 16 -15 62 -19 94h-2c3 -34 4 -78 4 -94l1 -310h-110v500h178l79 -292c6 -22 14 -62 18 -91h2c4 29 12 69 18 91l79 292h178v-500h-113l1 310c0 16 1 60 4 94h-2c-4 -32 -15 -78 -19 -94z" />
    <glyph glyph-name="multiply.cap" unicode="&#xe593;" horiz-adv-x="564" 
d="M282 420l149 149l78 -78l-149 -149l149 -149l-77 -80l-150 150l-150 -150l-77 80l149 149l-149 149l78 78z" />
    <glyph glyph-name="n.small" unicode="&#xf76e;" horiz-adv-x="515" 
d="M319 0l-130 266c-9 18 -25 56 -32 85h-2c2 -30 4 -65 4 -93l1 -258h-109v500h149l126 -268c9 -18 25 -56 32 -85h2c-2 30 -4 65 -4 93l-1 260h109v-500h-145z" />
    <glyph glyph-name="n.superior" unicode="&#x207f;" horiz-adv-x="308" 
d="M280 490v-220h-91v205c0 13 -6 18 -19 18c-16 0 -34 -8 -47 -17v-206h-92v293h67l5 -19h1c20 14 49 25 80 25c46 0 96 -18 96 -79z" />
    <glyph glyph-name="nacute" unicode="&#x144;" horiz-adv-x="486" 
d="M432 695l-108 -154h-92l74 154h126zM440 365v-365h-118v353c0 28 -19 37 -45 37c-45 0 -86 -19 -108 -35v-355h-118v480h89l8 -32h1c38 25 89 42 141 42c65 0 150 -28 150 -125z" />
    <glyph glyph-name="nacute.small" unicode="&#xf653;" horiz-adv-x="515" 
d="M411 715l-108 -154h-92l74 154h126zM319 0l-130 266c-9 18 -25 56 -32 85h-2c2 -30 4 -65 4 -93l1 -258h-109v500h149l126 -268c9 -18 25 -56 32 -85h2c-2 30 -4 65 -4 93l-1 260h109v-500h-145z" />
    <glyph glyph-name="ncaron" unicode="&#x148;" horiz-adv-x="486" 
d="M307 541h-105l-99 154h102l52 -85l51 85h99zM440 365v-365h-118v353c0 28 -19 37 -45 37c-45 0 -86 -19 -108 -35v-355h-118v480h89l8 -32h1c38 25 89 42 141 42c65 0 150 -28 150 -125z" />
    <glyph glyph-name="ncaron.small" unicode="&#xf654;" horiz-adv-x="515" 
d="M314 561h-105l-99 154h102l52 -85l51 85h99zM319 0l-130 266c-9 18 -25 56 -32 85h-2c2 -30 4 -65 4 -93l1 -258h-109v500h149l126 -268c9 -18 25 -56 32 -85h2c-2 30 -4 65 -4 93l-1 260h109v-500h-145z" />
    <glyph glyph-name="ncedilla" unicode="&#xe11a;" horiz-adv-x="486" 
d="M440 365v-365h-118v353c0 28 -19 37 -45 37c-45 0 -86 -19 -108 -35v-355h-118v480h89l8 -32h1c38 25 89 42 141 42c65 0 150 -28 150 -125zM266 -121c0 21 -45 23 -72 24l5 61c74 0 151 -20 151 -89c0 -47 -42 -78 -115 -78c-18 0 -53 2 -74 10l4 64c19 -5 44 -9 64 -9
s37 3 37 17z" />
    <glyph glyph-name="ncedilla.small" unicode="&#xe804;" horiz-adv-x="515" 
d="M319 0l-130 266c-9 18 -25 56 -32 85h-2c2 -30 4 -65 4 -93l1 -258h-109v500h149l126 -268c9 -18 25 -56 32 -85h2c-2 30 -4 65 -4 93l-1 260h109v-500h-145zM280 -121c0 21 -45 23 -72 24l5 61c74 0 151 -20 151 -89c0 -47 -42 -78 -115 -78c-18 0 -53 2 -74 10l4 64
c19 -5 44 -9 64 -9s37 3 37 17z" />
    <glyph glyph-name="ncommaaccent" unicode="&#x146;" horiz-adv-x="486" 
d="M440 365v-365h-118v353c0 28 -19 37 -45 37c-45 0 -86 -19 -108 -35v-355h-118v480h89l8 -32h1c38 25 89 42 141 42c65 0 150 -28 150 -125zM155 -246l43 182h118l-73 -182h-88z" />
    <glyph glyph-name="ncommaaccent.small" unicode="&#xf655;" horiz-adv-x="515" 
d="M319 0l-130 266c-9 18 -25 56 -32 85h-2c2 -30 4 -65 4 -93l1 -258h-109v500h149l126 -268c9 -18 25 -56 32 -85h2c-2 30 -4 65 -4 93l-1 260h109v-500h-145zM170 -246l43 182h118l-73 -182h-88z" />
    <glyph glyph-name="ndescender" unicode="&#xe805;" horiz-adv-x="486" 
d="M440 365v-314h55v-178h-105v127h-68v353c0 28 -19 37 -45 37c-45 0 -86 -19 -108 -35v-355h-118v480h89l8 -32h1c38 25 89 42 141 42c65 0 150 -28 150 -125z" />
    <glyph glyph-name="ndescender.small" unicode="&#xe807;" horiz-adv-x="515" 
d="M319 0l-130 266c-9 18 -25 56 -32 85h-2c2 -30 4 -65 4 -93l1 -258h-109v500h149l126 -268c9 -18 25 -56 32 -85h2c-2 30 -4 65 -4 93l-1 260h109v-449h58v-178h-105v127h-98z" />
    <glyph glyph-name="ndieresis" unicode="&#xe116;" horiz-adv-x="486" 
d="M402 564h-110v108h110v-108zM212 564h-110v108h110v-108zM440 365v-365h-118v353c0 28 -19 37 -45 37c-45 0 -86 -19 -108 -35v-355h-118v480h89l8 -32h1c38 25 89 42 141 42c65 0 150 -28 150 -125z" />
    <glyph glyph-name="ndieresis.small" unicode="&#xe808;" horiz-adv-x="515" 
d="M411 584h-110v108h110v-108zM221 584h-110v108h110v-108zM319 0l-130 266c-9 18 -25 56 -32 85h-2c2 -30 4 -65 4 -93l1 -258h-109v500h149l126 -268c9 -18 25 -56 32 -85h2c-2 30 -4 65 -4 93l-1 260h109v-500h-145z" />
    <glyph glyph-name="ndotaccent" unicode="&#x1e45;" horiz-adv-x="486" 
d="M327 562h-120v113h120v-113zM440 365v-365h-118v353c0 28 -19 37 -45 37c-45 0 -86 -19 -108 -35v-355h-118v480h89l8 -32h1c38 25 89 42 141 42c65 0 150 -28 150 -125z" />
    <glyph glyph-name="ndotaccent.small" unicode="&#xe809;" horiz-adv-x="515" 
d="M315 582h-120v113h120v-113zM319 0l-130 266c-9 18 -25 56 -32 85h-2c2 -30 4 -65 4 -93l1 -258h-109v500h149l126 -268c9 -18 25 -56 32 -85h2c-2 30 -4 65 -4 93l-1 260h109v-500h-145z" />
    <glyph glyph-name="ndotbelow" unicode="&#x1e47;" horiz-adv-x="486" 
d="M440 365v-365h-118v353c0 28 -19 37 -45 37c-45 0 -86 -19 -108 -35v-355h-118v480h89l8 -32h1c38 25 89 42 141 42c65 0 150 -28 150 -125zM308 -188h-121v113h121v-113z" />
    <glyph glyph-name="ndotbelow.small" unicode="&#xe810;" horiz-adv-x="515" 
d="M319 0l-130 266c-9 18 -25 56 -32 85h-2c2 -30 4 -65 4 -93l1 -258h-109v500h149l126 -268c9 -18 25 -56 32 -85h2c-2 30 -4 65 -4 93l-1 260h109v-500h-145zM329 -188h-121v113h121v-113z" />
    <glyph glyph-name="ngrave" unicode="&#x1f9;" horiz-adv-x="486" 
d="M236 541l-107 154h126l74 -154h-93zM440 365v-365h-118v353c0 28 -19 37 -45 37c-45 0 -86 -19 -108 -35v-355h-118v480h89l8 -32h1c38 25 89 42 141 42c65 0 150 -28 150 -125z" />
    <glyph glyph-name="ngrave.small" unicode="&#xe811;" horiz-adv-x="515" 
d="M224 561l-107 154h126l74 -154h-93zM319 0l-130 266c-9 18 -25 56 -32 85h-2c2 -30 4 -65 4 -93l1 -258h-109v500h149l126 -268c9 -18 25 -56 32 -85h2c-2 30 -4 65 -4 93l-1 260h109v-500h-145z" />
    <glyph glyph-name="nine.LP" unicode="&#xe53e;" horiz-adv-x="539" 
d="M488 362c0 -263 -90 -371 -297 -371c-27 0 -71 1 -101 6l4 103c27 -4 60 -6 93 -6c135 0 175 69 175 199h-2c-23 -19 -81 -35 -123 -35c-128 0 -205 64 -205 206s93 222 219 222c194 0 237 -171 237 -324zM250 363c42 0 88 20 111 42c0 79 -21 178 -111 178
c-62 0 -96 -41 -96 -119c0 -74 28 -101 96 -101z" />
    <glyph glyph-name="nine.LT" unicode="&#xe549;" 
d="M486 362c0 -263 -90 -371 -297 -371c-27 0 -71 1 -101 6l4 103c27 -4 60 -6 93 -6c135 0 175 69 175 199h-2c-23 -19 -81 -35 -123 -35c-128 0 -205 64 -205 206s93 222 219 222c194 0 237 -171 237 -324zM248 363c42 0 88 20 111 42c0 79 -21 178 -111 178
c-62 0 -96 -41 -96 -119c0 -74 28 -101 96 -101z" />
    <glyph glyph-name="nine.OT" unicode="&#xe55f;" 
d="M487 197c0 -257 -87 -362 -287 -362c-25 0 -65 1 -93 6l4 103c25 -4 55 -6 85 -6c127 0 165 66 165 190h-2c-21 -19 -74 -35 -113 -35c-123 0 -197 64 -197 206c0 135 90 211 211 211c186 0 227 -165 227 -313zM259 198c38 0 80 20 101 42c0 74 -19 167 -101 167
c-57 0 -88 -37 -88 -108c0 -74 26 -101 88 -101z" />
    <glyph glyph-name="nmacron" unicode="&#xe118;" horiz-adv-x="486" 
d="M402 573h-311v90h311v-90zM440 365v-365h-118v353c0 28 -19 37 -45 37c-45 0 -86 -19 -108 -35v-355h-118v480h89l8 -32h1c38 25 89 42 141 42c65 0 150 -28 150 -125z" />
    <glyph glyph-name="nmacron.small" unicode="&#xe812;" horiz-adv-x="515" 
d="M412 594h-311v90h311v-90zM319 0l-130 266c-9 18 -25 56 -32 85h-2c2 -30 4 -65 4 -93l1 -258h-109v500h149l126 -268c9 -18 25 -56 32 -85h2c-2 30 -4 65 -4 93l-1 260h109v-500h-145z" />
    <glyph glyph-name="notequal" unicode="&#x2260;" horiz-adv-x="584" 
d="M186 31h-115l61 83h-78v102h153l61 84h-214v102h289l62 84h112l-61 -84h74v-102h-149l-61 -84h210v-102h-284z" />
    <glyph glyph-name="ntilde.small" unicode="&#xf7f1;" horiz-adv-x="515" 
d="M418 696l4 -90c-26 -16 -64 -27 -91 -27c-52 0 -97 31 -146 31c-26 0 -57 -14 -81 -28l-6 88c27 17 66 28 93 28c50 0 97 -31 143 -31c27 0 59 14 84 29zM319 0l-130 266c-9 18 -25 56 -32 85h-2c2 -30 4 -65 4 -93l1 -258h-109v500h149l126 -268c9 -18 25 -56 32 -85h2
c-2 30 -4 65 -4 93l-1 260h109v-500h-145z" />
    <glyph glyph-name="numbersignoldstyle" unicode="&#xe813;" horiz-adv-x="542" 
d="M160 -15h-94l29 128h-78l18 79h78l25 113h-82l18 83h83l28 122h92l-28 -122h105l28 122h89l-28 -122h80l-19 -83h-79l-25 -113h84l-19 -79h-83l-28 -128h-91l29 128h-104zM231 305l-25 -113h104l25 113h-104z" />
    <glyph glyph-name="numero" unicode="&#x2116;" horiz-adv-x="1153" 
d="M1102 436c0 -170 -66 -250 -216 -250c-149 0 -216 81 -216 251s66 249 216 249c149 0 216 -79 216 -250zM249 675l177 -418c14 -32 29 -73 41 -112h2c-3 40 -5 75 -5 112l-1 418h117v-675h-166l-184 418c-14 32 -29 69 -41 108h-2c3 -40 5 -71 5 -108l1 -418h-117v675
h173zM980 436c0 122 -32 147 -94 147s-94 -25 -94 -146c0 -122 32 -147 94 -147c63 0 94 25 94 146zM1060 104v-104h-345v104h345z" />
    <glyph glyph-name="o.small" unicode="&#xf76f;" horiz-adv-x="507" 
d="M474 250c0 -178 -60 -260 -220 -260c-162 0 -221 82 -221 260s59 260 221 260c160 0 220 -82 220 -260zM158 250c0 -128 26 -154 96 -154c69 0 96 25 96 154c0 128 -27 154 -96 154c-70 0 -96 -26 -96 -154z" />
    <glyph glyph-name="o.superior" unicode="&#xe36e;" horiz-adv-x="310" 
d="M292 416c0 -102 -38 -152 -136 -152c-99 0 -137 50 -137 152s38 153 137 153c98 0 136 -52 136 -153zM198 416c0 63 -11 78 -42 78c-32 0 -42 -15 -42 -78s10 -79 42 -79c31 0 42 16 42 79z" />
    <glyph glyph-name="oacute.small" unicode="&#xf7f3;" horiz-adv-x="507" 
d="M413 715l-108 -154h-92l74 154h126zM474 250c0 -178 -60 -260 -220 -260c-162 0 -221 82 -221 260s59 260 221 260c160 0 220 -82 220 -260zM158 250c0 -128 26 -154 96 -154c69 0 96 25 96 154c0 128 -27 154 -96 154c-70 0 -96 -26 -96 -154z" />
    <glyph glyph-name="obreve" unicode="&#x14f;" horiz-adv-x="494" 
d="M410 688c-19 -82 -72 -140 -163 -140c-92 0 -144 58 -163 140h101c9 -43 28 -61 62 -61c33 0 53 18 62 61h101zM463 240c0 -170 -66 -250 -216 -250c-149 0 -216 81 -216 251s66 249 216 249c149 0 216 -79 216 -250zM341 240c0 122 -32 147 -94 147s-94 -25 -94 -146
c0 -122 32 -147 94 -147c63 0 94 25 94 146z" />
    <glyph glyph-name="obreve.small" unicode="&#xf635;" horiz-adv-x="507" 
d="M417 708c-19 -82 -72 -140 -163 -140c-92 0 -144 58 -163 140h101c9 -43 28 -61 62 -61c33 0 53 18 62 61h101zM474 250c0 -178 -60 -260 -220 -260c-162 0 -221 82 -221 260s59 260 221 260c160 0 220 -82 220 -260zM158 250c0 -128 26 -154 96 -154c69 0 96 25 96 154
c0 128 -27 154 -96 154c-70 0 -96 -26 -96 -154z" />
    <glyph glyph-name="ocaron" unicode="&#x1d2;" horiz-adv-x="494" 
d="M297 541h-105l-99 154h102l52 -85l51 85h99zM463 240c0 -170 -66 -250 -216 -250c-149 0 -216 81 -216 251s66 249 216 249c149 0 216 -79 216 -250zM341 240c0 122 -32 147 -94 147s-94 -25 -94 -146c0 -122 32 -147 94 -147c63 0 94 25 94 146z" />
    <glyph glyph-name="ocaron.small" unicode="&#xe814;" horiz-adv-x="507" 
d="M304 561h-105l-99 154h102l52 -85l51 85h99zM474 250c0 -178 -60 -260 -220 -260c-162 0 -221 82 -221 260s59 260 221 260c160 0 220 -82 220 -260zM158 250c0 -128 26 -154 96 -154c69 0 96 25 96 154c0 128 -27 154 -96 154c-70 0 -96 -26 -96 -154z" />
    <glyph glyph-name="ocedilla" unicode="&#xe110;" horiz-adv-x="494" 
d="M463 240c0 -153 -53 -233 -173 -247c-5 -9 -8 -18 -8 -24s2 -8 6 -12c19 -19 52 -36 52 -78c0 -50 -42 -82 -110 -82c-16 0 -57 3 -79 9l4 70c22 -7 42 -10 62 -10c18 0 36 3 36 20c0 19 -29 29 -43 43c-9 9 -13 17 -13 29c0 10 4 22 11 34c-122 13 -177 94 -177 249
c0 170 66 249 216 249c149 0 216 -79 216 -250zM341 240c0 122 -32 147 -94 147s-94 -25 -94 -146c0 -122 32 -147 94 -147c63 0 94 25 94 146z" />
    <glyph glyph-name="ocedilla.small" unicode="&#xe815;" horiz-adv-x="507" 
d="M474 250c0 -164 -51 -247 -184 -258c-5 -9 -8 -17 -8 -23s2 -8 6 -12c19 -19 52 -36 52 -78c0 -50 -42 -82 -110 -82c-16 0 -57 3 -79 9l4 70c22 -7 42 -10 62 -10c18 0 36 3 36 20c0 19 -29 29 -43 43c-9 9 -13 17 -13 29c0 10 4 23 11 35c-127 14 -175 97 -175 257
c0 178 59 260 221 260c160 0 220 -82 220 -260zM158 250c0 -128 26 -154 96 -154c69 0 96 25 96 154c0 128 -27 154 -96 154c-70 0 -96 -26 -96 -154z" />
    <glyph glyph-name="ocircumflex.small" unicode="&#xf7f4;" horiz-adv-x="507" 
d="M204 715h104l100 -154h-102l-52 85l-51 -85h-99zM474 250c0 -178 -60 -260 -220 -260c-162 0 -221 82 -221 260s59 260 221 260c160 0 220 -82 220 -260zM158 250c0 -128 26 -154 96 -154c69 0 96 25 96 154c0 128 -27 154 -96 154c-70 0 -96 -26 -96 -154z" />
    <glyph glyph-name="ocommaturnedabove" unicode="&#xe11c;" horiz-adv-x="494" 
d="M349 712l-45 -190h-118l75 190h88zM463 240c0 -170 -66 -250 -216 -250c-149 0 -216 81 -216 251s66 249 216 249c149 0 216 -79 216 -250zM341 240c0 122 -32 147 -94 147s-94 -25 -94 -146c0 -122 32 -147 94 -147c63 0 94 25 94 146z" />
    <glyph glyph-name="ocommaturnedabove.small" unicode="&#xe816;" horiz-adv-x="507" 
d="M350 732l-45 -185h-118l75 185h88zM474 250c0 -178 -60 -260 -220 -260c-162 0 -221 82 -221 260s59 260 221 260c160 0 220 -82 220 -260zM158 250c0 -128 26 -154 96 -154c69 0 96 25 96 154c0 128 -27 154 -96 154c-70 0 -96 -26 -96 -154z" />
    <glyph glyph-name="odieresis.small" unicode="&#xf7f6;" horiz-adv-x="507" 
d="M404 584h-110v108h110v-108zM214 584h-110v108h110v-108zM474 250c0 -178 -60 -260 -220 -260c-162 0 -221 82 -221 260s59 260 221 260c160 0 220 -82 220 -260zM158 250c0 -128 26 -154 96 -154c69 0 96 25 96 154c0 128 -27 154 -96 154c-70 0 -96 -26 -96 -154z" />
    <glyph glyph-name="odotabove" unicode="&#x22f;" horiz-adv-x="494" 
d="M307 562h-120v113h120v-113zM463 240c0 -170 -66 -250 -216 -250c-149 0 -216 81 -216 251s66 249 216 249c149 0 216 -79 216 -250zM341 240c0 122 -32 147 -94 147s-94 -25 -94 -146c0 -122 32 -147 94 -147c63 0 94 25 94 146z" />
    <glyph glyph-name="odotabove.small" unicode="&#xe817;" horiz-adv-x="507" 
d="M314 581h-120v113h120v-113zM474 250c0 -178 -60 -260 -220 -260c-162 0 -221 82 -221 260s59 260 221 260c160 0 220 -82 220 -260zM158 250c0 -128 26 -154 96 -154c69 0 96 25 96 154c0 128 -27 154 -96 154c-70 0 -96 -26 -96 -154z" />
    <glyph glyph-name="odotabovemacron" unicode="&#x231;" horiz-adv-x="494" 
d="M404 664h-312v80h312v-80zM301 524h-105v104h105v-104zM463 240c0 -170 -66 -250 -216 -250c-149 0 -216 81 -216 251s66 249 216 249c149 0 216 -79 216 -250zM341 240c0 122 -32 147 -94 147s-94 -25 -94 -146c0 -122 32 -147 94 -147c63 0 94 25 94 146z" />
    <glyph glyph-name="odotabovemacron" unicode="&#xe11e;" horiz-adv-x="494" 
d="M404 664h-312v80h312v-80zM301 524h-105v104h105v-104zM463 240c0 -170 -66 -250 -216 -250c-149 0 -216 81 -216 251s66 249 216 249c149 0 216 -79 216 -250zM341 240c0 122 -32 147 -94 147s-94 -25 -94 -146c0 -122 32 -147 94 -147c63 0 94 25 94 146z" />
    <glyph glyph-name="odotabovemacron.small" unicode="&#xe818;" horiz-adv-x="507" 
d="M410 684h-312v80h312v-80zM307 544h-105v104h105v-104zM474 250c0 -178 -60 -260 -220 -260c-162 0 -221 82 -221 260s59 260 221 260c160 0 220 -82 220 -260zM158 250c0 -128 26 -154 96 -154c69 0 96 25 96 154c0 128 -27 154 -96 154c-70 0 -96 -26 -96 -154z" />
    <glyph glyph-name="odotbelow" unicode="&#x1ecd;" horiz-adv-x="494" 
d="M463 240c0 -170 -66 -250 -216 -250c-149 0 -216 81 -216 251s66 249 216 249c149 0 216 -79 216 -250zM341 240c0 122 -32 147 -94 147s-94 -25 -94 -146c0 -122 32 -147 94 -147c63 0 94 25 94 146zM308 -188h-121v113h121v-113z" />
    <glyph glyph-name="odotbelow.small" unicode="&#xe819;" horiz-adv-x="507" 
d="M474 250c0 -178 -60 -260 -220 -260c-162 0 -221 82 -221 260s59 260 221 260c160 0 220 -82 220 -260zM158 250c0 -128 26 -154 96 -154c69 0 96 25 96 154c0 128 -27 154 -96 154c-70 0 -96 -26 -96 -154zM315 -188h-121v113h121v-113z" />
    <glyph glyph-name="odoublegrave" unicode="&#x20d;" horiz-adv-x="494" 
d="M284 541l-107 154h120l74 -154h-87zM117 541l-107 154h120l74 -154h-87zM463 240c0 -170 -66 -250 -216 -250c-149 0 -216 81 -216 251s66 249 216 249c149 0 216 -79 216 -250zM341 240c0 122 -32 147 -94 147s-94 -25 -94 -146c0 -122 32 -147 94 -147
c63 0 94 25 94 146z" />
    <glyph glyph-name="odoublegrave.small" unicode="&#xe820;" horiz-adv-x="507" 
d="M286 561l-107 154h120l74 -154h-87zM119 561l-107 154h120l74 -154h-87zM474 250c0 -178 -60 -260 -220 -260c-162 0 -221 82 -221 260s59 260 221 260c160 0 220 -82 220 -260zM158 250c0 -128 26 -154 96 -154c69 0 96 25 96 154c0 128 -27 154 -96 154
c-70 0 -96 -26 -96 -154z" />
    <glyph glyph-name="oe.small" unicode="&#xf6fa;" horiz-adv-x="718" 
d="M254 510c38 0 74 -4 98 -10h344v-106h-225v-84h164v-104h-164v-100h228v-106h-347c-24 -7 -60 -10 -98 -10c-162 0 -221 82 -221 260s59 260 221 260zM158 250c0 -128 26 -154 96 -154c69 0 96 25 96 154c0 128 -27 154 -96 154c-70 0 -96 -26 -96 -154z" />
    <glyph glyph-name="ogonek" unicode="&#x2db;" 
d="M357 -120l3 -68c-17 -9 -54 -15 -77 -15c-78 0 -117 44 -117 94c0 57 44 109 98 132l71 -23c-38 -15 -84 -54 -84 -95c0 -25 17 -38 50 -38c17 0 38 4 56 13z" />
    <glyph glyph-name="ograve.small" unicode="&#xf7f2;" horiz-adv-x="507" 
d="M196 561l-107 154h126l74 -154h-93zM474 250c0 -178 -60 -260 -220 -260c-162 0 -221 82 -221 260s59 260 221 260c160 0 220 -82 220 -260zM158 250c0 -128 26 -154 96 -154c69 0 96 25 96 154c0 128 -27 154 -96 154c-70 0 -96 -26 -96 -154z" />
    <glyph glyph-name="ohm" unicode="&#xe821;" horiz-adv-x="689" 
d="M376 0v76c71 62 140 165 140 298c0 115 -63 208 -173 208c-108 0 -170 -93 -170 -208c0 -132 68 -233 138 -296v-78h-265v102h113c-51 69 -107 155 -107 272c0 179 102 311 293 311c192 0 292 -132 292 -311c0 -117 -56 -203 -107 -272h113v-102h-267z" />
    <glyph glyph-name="ohungarumlaut" unicode="&#x151;" horiz-adv-x="494" 
d="M480 695l-107 -154h-87l74 154h120zM313 695l-107 -154h-87l74 154h120zM463 240c0 -170 -66 -250 -216 -250c-149 0 -216 81 -216 251s66 249 216 249c149 0 216 -79 216 -250zM341 240c0 122 -32 147 -94 147s-94 -25 -94 -146c0 -122 32 -147 94 -147
c63 0 94 25 94 146z" />
    <glyph glyph-name="ohungarumlaut.small" unicode="&#xf656;" horiz-adv-x="507" 
d="M484 715l-107 -154h-87l74 154h120zM317 715l-107 -154h-87l74 154h120zM474 250c0 -178 -60 -260 -220 -260c-162 0 -221 82 -221 260s59 260 221 260c160 0 220 -82 220 -260zM158 250c0 -128 26 -154 96 -154c69 0 96 25 96 154c0 128 -27 154 -96 154
c-70 0 -96 -26 -96 -154z" />
    <glyph glyph-name="oinvertedbreve" unicode="&#x20f;" horiz-adv-x="494" 
d="M84 548c19 82 72 140 163 140c92 0 144 -58 163 -140h-101c-9 43 -28 61 -62 61c-33 0 -53 -18 -62 -61h-101zM463 240c0 -170 -66 -250 -216 -250c-149 0 -216 81 -216 251s66 249 216 249c149 0 216 -79 216 -250zM341 240c0 122 -32 147 -94 147s-94 -25 -94 -146
c0 -122 32 -147 94 -147c63 0 94 25 94 146z" />
    <glyph glyph-name="oinvertedbreve.small" unicode="&#xe822;" horiz-adv-x="507" 
d="M91 568c19 82 72 140 163 140c92 0 144 -58 163 -140h-101c-9 43 -28 61 -62 61c-33 0 -53 -18 -62 -61h-101zM474 250c0 -178 -60 -260 -220 -260c-162 0 -221 82 -221 260s59 260 221 260c160 0 220 -82 220 -260zM158 250c0 -128 26 -154 96 -154c69 0 96 25 96 154
c0 128 -27 154 -96 154c-70 0 -96 -26 -96 -154z" />
    <glyph glyph-name="omacron" unicode="&#x14d;" horiz-adv-x="494" 
d="M403 573h-311v90h311v-90zM463 240c0 -170 -66 -250 -216 -250c-149 0 -216 81 -216 251s66 249 216 249c149 0 216 -79 216 -250zM341 240c0 122 -32 147 -94 147s-94 -25 -94 -146c0 -122 32 -147 94 -147c63 0 94 25 94 146z" />
    <glyph glyph-name="omacron.small" unicode="&#xf657;" horiz-adv-x="507" 
d="M410 594h-311v90h311v-90zM474 250c0 -178 -60 -260 -220 -260c-162 0 -221 82 -221 260s59 260 221 260c160 0 220 -82 220 -260zM158 250c0 -128 26 -154 96 -154c69 0 96 25 96 154c0 128 -27 154 -96 154c-70 0 -96 -26 -96 -154z" />
    <glyph glyph-name="one.LP" unicode="&#xe536;" horiz-adv-x="321" 
d="M239 0h-118v586h-101v93l219 6v-685z" />
    <glyph glyph-name="one.LT" unicode="&#xe541;" 
d="M466 0h-380v98l135 5v483h-139v93l257 6v-582l127 -5v-98z" />
    <glyph glyph-name="one.OT" unicode="&#xe557;" 
d="M466 0h-380v98l135 5v302h-139v93l257 6v-401l127 -5v-98z" />
    <glyph glyph-name="onethirdemdash" unicode="&#xe471;" horiz-adv-x="396" 
d="M360 218h-322v81h322v-81z" />
    <glyph glyph-name="onethirdemdash.cap" unicode="&#xe483;" horiz-adv-x="396" 
d="M359 308h-322v81h322v-81z" />
    <glyph glyph-name="oogonek" unicode="&#x1eb;" horiz-adv-x="494" 
d="M463 240c0 -149 -51 -229 -164 -246c-34 -18 -70 -53 -70 -89c0 -25 17 -38 50 -38c17 0 38 4 56 13l3 -68c-17 -9 -54 -15 -77 -15c-78 0 -117 44 -117 94c0 40 21 77 51 103c-113 17 -164 98 -164 247c0 170 66 249 216 249c149 0 216 -79 216 -250zM341 240
c0 122 -32 147 -94 147s-94 -25 -94 -146c0 -122 32 -147 94 -147c63 0 94 25 94 146z" />
    <glyph glyph-name="oogonek.small" unicode="&#xe823;" horiz-adv-x="507" 
d="M346 -120l3 -68c-17 -9 -54 -15 -77 -15c-78 0 -117 44 -117 94c0 39 20 76 50 102c-125 16 -172 98 -172 257c0 178 59 260 221 260c160 0 220 -82 220 -260c0 -155 -46 -238 -163 -256c-35 -18 -71 -52 -71 -89c0 -25 17 -38 50 -38c17 0 38 4 56 13zM158 250
c0 -128 26 -154 96 -154c69 0 96 25 96 154c0 128 -27 154 -96 154c-70 0 -96 -26 -96 -154z" />
    <glyph glyph-name="oogonekmacron" unicode="&#x1ed;" horiz-adv-x="494" 
d="M403 573h-311v90h311v-90zM335 -120l3 -68c-17 -9 -54 -15 -77 -15c-78 0 -117 44 -117 94c0 40 21 77 51 103c-113 17 -164 98 -164 247c0 170 66 249 216 249c149 0 216 -79 216 -250c0 -149 -51 -229 -164 -246c-34 -18 -70 -53 -70 -89c0 -25 17 -38 50 -38
c17 0 38 4 56 13zM341 240c0 122 -32 147 -94 147s-94 -25 -94 -146c0 -122 32 -147 94 -147c63 0 94 25 94 146z" />
    <glyph glyph-name="oogonekmacron.small" unicode="&#xe824;" horiz-adv-x="507" 
d="M410 594h-311v90h311v-90zM346 -120l3 -68c-17 -9 -54 -15 -77 -15c-78 0 -117 44 -117 94c0 39 20 76 50 102c-125 16 -172 98 -172 257c0 178 59 260 221 260c160 0 220 -82 220 -260c0 -155 -46 -238 -163 -256c-35 -18 -71 -52 -71 -89c0 -25 17 -38 50 -38
c17 0 38 4 56 13zM158 250c0 -128 26 -154 96 -154c69 0 96 25 96 154c0 128 -27 154 -96 154c-70 0 -96 -26 -96 -154z" />
    <glyph glyph-name="ordfeminine.small" unicode="&#xe825;" horiz-adv-x="366" 
d="M361 315h-104l-20 66h-109l-20 -66h-103l124 372h108zM212 462l-17 63c-4 16 -10 46 -12 61h-1c-2 -15 -8 -45 -12 -61l-17 -63h59z" />
    <glyph glyph-name="ordmasculine.small" unicode="&#xe826;" horiz-adv-x="365" 
d="M348 504c0 -123 -37 -197 -162 -197c-124 0 -169 74 -169 197s40 193 165 193s166 -71 166 -193zM244 504c0 97 -22 106 -62 106c-41 0 -63 -9 -63 -106c0 -96 26 -110 67 -110c39 0 58 12 58 110z" />
    <glyph glyph-name="oslash.small" unicode="&#xf7f8;" horiz-adv-x="507" 
d="M467 546l-51 -91c40 -42 58 -110 58 -205c0 -178 -60 -260 -220 -260c-36 0 -67 4 -94 12l-27 -48h-92l51 89c-42 42 -59 110 -59 207c0 178 59 260 221 260c38 0 71 -5 98 -14l29 50h86zM158 250c0 -34 2 -61 6 -82l132 230c-12 4 -26 6 -42 6c-70 0 -96 -26 -96 -154z
M350 250c0 32 -2 58 -6 78l-129 -228c11 -3 24 -4 39 -4c69 0 96 25 96 154z" />
    <glyph glyph-name="oslashacute" unicode="&#x1ff;" horiz-adv-x="494" 
d="M406 695l-108 -154h-92l74 154h126zM453 526l-50 -89c40 -41 60 -106 60 -197c0 -170 -66 -250 -216 -250c-34 0 -64 5 -90 13l-27 -49h-89l51 88c-42 41 -61 107 -61 199c0 170 66 249 216 249c36 0 67 -5 94 -14l29 50h83zM153 241c0 -34 2 -60 7 -80l127 220
c-12 4 -25 6 -40 6c-62 0 -94 -25 -94 -146zM341 240c0 31 -2 56 -7 76l-123 -218c10 -3 22 -4 36 -4c63 0 94 25 94 146z" />
    <glyph glyph-name="oslashacute.small" unicode="&#xf627;" horiz-adv-x="507" 
d="M413 715l-108 -154h-92l74 154h126zM467 546l-51 -91c40 -42 58 -110 58 -205c0 -178 -60 -260 -220 -260c-36 0 -67 4 -94 12l-27 -48h-92l51 89c-42 42 -59 110 -59 207c0 178 59 260 221 260c38 0 71 -5 98 -14l29 50h86zM158 250c0 -34 2 -61 6 -82l132 230
c-12 4 -26 6 -42 6c-70 0 -96 -26 -96 -154zM350 250c0 32 -2 58 -6 78l-129 -228c11 -3 24 -4 39 -4c69 0 96 25 96 154z" />
    <glyph glyph-name="otilde.small" unicode="&#xf7f5;" horiz-adv-x="507" 
d="M413 696l4 -90c-26 -16 -64 -27 -91 -27c-52 0 -97 31 -146 31c-26 0 -57 -14 -81 -28l-6 88c27 17 66 28 93 28c50 0 97 -31 143 -31c27 0 59 14 84 29zM474 250c0 -178 -60 -260 -220 -260c-162 0 -221 82 -221 260s59 260 221 260c160 0 220 -82 220 -260zM158 250
c0 -128 26 -154 96 -154c69 0 96 25 96 154c0 128 -27 154 -96 154c-70 0 -96 -26 -96 -154z" />
    <glyph glyph-name="otildemacron" unicode="&#x22d;" horiz-adv-x="494" 
d="M409 664h-311v80h311v-80zM412 619l4 -78c-26 -16 -64 -27 -91 -27c-52 0 -97 31 -146 31c-26 0 -57 -14 -81 -28l-6 76c27 17 66 28 93 28c50 0 97 -31 143 -31c27 0 59 14 84 29zM463 240c0 -170 -66 -250 -216 -250c-149 0 -216 81 -216 251s66 249 216 249
c149 0 216 -79 216 -250zM341 240c0 122 -32 147 -94 147s-94 -25 -94 -146c0 -122 32 -147 94 -147c63 0 94 25 94 146z" />
    <glyph glyph-name="otildemacron.small" unicode="&#xe827;" horiz-adv-x="507" 
d="M408 684h-311v80h311v-80zM411 639l4 -78c-26 -16 -64 -27 -91 -27c-52 0 -97 31 -146 31c-26 0 -57 -14 -81 -28l-6 76c27 17 66 28 93 28c50 0 97 -31 143 -31c27 0 59 14 84 29zM474 250c0 -178 -60 -260 -220 -260c-162 0 -221 82 -221 260s59 260 221 260
c160 0 220 -82 220 -260zM158 250c0 -128 26 -154 96 -154c69 0 96 25 96 154c0 128 -27 154 -96 154c-70 0 -96 -26 -96 -154z" />
    <glyph glyph-name="ounderlineaccent" unicode="&#xe122;" horiz-adv-x="494" 
d="M463 240c0 -170 -66 -250 -216 -250c-149 0 -216 81 -216 251s66 249 216 249c149 0 216 -79 216 -250zM341 240c0 122 -32 147 -94 147s-94 -25 -94 -146c0 -122 32 -147 94 -147c63 0 94 25 94 146zM295 -230h-95v164h95v-164z" />
    <glyph glyph-name="ounderlineaccent.small" unicode="&#xe828;" horiz-adv-x="507" 
d="M474 250c0 -178 -60 -260 -220 -260c-162 0 -221 82 -221 260s59 260 221 260c160 0 220 -82 220 -260zM158 250c0 -128 26 -154 96 -154c69 0 96 25 96 154c0 128 -27 154 -96 154c-70 0 -96 -26 -96 -154zM302 -230h-95v164h95v-164z" />
    <glyph glyph-name="p.small" unicode="&#xf770;" horiz-adv-x="437" 
d="M171 0h-120v500h227c98 0 139 -73 139 -163c0 -95 -41 -165 -141 -165h-105v-172zM295 337c0 41 -12 63 -49 63h-75v-128h75c37 0 49 24 49 65z" />
    <glyph glyph-name="p.superior" unicode="&#xe36f;" horiz-adv-x="314" 
d="M296 419c0 -104 -40 -154 -125 -154c-14 0 -32 1 -45 3v-121h-92v416h67l5 -19h1c22 18 55 25 82 25c85 0 107 -67 107 -150zM202 415c0 64 -13 78 -37 78c-17 0 -31 -6 -39 -13v-138c8 -3 21 -4 31 -4c33 0 45 22 45 77z" />
    <glyph glyph-name="parenleft.cap" unicode="&#xe491;" horiz-adv-x="293" 
d="M131 797h120c-45 -133 -71 -298 -71 -461s22 -325 67 -458h-116c-48 127 -75 293 -75 460c0 166 28 332 75 459z" />
    <glyph glyph-name="parenright.cap" unicode="&#xe492;" horiz-adv-x="293" 
d="M42 797h120c47 -127 75 -293 75 -459c0 -167 -27 -333 -75 -460h-116c45 133 67 295 67 458s-26 328 -71 461z" />
    <glyph glyph-name="partialdiff" unicode="&#x2202;" horiz-adv-x="568" 
d="M507 314c0 -153 -43 -324 -237 -324c-126 0 -219 80 -219 222s77 206 205 206c42 0 100 -16 123 -35h2c0 130 -40 199 -175 199c-33 0 -66 -2 -93 -6l-4 103c30 5 74 6 101 6c207 0 297 -108 297 -371zM269 313c-68 0 -96 -27 -96 -101c0 -78 34 -119 96 -119
c90 0 111 99 111 178c-23 22 -69 42 -111 42z" />
    <glyph glyph-name="percentoldstyle" unicode="&#xe829;" horiz-adv-x="875" 
d="M678 540l-385 -591h-99l384 591h100zM63 339c0 106 43 161 141 161s141 -55 141 -161c0 -105 -43 -161 -141 -161s-141 56 -141 161zM154 339c0 -68 15 -89 51 -89c34 0 50 21 50 89s-16 88 -50 88c-36 0 -51 -20 -51 -88zM530 150c0 106 43 161 141 161
s141 -55 141 -161c0 -105 -43 -161 -141 -161s-141 56 -141 161zM621 150c0 -68 15 -89 51 -89c34 0 50 21 50 89s-16 89 -50 89c-36 0 -51 -21 -51 -89z" />
    <glyph glyph-name="periodcentered.cap" unicode="&#xe481;" horiz-adv-x="281" 
d="M210 277h-139v143h139v-143z" />
    <glyph glyph-name="perthousandoldstyle" unicode="&#xe830;" horiz-adv-x="1207" 
d="M678 540l-385 -591h-99l384 591h100zM63 339c0 106 43 161 141 161s141 -55 141 -161c0 -105 -43 -161 -141 -161s-141 56 -141 161zM154 339c0 -68 15 -89 51 -89c34 0 50 21 50 89s-16 88 -50 88c-36 0 -51 -20 -51 -88zM862 150c0 106 43 161 141 161
s141 -55 141 -161c0 -105 -43 -161 -141 -161s-141 56 -141 161zM530 150c0 106 43 161 141 161s141 -55 141 -161c0 -105 -43 -161 -141 -161s-141 56 -141 161zM953 150c0 -68 15 -89 51 -89c34 0 50 21 50 89s-16 89 -50 89c-36 0 -51 -21 -51 -89zM621 150
c0 -68 15 -89 51 -89c34 0 50 21 50 89s-16 89 -50 89c-36 0 -51 -21 -51 -89z" />
    <glyph glyph-name="pi" unicode="&#x3c0;" horiz-adv-x="627" 
d="M566 394h-112v-262c0 -27 9 -42 34 -42c23 0 47 5 71 14l4 -97c-28 -12 -74 -16 -97 -16c-104 0 -130 60 -130 123v280h-97v-15c0 -186 -14 -343 -18 -379h-120c14 121 22 193 22 390v4h-84v106h527v-106z" />
    <glyph glyph-name="pi" unicode="&#x3d6;" horiz-adv-x="627" 
d="M566 394h-112v-262c0 -27 9 -42 34 -42c23 0 47 5 71 14l4 -97c-28 -12 -74 -16 -97 -16c-104 0 -130 60 -130 123v280h-97v-15c0 -186 -14 -343 -18 -379h-120c14 121 22 193 22 390v4h-84v106h527v-106z" />
    <glyph glyph-name="plus.cap" unicode="&#xe591;" horiz-adv-x="566" 
d="M521 297h-180v-176h-117v176h-179v102h179v177h117v-177h180v-102z" />
    <glyph glyph-name="pmacron" unicode="&#xe124;" horiz-adv-x="492" 
d="M408 573h-311v90h311v-90zM51 480h89l8 -32h1c31 23 83 42 134 42c134 0 178 -98 178 -248c0 -175 -63 -252 -201 -252c-30 0 -59 4 -91 12v-207h-118v685zM169 355v-250c26 -10 49 -14 78 -14c59 0 92 20 92 145c0 119 -29 150 -78 150c-40 0 -71 -14 -92 -31z" />
    <glyph glyph-name="pmacron.small" unicode="&#xe831;" horiz-adv-x="437" 
d="M368 594h-311v90h311v-90zM171 0h-120v500h227c98 0 139 -73 139 -163c0 -95 -41 -165 -141 -165h-105v-172zM295 337c0 41 -12 63 -49 63h-75v-128h75c37 0 49 24 49 65z" />
    <glyph glyph-name="product" unicode="&#x220f;" horiz-adv-x="708" 
d="M440 569h-172v-569h-118v569h-111v106h630v-106h-111v-569h-118v569z" />
    <glyph glyph-name="published" unicode="&#x2117;" horiz-adv-x="770" 
d="M41 338c0 251 136 347 344 347s344 -96 344 -347c0 -252 -138 -348 -346 -348s-342 96 -342 348zM135 338c0 -205 108 -264 250 -264s250 59 250 264c0 204 -108 263 -250 263s-250 -59 -250 -263zM350 151h-94v369h171c86 0 116 -55 116 -125c0 -67 -30 -120 -118 -120
h-75v-124zM445 395c0 28 -8 44 -32 44h-63v-84h63c24 0 32 16 32 40z" />
    <glyph glyph-name="punctuationspace" unicode="&#x2008;" horiz-adv-x="280" 
 />
    <glyph glyph-name="q.small" unicode="&#xf771;" horiz-adv-x="508" 
d="M476 250c0 -154 -45 -236 -162 -255c54 -16 81 -48 144 -48c15 0 40 2 56 7l4 -97c-20 -5 -44 -8 -57 -8c-110 0 -141 57 -217 57c-30 0 -82 -12 -126 -33l-5 100c17 9 40 18 65 25c-105 23 -145 105 -145 252c0 178 59 260 222 260c161 0 221 -82 221 -260zM160 250
c0 -128 26 -154 95 -154c68 0 95 25 95 154c0 128 -27 154 -95 154c-69 0 -95 -26 -95 -154z" />
    <glyph glyph-name="q.superior" unicode="&#xe360;" horiz-adv-x="311" 
d="M135 569c26 0 53 -7 75 -20l5 14h66v-416h-93v130h-1c-14 -9 -37 -13 -61 -13c-84 0 -107 67 -107 152c0 92 29 153 116 153zM113 415c0 -57 12 -75 35 -75c15 0 32 4 41 13v128c-10 10 -24 15 -39 15c-28 0 -37 -22 -37 -81z" />
    <glyph glyph-name="questiondown.cap" unicode="&#xe444;" horiz-adv-x="378" 
d="M162 675h139v-143h-139v143zM8 137c0 52 15 92 59 126l113 86c11 8 15 17 15 28c0 13 -5 22 -11 32l-12 19l97 55l18 -29c18 -29 30 -52 30 -88c0 -40 -16 -66 -49 -91l-101 -76c-26 -19 -36 -33 -36 -57c0 -41 36 -50 90 -50c38 0 85 5 119 10l5 -101
c-52 -8 -109 -11 -141 -11c-103 0 -196 38 -196 147z" />
    <glyph glyph-name="r.small" unicode="&#xf772;" horiz-adv-x="451" 
d="M171 0h-120v500h236c98 0 136 -72 136 -160c0 -70 -31 -125 -86 -147l98 -193h-129l-90 182h-45v-182zM302 340c0 40 -12 60 -51 60h-80v-119h80c39 0 51 20 51 59z" />
    <glyph glyph-name="r.superior" unicode="&#xe371;" horiz-adv-x="206" 
d="M202 565l-3 -81c-7 2 -20 3 -27 3c-20 0 -41 -8 -49 -24v-193h-92v293h77l4 -25h1c12 22 35 30 59 30c10 0 22 -1 30 -3z" />
    <glyph glyph-name="racute" unicode="&#x155;" horiz-adv-x="320" 
d="M331 695l-108 -154h-92l74 154h126zM314 485l-5 -110c-13 3 -28 4 -42 4c-37 0 -74 -12 -98 -49v-330h-118v480h96l8 -44h2c27 40 66 53 109 53c15 0 34 -1 48 -4z" />
    <glyph glyph-name="racute.small" unicode="&#xf658;" horiz-adv-x="451" 
d="M379 715l-108 -154h-92l74 154h126zM171 0h-120v500h236c98 0 136 -72 136 -160c0 -70 -31 -125 -86 -147l98 -193h-129l-90 182h-45v-182zM302 340c0 40 -12 60 -51 60h-80v-119h80c39 0 51 20 51 59z" />
    <glyph glyph-name="radical" unicode="&#x221a;" horiz-adv-x="636" 
d="M27 306l-19 106l192 45l63 -291l255 460h138l-363 -636h-112l-76 334z" />
    <glyph glyph-name="rcaron" unicode="&#x159;" horiz-adv-x="320" 
d="M231 541h-105l-99 154h102l52 -85l51 85h99zM314 485l-5 -110c-13 3 -28 4 -42 4c-37 0 -74 -12 -98 -49v-330h-118v480h96l8 -44h2c27 40 66 53 109 53c15 0 34 -1 48 -4z" />
    </font>
</defs>
</svg>
